/* XPM */
static char *result[] = {
/* columns rows colors chars-per-pixel */
"50 50 154 2 ",
"   c #010000",
".  c #0C0000",
"X  c #140000",
"o  c #1C0000",
"O  c #220000",
"+  c #2C0000",
"@  c #340000",
"#  c #3D0000",
"$  c #430000",
"%  c #490000",
"&  c #550000",
"*  c #5B0000",
"=  c #630000",
"-  c #6C0000",
";  c #740000",
":  c #790000",
">  c #840000",
",  c #8C0000",
"<  c #940000",
"1  c #9C0000",
"2  c #A30000",
"3  c #AE0000",
"4  c #B40000",
"5  c #BB0000",
"6  c #C30000",
"7  c #CE0000",
"8  c #D40000",
"9  c #DD0000",
"0  c #E30000",
"q  c #EA0000",
"w  c #EF000D",
"e  c #F30000",
"r  c #FF0000",
"t  c #FF0B05",
"y  c #FE0708",
"u  c #FE0A0C",
"i  c #F2020E",
"p  c #E4031E",
"a  c #E90319",
"s  c #E90015",
"d  c #F00211",
"f  c #FD1214",
"g  c #FD191B",
"h  c #FA141B",
"j  c #D6022B",
"k  c #CA053A",
"l  c #D20331",
"z  c #D6163F",
"x  c #E30420",
"c  c #FB1C21",
"v  c #FB2126",
"b  c #FD2328",
"n  c #FC2B2E",
"m  c #FB2F35",
"M  c #FE3335",
"N  c #FA3239",
"B  c #AD0A5C",
"V  c #B40A55",
"C  c #9E0C6D",
"Z  c #9D0F71",
"A  c #A20E6C",
"S  c #C71750",
"D  c #F73A44",
"F  c #F63E48",
"G  c #F6424C",
"H  c #F94349",
"J  c #EE495B",
"K  c #F54A56",
"L  c #F3525E",
"P  c #CB497E",
"I  c #F35664",
"U  c #FB5963",
"Y  c #F35866",
"T  c #F9676F",
"R  c #F16575",
"E  c #F06A7B",
"W  c #7B179C",
"Q  c #6C15A8",
"!  c #0913FF",
"~  c #0519FF",
"^  c #0D1CFF",
"/  c #131BFF",
"(  c #1821FF",
")  c #3C27EB",
"_  c #2321FD",
"`  c #2C2BFE",
"'  c #2E24F5",
"]  c #3C34F7",
"[  c #4D1BCD",
"{  c #5819C0",
"}  c #541AC5",
"|  c #401FDE",
" . c #4D1ED0",
".. c #7035C5",
"X. c #4E4DFF",
"o. c #4241FE",
"O. c #5756FE",
"+. c #5E5DFF",
"@. c #6D56E9",
"#. c #7F62E3",
"$. c #6F6FFF",
"%. c #7779FF",
"&. c #921B88",
"*. c #833AB7",
"=. c #BB478C",
"-. c #EF7587",
";. c #EF7A8D",
":. c #F07C8E",
">. c #F67785",
",. c #F37C90",
"<. c #F2818F",
"1. c #EC879B",
"2. c #ED8094",
"3. c #F38A99",
"4. c #EC8DA2",
"5. c #E58BA7",
"6. c #ED92A5",
"7. c #EA99B1",
"8. c #E8A3BD",
"9. c #B481CD",
"0. c #8687FF",
"q. c #9E9CFF",
"w. c #949DFF",
"e. c #A19FFF",
"r. c #9EAAFF",
"t. c #A8A7FF",
"y. c #ACADFF",
"u. c #B4AFFC",
"i. c #C387C5",
"p. c #DFBBDE",
"a. c #E7AFCA",
"s. c #E6B3CE",
"d. c #E7B6D2",
"f. c #E5B9D5",
"g. c #E5BDDA",
"h. c #C1B7F8",
"j. c #BFC9FF",
"k. c #BAC2FF",
"l. c #E4C1DF",
"z. c #C8CFFF",
"x. c #DECCF0",
"c. c #CFD7FF",
"v. c #D4D2FF",
"b. c #D4D8FF",
"n. c #DBDEFF",
"m. c #E4C4E2",
"M. c #E2CCEB",
"N. c #E2D3F3",
"B. c #E1D7F8",
"V. c #E0DCFE",
"C. c #DFE4FF",
"Z. c #DEECFF",
"A. c #E3E3FF",
"S. c #E1EAFF",
/* pixels */
"                                                                                                    ",
"                                      . . . . . . . . . . . .                                       ",
"                                    X # $ % % % % % % % % $ # X                                     ",
"                                  . # ; 1 2 1 1 1 1 1 1 2 1 ; # .                                   ",
"                                  O = 3 0 q q q q q q q e 0 3 = O                                   ",
"                        O @ $ # # & < 8 r r r r r r r r r r 8 < & # # # @ o .                       ",
"                      X % : < < < 2 6 q r r r r r r r r r r q 6 2 < 1 < : % X                       ",
"                      + ; 5 0 q q 0 q r r r r r r r r r r r r q 0 0 q 0 5 ; +                       ",
"                  X @ * 1 0 r r r r r r r r r r r r r r r r r r r r r r 9 1 * + X                   ",
"                X $ ; 2 7 q r r r r r r r r r r r r r r r r r r r r r r e 7 2 ; $ X                 ",
"                + ; 5 0 e r r r r r r r r r r r r r r r r r r r r r r r r e 0 5 : +                 ",
"          . X + * 2 0 r r r r r r r r r r r r r r r r r r r r r r r r r r r r 0 2 * + X .           ",
"          o $ ; 2 7 e r r r r r r r r r r r r r r r r r r r r r r r r r r r r e 8 1 ; $ o           ",
"        . @ : 5 9 e r r r r r r r r r r r r r r r r r r r r r r r r r r r r r r e 9 5 : @ .         ",
"          $ < 9 r r r y f g v v b c f y r r r r r r r r r r y f c v v v g f y r r r 0 < #           ",
"        . $ 1 q r r r u m L R E E Y N h r r r r r r r r r r f D Y E E R L m u r r r q 1 $ .         ",
"          $ < 0 r r r c I 4.a.f.s.7.R n r r r r r r r r r r n R 7.d.f.a.4.I c r r r q < $           ",
"        . $ < 0 r y g F ;.f.V.S.C.m.4.K c u y r r r r y u c K 4.m.V.Z.V.f.;.D g y r 0 < # .         ",
"          # < 9 f m K -.8.M.S.Z.Z.N.a.:.I N g y r r y h N I :.a.N.Z.Z.A.M.8.-.K m g 9 < #           ",
"          # < 0 b U 4.a.M.B.A.A.C.n.x.f.7.R m u r r y m E 7.f.x.V.A.S.V.B.M.s.4.U b 9 < #           ",
"      . X & 2 0 m >.f.V.A.V.V.V.V.V.V.V.m.1.F u r r u F 1.m.A.C.V.V.V.V.V.V.B.f.>.m 0 2 & o         ",
"    X @ * > 6 q N ,.m.A.S.A.A.A.V.A.S.S.N.6.G u r r u G 5.N.Z.S.A.A.A.A.A.S.S.m.,.N q 5 , * @ X     ",
"  . @ - 2 7 q y m :.g.A.S.A.V.V.A.A.S.S.M.4.G u r r u F 4.M.S.S.A.A.A.A.A.S.S.g.,.N y q 7 2 - @ .   ",
"  . $ < 9 r r r m :.g.n.n.b.v.v.v.v.n.V.M.1.G u r r u F 4.M.n.b.v.v.v.v.v.C.n.g.-.m r r y 9 < $ .   ",
"  . % 2 e r r r N <.l.b.j.y.q.w.q.t.k.c.N.6.H u r r u G 6.M.b.k.t.e.q.e.y.j.b.g.;.N r r r e 2 % .   ",
"  . $ 2 q y r y M <.l.z.r.%.$.O.+.$.w.j.x.6.G u r r u H 6.x.j.w.$.+.O.+.%.r.z.m.<.N y r r q 2 % .   ",
"  . % 1 q r r r M >.s.h.0.X.` _ ` o.%.u.p.3.D u r r u F 3.p.u.%.o.` _ ` X.0.h.s.>.M y r r q 1 $ .   ",
"  . % 1 q r r r b L 1.i.#.] / ~ / ` @.9.5.T M u r r y M T 5.9.@.` / ~ / ] #.i.1.L v r r r q 1 % .   ",
"  . % 1 q r r r f n K P *.) / ~ ^ ' ..=.J N g r r r r g M J =...' ^ ~ / ) *.P K M f r r r q 1 % .   ",
"  . % 1 q r r r r t f z &. ._ ( / | &.S h t t r r r r t t h S W | _ ( _ [ &.z f t r r r r q 1 $ .   ",
"  . $ 1 q r r r r r r p B W { [ } Q Z l r r r r r r r r r r j Z Q } [ { W B p r r r r r r q 1 % .   ",
"  . $ 1 q r r r r r r w l V A Z C B k s r r r r r r r r r r s k B C C C V l w r r r r r r q 1 % .   ",
"  . % 1 q r r r r r r y w a p p p a d e r r r r r r r r r r y d p p x p a i y r r r r r r q 1 $ .   ",
"  . % 1 0 r r r r r r r r r r r r r r r r r r r r r r r r r r r r r r r r r r r r r r r r q 1 % .   ",
"  . % 1 q r r r r r r r r r r r r r r r r r r r r r r r r r r r r r r r r r r r r r r r r q 1 % X   ",
"  . % 1 q r r r r r r r r r r r r r r r r r r r r r r r r r r r r r r r r r r r r r r r r q 1 % .   ",
"  . % 1 q r r r r r r r r r r r r r r r r r r r r r r r r r r r r r r r r r r r r r r r r q 1 $ .   ",
"  . % 1 q r r r r r r r r r r r r r r r r r r r r r r r r r r r r r r r r r r r r r r r r q 1 $ .   ",
"  . % 1 q r r r r r r r r r r r r r r r r r r r r r r r r r r r r r r r r r r r r r r r r q 1 % .   ",
"  . % 1 q r r r r q 9 9 q r r r r r r r r e 0 9 9 8 9 0 e r r r r r r r r q 9 9 q e r r r q 1 % .   ",
"  . % 1 q r r r q 5 1 2 6 e r r r r r r e 8 3 , > > < 3 8 e r r r r r r e 6 1 1 6 q r r r q 1 $ .   ",
"  . % 1 q r r r 8 , & & < 9 r r r r r r q 4 ; $ + + # ; 5 q r r r r r r 9 < * & , 8 r r r q 1 $ .   ",
"  . % 1 q r r 0 4 = O + - 5 q e r r r r q 2 % X     X % 2 q r r r r e q 4 - + O = 3 0 r r q 1 % .   ",
"  . % 2 q e 8 2 - @ . X # : 2 7 e r r r q 2 %         $ 2 q r r r q 8 2 : # X X @ ; 2 8 e q 3 % .   ",
"  . % 3 q 9 1 & @ X     X @ * 1 9 r r r q 2 % .       % 2 q r r r 9 1 * @ X     X + & 1 9 q 2 % .   ",
"  . $ < 7 4 - o             + - 4 q e e 8 < $ .     . $ < 8 e e q 4 - +             O - 4 7 1 $ .   ",
"  . @ = > : $ .             . $ : 1 3 2 , = @       . + = , 2 3 1 : $ .             X $ ; , = + .   ",
"    X + $ @ o               . o @ % % % $ + X         X + $ % % $ # O                 X # # @ X     ",
"      . . .                     . . . . . .             . . . . . .                     . . .       ",
"                                                                                                    "
};
