/* XPM */
static char *result[] = {
/* columns rows colors chars-per-pixel */
"50 50 204 2 ",
"   c #010000",
".  c #0C0000",
"X  c #000408",
"o  c #140000",
"O  c #1D0000",
"+  c #220000",
"@  c #2C0000",
"#  c #350000",
"$  c #3D0000",
"%  c #32313F",
"&  c #3C2C31",
"*  c #430000",
"=  c #490000",
"-  c #560001",
";  c #5B0000",
":  c #5B0708",
">  c #41191B",
",  c #630000",
"<  c #6C0000",
"1  c #740000",
"2  c #790000",
"3  c #0F1541",
"4  c #1B0A40",
"5  c #1E2642",
"6  c #4E0742",
"7  c #840000",
"8  c #8C0000",
"9  c #940000",
"0  c #9C0000",
"q  c #940D0E",
"w  c #9E1316",
"e  c #A30000",
"r  c #AE0000",
"t  c #B40000",
"y  c #BB0000",
"u  c #973A3F",
"i  c #C40000",
"p  c #CE0000",
"a  c #D40000",
"s  c #DC0000",
"d  c #E30000",
"f  c #EA0000",
"g  c #F30000",
"h  c #FF0000",
"j  c #FE0708",
"k  c #FE0B0D",
"l  c #F5010B",
"z  c #FF120F",
"x  c #F10311",
"c  c #F70914",
"v  c #FD1114",
"b  c #FC1519",
"n  c #FC191D",
"m  c #FF1916",
"M  c #E70018",
"N  c #DF012B",
"B  c #CC0536",
"V  c #FB1E23",
"C  c #E70429",
"Z  c #DE2126",
"A  c #DA252B",
"S  c #FC2125",
"D  c #FA252B",
"F  c #FB292E",
"G  c #FA2C32",
"H  c #F7373F",
"J  c #FA353A",
"K  c #920842",
"L  c #BD0B4E",
"P  c #B40B56",
"I  c #BA1157",
"U  c #9C0C70",
"Y  c #B40A61",
"T  c #AF2C7C",
"R  c #C51C56",
"E  c #D0354C",
"W  c #F73942",
"Q  c #F73A43",
"!  c #E9344B",
"~  c #8B6673",
"^  c #F6434D",
"/  c #FA4349",
"(  c #EE4153",
")  c #FA4C53",
"_  c #F54752",
"`  c #F3525E",
"'  c #FA585F",
"]  c #F35562",
"[  c #F65964",
"{  c #F25C6B",
"}  c #E85D6C",
"|  c #F5636F",
" . c #F16473",
".. c #F16C7C",
"X. c #F76A74",
"o. c #E4616D",
"O. c #2C1498",
"+. c #2C3198",
"@. c #5E129A",
"#. c #79159C",
"$. c #6314B0",
"%. c #7119A8",
"&. c #51599B",
"*. c #767393",
"=. c #3D1DDF",
"-. c #0B14FF",
";. c #0A15FF",
":. c #1319FF",
">. c #1A1BFF",
",. c #1D18E7",
"<. c #251BF5",
"1. c #2A1BE8",
"2. c #1B23FF",
"3. c #2323FE",
"4. c #2B28FC",
"5. c #3837FF",
"6. c #2D23E8",
"7. c #471BD3",
"8. c #6229C6",
"9. c #5B3DE1",
"0. c #4C4CFF",
"q. c #474AFF",
"w. c #5353FF",
"e. c #5A5AFF",
"r. c #524BF0",
"t. c #6059F9",
"y. c #6765FE",
"u. c #7979FF",
"i. c #8A38AE",
"p. c #9A258B",
"a. c #A55DB8",
"s. c #B466B1",
"d. c #E86E86",
"f. c #EF7284",
"g. c #EE798B",
"h. c #EE7689",
"j. c #F57484",
"k. c #DE7DA0",
"l. c #A46BC7",
"z. c #7F87FF",
"x. c #7E86E9",
"c. c #ED8195",
"v. c #EC859A",
"b. c #EC889D",
"n. c #F7899A",
"m. c #D19DB2",
"M. c #DC83A8",
"N. c #EB8EA4",
"B. c #EC97AC",
"V. c #F294A4",
"C. c #E99BB2",
"Z. c #EAA3BA",
"A. c #ECA8BE",
"S. c #B3ADDE",
"D. c #8584FF",
"F. c #8D8BFF",
"G. c #8B96FF",
"H. c #9394FF",
"J. c #9C9AFF",
"K. c #978DF6",
"L. c #A390EE",
"P. c #A49AF8",
"I. c #9FA9FF",
"U. c #A5A2FF",
"Y. c #ACB6FF",
"T. c #BEBBFF",
"R. c #B9B6FE",
"E. c #D9B0D9",
"W. c #E9AAC2",
"Q. c #E7ACC6",
"!. c #E6B4CF",
"~. c #E6B6D2",
"^. c #E6B9D6",
"/. c #E5BCD9",
"(. c #EEBFD6",
"). c #FAB4C9",
"_. c #C0BEFF",
"`. c #CEB7EB",
"'. c #BED0FF",
"]. c #E5C2DF",
"[. c #E9C3DD",
"{. c #C9C6FF",
"}. c #CBCAFF",
"|. c #C6C4FF",
" X c #D1CDFF",
".X c #D7CCF7",
"XX c #D5D3FF",
"oX c #DADAFF",
"OX c #D9D8FB",
"+X c #C3D5FF",
"@X c #E5C4E2",
"#X c #E2CCEB",
"$X c #E6C8E4",
"%X c #F0D2EE",
"&X c #E0CFF1",
"*X c #E3D4F3",
"=X c #E1D7F9",
"-X c #E1DDFE",
";X c #EAD9F3",
":X c #DFE9FF",
">X c #DFE4FF",
",X c #E2E3FF",
"<X c #E3ECFF",
"1X c #E0F1FF",
/* pixels */
"                                                                                                    ",
"                                      . . o . . . . . . . . .                                       ",
"                                    O # * = = = = = = = = * # O                                     ",
"                                  . $ 1 9 e 0 0 0 0 0 0 e 9 1 $ .                                   ",
"                                  + , r d g f f d f f f g d t , +                                   ",
"                        + # * $ $ - 9 a h h h h h h h h h h a 9 ; $ $ $ # O .                       ",
"                      o = 2 9 9 9 e i d h h h h h h h h h h d i e 9 9 9 2 = o                       ",
"                      @ 1 y d f d d g h h h h h h h h h h h h f d d f d y 1 @                       ",
"                . o @ ; e s h h h h h h h h h h h h h h h h h h h h h h s e ; # O                   ",
"                o * 1 e p f h h h h h h h h h h h h h h h h h h h h h h g p e 2 * o                 ",
"                @ 1 y d g h h h h h h h h h h h h h h h h h h h h h h h h g d y 1 @                 ",
"            o @ ; e d h h h j v S D F F D n k h h h h h h h h h h j b D F G F Z w : @ o .           ",
"          O * 1 e p g h h h k G ] ..h.h. .^ n h h h h h h h h h h v Q { j.j.j.} E w < = O           ",
"        . # 2 y s g h h h h n ` N.!.]./.A.f.J j h h h h h h h h h D  .C.^.].~.C.o.A y 2 # .         ",
"          $ 9 d h h h j k n Q g.~.-X:X>X#XC.[ F v j h h h h j k V _ b.].,X<X,X[.n.) Z q * X         ",
"        . * 0 f h h h v G ` g.Z.#X>X1X1X;X(.V.X./ V k h h h b H { c.Q.*X:X1X<X;X).n.o.u > .         ",
"          * 9 d h h h V ] N.~.#X=X,X,X,X,X*X[.A.f.H k h h j F  .C./.#X=X,X,X,X;X%X(.m.~ & X         ",
"        . * 9 d h h h F ..~.=X>XoXoXXX X}.}.}.`.M.( v h h j W g.].oX,X,XoXXX}.}. X}.S.*.% X         ",
"          $ 9 s h h h F f./.>X<X,XXX_.U.H.G.H.K.s.E c h h j Q b.#X>X<XoX XR.J.H.H.G.x.&.5 X         ",
"          $ 9 d h h h D f.^.,X<X,X}.U.u.w.q.0.t.i.R c h h j W v.$X<X<X-X|.J.y.w.w.0.r.+.3 X         ",
"      . O = e d h h h F ..~.,X<X,X}.H.w.4.>.2.6.%.P x h h j H c.@X>X<X-XT.D.q.4.2.3.,.O.4 o . .     ",
"    o # ; 8 i f h h h F f./.,X<X,X{.F.q.>.-.-.<.$.P x h h j W v.$X<X<X-XT.u.5.:.-.:.,.O.6 - $ O     ",
"  . # < e p d g h h h F f./.,X<X,X{.F.0.<.-.;.<.$.P x h h j W v.$X:X<X,XT.u.5.>.;.:.1.@.K q 2 # .   ",
"  . * 9 s h h h h h h D  .W.*X,X-X XH.e.5.2.3.=.#.P x h h j J g.~.;X,XOX|.D.0.4.3.<.7.p.B a 0 = .   ",
"  . = e g h h h h h h n _ g.C.[.OXXXY.D.y.r.8.%.U B l h h j D ` c.W.$X=X}.I.u.e.r.$.#.Y C f r = .   ",
"  . * e f h h h h h h k S Q { B.[.oX+XY.U.l.p.I B M l h h h v D ^ ..Z.#XOX'.Y.L.a.T R N c f e = .   ",
"  . = 0 f h h h h h h h h k G ..W..XoXOX^.k.( c g h h h h h h h v W g.~.OXoX.XE.d.! x h h f 0 = .   ",
"  . = 0 d h h h h h h h h h v ^ c.C.A.A.V.| G j h h h h h h h h h V ] v.Z.W.Z.n.' n h h h f 0 = .   ",
"  . = 0 f h h h h h h h h h j S / ` [ ' ) J m h h h h h h h h h h k G ^ ] [ ' ) G v h h h f 0 * .   ",
"  . = 0 f h h h h h h h h h h k z v b b v k k h h h h h h h h h h j k v b b v v k h h h h d 0 = .   ",
"  . = 0 f h h h h h h h h h h h h h h h h h h h h h h h h h h h h h h h h h h h h h h h h f 0 = .   ",
"  . = 0 d h h h h h h h h h h h h h h h h h h h h h h h h h h h h h h h h h h h h h h h h f 0 = .   ",
"  . = 0 f h h h h h h h h h h h h h h h h h h h h h h h h h h h h h h h h h h h h h h h h d 0 = .   ",
"  . = 0 f h h h h h h h h h h h h h h h h h h h h h h h h h h h h h h h h h h h h h h h h f 0 = .   ",
"  . = 0 d h h h h h h h h h h h h h h h h h h h h h h h h h h h h h h h h h h h h h h h h f 0 = o   ",
"  . * 0 f h h h h h h h h h h h h h h h h h h h h h h h h h h h h h h h h h h h h h h h h d 0 = .   ",
"  . = 0 f h h h h h h h h h h h h h h h h h h h h h h h h h h h h h h h h h h h h h h h h d 0 = .   ",
"  o * 0 f h h h h h h h h h h h h h h h h h h h h h h h h h h h h h h h h h h h h h h h h f 0 = .   ",
"  . = 0 d h h h h h h h h h h h h h h h h h h h h h h h h h h h h h h h h h h h h h h h h f 0 = .   ",
"  . = 0 f h h h g f d s f h h h h h h h h g d s s a s d g h h h h h h h h f s d d h h h h d 0 = .   ",
"  . * 0 d h h h f i 0 0 i g h h h h h h g a r 9 7 7 9 r a g h h h h h h g i 0 0 y f h h h d 0 = .   ",
"  . = 0 f h h h a 8 - ; 9 s h h h h h h f t < * @ @ $ 1 y f h h h h h h s 9 ; - 8 s h h h f 0 = .   ",
"  . = e f h h d t , + @ < y d h h h h h f e = o     o = e f h h h h g d t < @ + , r d h h f 0 = .   ",
"  . = e f g a e < # . o $ 1 e p g h h h f e =         * e f h h h f p r 1 $ o o # 1 e p g f e = .   ",
"  . = r f s 0 - @ o   . o # ; 0 s h h h f e = .       = e f h h h s 0 ; # o     o @ ; 0 s f e = .   ",
"  . * 9 p t < +             @ < t d g g a 9 * .     . * 9 a g g d y < @             + < t p 0 = .   ",
"  . # , 8 1 * .             . * 2 0 r e 8 , @       . @ , 8 e r 0 2 * .             . * 1 8 , @ .   ",
"    o # $ # O                 O $ * = = * @ O         o @ * = = * # O .               O # $ # o     ",
"      . . .                     . . . . . .             . . . . . .                     . . .       ",
"                                                                                                    "
};
