/* XPM */
static char *result[] = {
/* columns rows colors chars-per-pixel */
"50 50 154 2 ",
"   c #000000",
".  c #0C0000",
"X  c #000108",
"o  c #080A09",
"O  c #130000",
"+  c #1C0001",
"@  c #000013",
"#  c #02021E",
"$  c #171B19",
"%  c #230000",
"&  c #2C0000",
"*  c #350000",
"=  c #3C0000",
"-  c #070730",
";  c #260738",
":  c #2A292F",
">  c #430000",
",  c #490000",
"<  c #550000",
"1  c #5B0000",
"2  c #620001",
"3  c #6C0000",
"4  c #740101",
"5  c #7A0000",
"6  c #710324",
"7  c #573237",
"8  c #040942",
"9  c #050546",
"0  c #2D2D5C",
"q  c #0E0E79",
"w  c #101072",
"e  c #790854",
"r  c #414547",
"t  c #6A6976",
"y  c #840000",
"u  c #8B0000",
"i  c #940000",
"p  c #9C0000",
"a  c #A30000",
"s  c #AE0001",
"d  c #B60000",
"f  c #BC0101",
"g  c #993239",
"h  c #C50000",
"j  c #CD0000",
"k  c #C6000D",
"l  c #D40000",
"z  c #DC0000",
"x  c #CB001E",
"c  c #E30101",
"v  c #EA0000",
"b  c #F30000",
"n  c #FF0000",
"m  c #FE0A0C",
"M  c #F90309",
"N  c #FF1B1D",
"B  c #FC1215",
"V  c #C70A3B",
"C  c #FB1D21",
"Z  c #D93037",
"A  c #FA2429",
"S  c #FE2526",
"D  c #FB2B32",
"F  c #F32B37",
"G  c #FD3037",
"H  c #FD3239",
"J  c #FB3A3E",
"K  c #F73740",
"L  c #F73841",
"P  c #C22C6B",
"I  c #F6424C",
"U  c #FA444C",
"Y  c #F44E5A",
"T  c #FC4F53",
"R  c #F35764",
"E  c #F06878",
"W  c #F56776",
"Q  c #0F149A",
"!  c #121396",
"~  c #301083",
"^  c #29299F",
"/  c #0C15A0",
"(  c #1919BA",
")  c #7B1286",
"_  c #7927B0",
"`  c #6A69A2",
"'  c #371AC7",
"]  c #2323DF",
"[  c #1B1EE5",
"{  c #1316FF",
"}  c #1619FF",
"|  c #1B1EFF",
" . c #171FF1",
".. c #3921EC",
"X. c #2021FF",
"o. c #2D2DF2",
"O. c #3C3CFE",
"+. c #3834FD",
"@. c #3426F9",
"#. c #7245D8",
"$. c #4242FF",
"%. c #5556FF",
"&. c #6161FF",
"*. c #7167F7",
"=. c #7C7AFF",
"-. c #7776F5",
";. c #4F4ECE",
":. c #977F8C",
">. c #B964AD",
",. c #EA6B82",
"<. c #F16F80",
"1. c #EF7182",
"2. c #EE7A8C",
"3. c #E37A8C",
"4. c #F97B8E",
"5. c #F67B89",
"6. c #807FFF",
"7. c #A3A1BA",
"8. c #C08090",
"9. c #EB8EA3",
"0. c #EB94AA",
"q. c #F192A2",
"w. c #E99DB6",
"e. c #878BFF",
"r. c #9999FF",
"t. c #9493FF",
"y. c #B39AE9",
"u. c #A5A3E3",
"i. c #A7B0FF",
"p. c #BBBBFF",
"a. c #C8BEDC",
"s. c #E1A7C7",
"d. c #E9A7C0",
"f. c #E6B3CE",
"g. c #E4BEDC",
"h. c #E5B7D3",
"j. c #E6C0DE",
"k. c #DCC5E6",
"l. c #C4C3FF",
"z. c #DFCDF0",
"x. c #C6D1FF",
"c. c #CBD1FF",
"v. c #D3D5FF",
"b. c #D6DCFF",
"n. c #DCDBFF",
"m. c #E2CCEC",
"M. c #E5C4E2",
"N. c #E2D2F2",
"B. c #E1D7F8",
"V. c #E1DDFE",
"C. c #DFE5FF",
"Z. c #DEEBFF",
"A. c #E3E4FF",
"S. c #E1EAFF",
/* pixels */
"                                        X                                                           ",
"                                      . . . . . . . . . . . .                                       ",
"                                  . + * > , , , , , , , , , * +                                     ",
"                                  O = 5 p a p p p p p a a i 5 > O     X                             ",
"                        X X X X X + 1 s c b v v v v v v v c s 2 + X X X X .                         ",
"                      X # - - 8 8 ; 6 k n n n n n n n n n n k 6 ; 8 8 8 - # X                       ",
"                      @ 9 q ! Q Q ~ e x n n n n n n n n n n x e ~ Q Q ! q 9 @                       ",
"                    X - w ( [  .[ ' ) V M n n n n n n n n M V ) ' [  .[ ( q -                       ",
"                o $ : 0 ^ ] X.} | .._ P F N m n n n n m N F P _ ..X.} | ] ^ 0 : $ o                 ",
"                $ r t ` ;.o.| { } @.#.>.1.T S n n n M S T 1.>.#.@.{ { | o.;.` t r $                 ",
"            X o : t 7.u.-.O.X.} | +.*.y.s.5.J m n n m J 9.s.y.*.+.X.{ X.O.-.u.7.t : X               ",
"            O & 7 8.a.l.r.&.$.+.O.%.e.p.k.q.U m n n m I q.k.p.e.%.O.+.$.&.r.l.a.8.7 & O .           ",
"          + > 4 g 8.k.v.p.t.6.6.6.e.i.x.z.0.U m n n m I q.z.x.i.t.=.=.6.t.p.v.k.8.g 4 > +           ",
"        . * 5 f Z 3.g.b.c.l.p.p.p.l.x.b.M.9.I m n n m I 9.j.b.c.l.p.p.p.l.v.n.g.8.Z f 5 * .         ",
"          > i c F 5.j.C.C.A.n.V.V.A.C.C.m.9.I m n n m I 9.m.C.C.A.V.V.V.n.A.V.g.5.H c i >           ",
"        . > p v J 2.j.Z.S.A.A.A.A.A.S.S.N.9.I m n n m I 9.m.Z.S.A.A.A.A.S.S.S.M.4.J v p > .         ",
"        . > p c G 4.g.C.C.A.V.V.V.A.A.C.z.9.I m n n m I 9.z.C.C.V.A.V.A.A.A.C.g.4.D v p >           ",
"        . = i c D W d.m.B.V.V.C.V.V.B.N.f.2.J m n n m J 2.f.m.n.V.n.V.V.B.n.m.d.W D c i = .         ",
"        X * i z C U 1.0.h.N.C.Z.Z.B.j.w.2.Y A M n n M A Y 1.w.j.B.Z.Z.C.N.h.0.1.U C z i =           ",
"          * i c m N H R 9.M.C.Z.C.z.w.W J N B n n n n B N J W w.m.Z.Z.C.M.9.R H N B c i =           ",
"      . + < p v n n M D E d.m.B.N.f.2.J m n n n n n n n b m L 2.f.N.B.m.d.E D M n n v p < +         ",
"    + * 1 u f v n n n B I 1.9.0.9.2.Y S n n n n n n n n n n C Y 2.9.0.9.E U B n n n v f u 1 * O     ",
"    * 3 a j v b n n n m C H I I I J A m n n n n n n n n n n m A L I I I J C m n n n b v h s 3 * .   ",
"  . > i z n n n n n n n M m m m m m M n n n n n n n n n n n n m m m m m m M n n n n n n n z i > .   ",
"  . , a v n n n n n n n n n n n n n n n n n n n n n n n n n n n n n n n n n n n n n n n n v p , .   ",
"  O , a v n n n n n n n n n n n n n n n n n n n n n n n n n n n n n n n n n n n n n n n n v a , .   ",
"  . , p v n n n n n n n n n n n n n n n n n n n n n n n n n n n n n n n n n n n n n n n n v p , .   ",
"  . , p v n n n n n n n n n n n n n n n n n n n n n n n n n n n n n n n n n n n n n n n n v p , .   ",
"  . , p v n n n n n n n n n n n n n n n n n n n n n n n n n n n n n n n n n n n n n n n n v p , .   ",
"  . , p v n n n n n n n n n n n n n n n n n n n n n n n n n n n n n n n n n n n n n n n n v p , .   ",
"  . , p v n n n n n n n n n n n n n n n n n n n n n n n n n n n n n n n n n n n n n n n n v p , .   ",
"  . , i v n n n n n n n n n n n n n n n n n n n n n n n n n n n n n n n n n n n n n n n n v p , .   ",
"  . , p v n n n n n n n n n n n n n n n n n n n n n n n n n n n n n n n n n n n n n n n n v p , .   ",
"  . , p c n n n n n n n n n n n n n n n n n n n n n n n n n n n n n n n n n n n n n n n n v p , .   ",
"  . , p v n n n n n n n n n n n n n n n n n n n n n n n n n n n n n n n n n n n n n n n n v p , .   ",
"  . , p v n n n n n n n n n n n n n n n n n n n n n n n n n n n n n n n n n n n n n n n n v p , .   ",
"  . , p v n n n n n n n n n n n n n n n n n n n n n n n n n n n n n n n n n n n n n n n n v p , O   ",
"  . , p v n n n n n n n n n n n n n n n n n n n n n n n n n n n n n n n n n n n n n n n n c p , .   ",
"  . , p v n n n n n n n n n n n n n n n n n n n n n n n n n n n n n n n n n n n n n n n n v p , .   ",
"  . , p v n n n n v z z v n n n n n n n n v v z z l z v v n n n n n n n n v z z v b n n n v p > .   ",
"  . , p v n n n v f p a h b n n n n n n b l s u y y u s l b n n n n n n b h p p f v n n n v p , .   ",
"  . , p v n n n l u < < i z n n n n n n v d 4 = & & > 4 d v n n n n n n z i 1 < i l n n n v p , .   ",
"  . , p v n n z d 2 % & 3 d v b n n n n v a , O     . , a v n n n n n c d 3 & % 1 d c n n v p , .   ",
"  . , a v b l a 3 * . O = 5 a j b n n n v a ,         , a b n n n v j a 5 = O . * 4 p l b v a , .   ",
"  . , s v z p < & O .   O * 1 p z n n n v a ,       . , a v n n n z p 1 * O   . O & 1 p z v s , .   ",
"  . , i h d 3 %             & 4 d v b b l i , .     . > i l b b v d 3 &             % 3 d h i , .   ",
"  . & 2 u 5 > .             . > 5 p s a u 2 & .       & 2 u a s p 5 > .             . = 5 u 2 * .   ",
"    O * > * +                 + * , , , > & +         O & > , , , * %                 + * > & O     ",
"      . . .                     . . . . . .             . . . . . .                     . . .       ",
"                                                                                                    "
};
