/* XPM */
static char *result[] = {
/* columns rows colors chars-per-pixel */
"50 50 154 2 ",
"   c #000000",
".  c #0C0000",
"X  c #000108",
"o  c #080A09",
"O  c #140000",
"+  c #1B0001",
"@  c #000013",
"#  c #02021E",
"$  c #171B19",
"%  c #200000",
"&  c #2B0000",
"*  c #340000",
"=  c #3C0000",
"-  c #070730",
";  c #260738",
":  c #2A292F",
">  c #420000",
",  c #490000",
"<  c #520000",
"1  c #5B0000",
"2  c #620102",
"3  c #6B0000",
"4  c #740101",
"5  c #7C0000",
"6  c #710324",
"7  c #573237",
"8  c #040942",
"9  c #050546",
"0  c #2D2D5C",
"q  c #0E0E79",
"w  c #101072",
"e  c #790854",
"r  c #414547",
"t  c #6A6976",
"y  c #840000",
"u  c #8A0000",
"i  c #950000",
"p  c #9C0000",
"a  c #A40000",
"s  c #AD0001",
"d  c #B60000",
"f  c #BB0101",
"g  c #993239",
"h  c #C20000",
"j  c #CD0000",
"k  c #C6000D",
"l  c #D40000",
"z  c #DE0000",
"x  c #CB001E",
"c  c #E30101",
"v  c #EA0000",
"b  c #F50000",
"n  c #FF0000",
"m  c #FE0A0C",
"M  c #F90309",
"N  c #FF1B1D",
"B  c #FC1215",
"V  c #C70A3B",
"C  c #FB1D21",
"Z  c #D93037",
"A  c #FA2429",
"S  c #FE2526",
"D  c #FB2B32",
"F  c #F32B37",
"G  c #FD3037",
"H  c #FD3239",
"J  c #FB3A3E",
"K  c #F73740",
"L  c #F73841",
"P  c #C22C6B",
"I  c #F6424C",
"U  c #FA444C",
"Y  c #F44E5A",
"T  c #FC4F53",
"R  c #F35764",
"E  c #F06878",
"W  c #F56776",
"Q  c #0F149A",
"!  c #121396",
"~  c #301083",
"^  c #29299F",
"/  c #0C15A0",
"(  c #1919BA",
")  c #7B1286",
"_  c #7927B0",
"`  c #6A69A2",
"'  c #371AC7",
"]  c #2323DF",
"[  c #1B1EE5",
"{  c #1316FF",
"}  c #1619FF",
"|  c #1B1EFF",
" . c #171FF1",
".. c #3921EC",
"X. c #2021FF",
"o. c #2D2DF2",
"O. c #3C3CFE",
"+. c #3834FD",
"@. c #3426F9",
"#. c #7245D8",
"$. c #4242FF",
"%. c #5556FF",
"&. c #6161FF",
"*. c #7167F7",
"=. c #7C7AFF",
"-. c #7776F5",
";. c #4F4ECE",
":. c #977F8C",
">. c #B964AD",
",. c #EA6B82",
"<. c #F16F80",
"1. c #EF7182",
"2. c #EE7A8C",
"3. c #E37A8C",
"4. c #F97B8E",
"5. c #F67B89",
"6. c #807FFF",
"7. c #A3A1BA",
"8. c #C08090",
"9. c #EB8EA3",
"0. c #EB94AA",
"q. c #F192A2",
"w. c #E99DB6",
"e. c #878BFF",
"r. c #9999FF",
"t. c #9493FF",
"y. c #B39AE9",
"u. c #A5A3E3",
"i. c #A7B0FF",
"p. c #BBBBFF",
"a. c #C8BEDC",
"s. c #E1A7C7",
"d. c #E9A7C0",
"f. c #E6B3CE",
"g. c #E4BEDC",
"h. c #E5B7D3",
"j. c #E6C0DE",
"k. c #DCC5E6",
"l. c #C4C3FF",
"z. c #DFCDF0",
"x. c #C6D1FF",
"c. c #CBD1FF",
"v. c #D3D5FF",
"b. c #D6DCFF",
"n. c #DCDBFF",
"m. c #E2CCEC",
"M. c #E5C4E2",
"N. c #E2D2F2",
"B. c #E1D7F8",
"V. c #E1DDFE",
"C. c #DFE5FF",
"Z. c #DEEBFF",
"A. c #E3E4FF",
"S. c #E1EAFF",
/* pixels */
"                                        X                                                           ",
"                                      . . . . . . . . . . . .                                       ",
"                                  . + * > , , , , , , > , , = +                                     ",
"                                  O > 4 p a p p p p p a a i 4 > O     X                             ",
"                        X X X X X + 2 s c v v v v v v v b z s 2 % X X X X                           ",
"                      X # - - 8 8 ; 6 k n n n n n n n n n n k 6 ; 8 9 8 - # X                       ",
"                      @ 9 q ! Q Q ~ e x n n n n n n n n n n x e ~ Q / ! q 9 @                       ",
"                      - q ( [  .[ ' ) V M n n n n n n n n M V ) ' [  .[ ( w -                       ",
"                o $ : 0 ^ ] X.} } .._ P F N m n n n n B N F P _ ..| | | ] ^ 0 : $ o                 ",
"              X $ r t ` ;.o.| { } o.#.>.1.T S n n n n S T ,.>.#.@.} { } o.;.` t r $                 ",
"              o : t 7.u.-.O.X.{ | +.*.y.s.9.J m n n m J 9.s.y.*.+.X.{ X.O.-.u.7.t : X               ",
"          . O & 7 8.a.l.r.&.$.+.O.%.e.p.j.q.U m n n m U q.k.p.e.%.O.+.$.&.r.l.a.8.7 & O .           ",
"          + , 4 g 8.k.v.p.t.6.=.6.e.i.c.z.0.U m n n m I q.z.x.i.t.=.=.6.t.p.v.k.8.g 4 > +           ",
"        . * 4 f Z 3.g.n.c.l.l.p.p.l.c.b.M.9.I m n n m I 9.j.b.c.l.p.p.p.l.v.n.g.8.Z f 5 * .         ",
"          > i c F E j.A.Z.A.n.V.V.V.A.n.m.9.I m n n m I 9.m.C.C.V.V.V.A.n.C.A.g.4.G c i >           ",
"        . > p v F q.j.Z.Z.A.A.A.A.A.S.S.N.9.I m n n m I 9.m.S.S.A.A.A.A.A.Z.A.M.4.J c p > .         ",
"        . > p c H 4.j.C.C.A.V.A.A.V.A.S.m.9.I m n n m I 9.m.Z.A.A.V.A.V.A.S.A.j.4.G c p >           ",
"        X = i z D W d.z.B.V.V.n.V.V.B.m.f.2.L m n n m L 2.f.m.n.n.V.V.V.V.B.m.d.W D c i = .         ",
"          = i z N U E 0.h.N.C.C.Z.B.j.w.2.Y A m n n n A Y 2.w.j.B.Z.Z.C.N.h.0.<.U C c i =           ",
"          = i c m N G R 9.M.C.Z.Z.m.w.E L C m n n n n B N J E w.z.C.Z.C.M.9.R F N m z i =           ",
"      . + < p v n n n D E d.m.n.m.f.2.L m n n n n n n n n m K 2.f.N.B.m.d.E D n n n v p < +         ",
"    + * 1 u f v n n n B I 1.9.0.9.2.Y C n n n n n n n n n n C Y 2.0.0.9.1.I B n n n v f u 1 * +     ",
"  . * 3 a j v b n n n m A H I I I L A m n n n n n n n n n n m A L I I L J C m n n n b v j a 3 * .   ",
"  . > i z n n n n n n n n m m m m m m n n n n n n n n n n n n M m m m m m M n n n n n n n z i > .   ",
"  . , a b n n n n n n n n n n n n n n n n n n n n n n n n n n n n n n n n n n n n n n n n b a , .   ",
"  . > a v n n n n n n n n n n n n n n n n n n n n n n n n n n n n n n n n n n n n n n n n v p , .   ",
"  . , p v n n n n n n n n n n n n n n n n n n n n n n n n n n n n n n n n n n n n n n n n v p , .   ",
"  . , p v n n n n n n n n n n n n n n n n n n n n n n n n n n n n n n n n n n n n n n n n v p , .   ",
"  . , p v n n n n n n n n n n n n n n n n n n n n n n n n n n n n n n n n n n n n n n n n v i , .   ",
"  . , p v n n n n n n n n n n n n n n n n n n n n n n n n n n n n n n n n n n n n n n n n v p , .   ",
"  . , p v n n n n n n n n n n n n n n n n n n n n n n n n n n n n n n n n n n n n n n n n v p , .   ",
"  . , i c n n n n n n n n n n n n n n n n n n n n n n n n n n n n n n n n n n n n n n n n v p , .   ",
"  . , p c n n n n n n n n n n n n n n n n n n n n n n n n n n n n n n n n n n n n n n n n v i , .   ",
"  . , p v n n n n n n n n n n n n n n n n n n n n n n n n n n n n n n n n n n n n n n n n v p , .   ",
"  . , p v n n n n n n n n n n n n n n n n n n n n n n n n n n n n n n n n n n n n n n n n v p , .   ",
"  . , p v n n n n n n n n n n n n n n n n n n n n n n n n n n n n n n n n n n n n n n n n v p , .   ",
"  . , p v n n n n n n n n n n n n n n n n n n n n n n n n n n n n n n n n n n n n n n n n v i , .   ",
"  . , p v n n n n n n n n n n n n n n n n n n n n n n n n n n n n n n n n n n n n n n n n v p > .   ",
"  . , p v n n n n n n n n n n n n n n n n n n n n n n n n n n n n n n n n n n n n n n n n v p , .   ",
"  . , p v n n n n n n n n n n v c z v b n n n n n n n n n n b v z c v n n n n n n n n n n v p , .   ",
"  . , a v n n n n n n n n n b j a i f v n n n n n n n n n n v d i a j b n n n n n n n n n v a , .   ",
"  . , p v n n n n n n n n n v p 2 < u j n n n n n n n n n n j y 1 1 p v n n n n n n n n n v a , .   ",
"  . > u j b b n n n n n n v f 4 & % 1 a z b n n n n n n b z a 1 + & 4 h v b n n n n n b v j u = .   ",
"    % 1 u d z n n n n b l s 5 > O . & 3 i h v n n n n v h i 3 & . O > 5 s l b n n n n z d u 1 & .   ",
"    O % = 4 d b n n n v a 2 = O     O & < u j n n n n j u < & O   . + * 2 a v n n n v d 4 > + .     ",
"        . > u j v b v f 4 &             + 1 a c b b z a 1 +             * 4 f v b v l u > .         ",
"          % 1 u a a p y , O               * 3 i a a i 3 *               O , 5 p s a u 1 %           ",
"          . & > , , , = % .               + * , , , > * +               . % = , , , = & .           ",
"            . . . . . .                     . . . . . .                     . . . . . .             ",
"                                                                                                    "
};
