/* XPM */
static char *_90f2ec9a6d04bc8ba41d628a6cbe0d9lOmxHZEgBz0uFbIq[] = {
/* columns rows colors chars-per-pixel */
"32 64 4 1 ",
"  c None",
". c black",
"X c red",
"o c white",
/* pixels */
"                                ",
"       XX              XX       ",
"     XXXXXX          XXXXXX     ",
"   XXXXXXXXXX      XXXXXXXXXX   ",
"   XXXXXXXXXX      XXXXXXXXXX   ",
"  XXXoooXXoooX    XXXoooXXoooX  ",
"  XXXoo.XXoo.X    XXXoo.XXoo.X  ",
"  XXXoo.XXoo.X    XXXoo.XXoo.X  ",
" XXXXXXXXXXXXXX  XXXXXXXXXXXXXX ",
" XXXXXXXXXXXXXX  XXXXXXXXXXXXXX ",
" XXXXXXXXXXXXXX  XXXXXXXXXXXXXX ",
" XXXXXXXXXXXXXX  XXXXXXXXXXXXXX ",
" XXXXXXXXXXXXXX  XXXXXXXXXXXXXX ",
"  XXXXX  XXXXX    XXXX XXX XXX  ",
"   XXX    XXX      XX   X   X   ",
"                                ",
"                                ",
"       XX              XX       ",
"     XXXXXX          XXXXXX     ",
"   XXXXXXXXXX      XXXXXXXXXX   ",
"   XXXXXXXXXX      XXXXXXXXXX   ",
"  XoooXXoooXXX    XoooXXoooXXX  ",
"  X.ooXX.ooXXX    X.ooXX.ooXXX  ",
"  X.ooXX.ooXXX    X.ooXX.ooXXX  ",
" XXXXXXXXXXXXXX  XXXXXXXXXXXXXX ",
" XXXXXXXXXXXXXX  XXXXXXXXXXXXXX ",
" XXXXXXXXXXXXXX  XXXXXXXXXXXXXX ",
" XXXXXXXXXXXXXX  XXXXXXXXXXXXXX ",
" XXXXXXXXXXXXXX  XXXXXXXXXXXXXX ",
"  XXXXX  XXXXX    XXXX XXX XXX  ",
"   XXX    XXX      XX   X   X   ",
"                                ",
"                                ",
"       XX              XX       ",
"     XXXXXX          XXXXXX     ",
"   Xo..XX..oX      Xo..XX..oX   ",
"   XoooXXoooX      XoooXXoooX   ",
"  XXoooXXoooXX    XXoooXXoooXX  ",
"  XXXXXXXXXXXX    XXXXXXXXXXXX  ",
"  XXXXXXXXXXXX    XXXXXXXXXXXX  ",
" XXXXXXXXXXXXXX  XXXXXXXXXXXXXX ",
" XXXXXXXXXXXXXX  XXXXXXXXXXXXXX ",
" XXXXXXXXXXXXXX  XXXXXXXXXXXXXX ",
" XXXXXXXXXXXXXX  XXXXXXXXXXXXXX ",
" XXXXXXXXXXXXXX  XXXXXXXXXXXXXX ",
"  XXXXX  XXXXX    XXXX XXX XXX  ",
"   XXX    XXX      XX   X   X   ",
"                                ",
"                                ",
"       XX              XX       ",
"     XXXXXX          XXXXXX     ",
"   XXXXXXXXXX      XXXXXXXXXX   ",
"   XXXXXXXXXX      XXXXXXXXXX   ",
"  XXXXXXXXXXXX    XXXXXXXXXXXX  ",
"  XXoooXXoooXX    XXoooXXoooXX  ",
"  XXoooXXoooXX    XXoooXXoooXX  ",
" XXXo..XX..oXXX  XXXo..XX..oXXX ",
" XXXXXXXXXXXXXX  XXXXXXXXXXXXXX ",
" XXXXXXXXXXXXXX  XXXXXXXXXXXXXX ",
" XXXXXXXXXXXXXX  XXXXXXXXXXXXXX ",
" XXXXXXXXXXXXXX  XXXXXXXXXXXXXX ",
"  XXXXX  XXXXX    XXXX XXX XXX  ",
"   XXX    XXX      XX   X   X   ",
"                                "
};
