/* XPM */
static char *collect1671516260[] = {
/* columns rows colors chars-per-pixel */
"50 50 87 1 ",
"  c black",
". c #010000",
"X c #010101",
"o c #020101",
"O c #030202",
"+ c #050403",
"@ c #070505",
"# c #080606",
"$ c #0A0807",
"% c #0C0908",
"& c #0D0909",
"* c #0E0A0A",
"= c #0E0B0A",
"- c #0F0B0A",
"; c #040303",
": c #080605",
"> c #0B0808",
", c #100C0B",
"< c #140F0E",
"1 c #181211",
"2 c #1B1413",
"3 c #1E1615",
"4 c #201817",
"5 c #221918",
"6 c #221A18",
"7 c #231A19",
"8 c #0D0A09",
"9 c #1C1514",
"0 c #2A1F1E",
"q c #312422",
"w c #362826",
"e c #392A28",
"r c #3B2C2A",
"t c #3D2D2B",
"y c #3E2E2C",
"u c #1F1716",
"i c #352725",
"p c #402F2D",
"a c #493634",
"s c #513C39",
"d c #56403D",
"f c #5A423F",
"g c #5C4441",
"h c #5E4542",
"j c #493633",
"k c #57413D",
"l c #644A47",
"z c #6E524E",
"x c #755753",
"c c #7B5B56",
"v c #7E5D59",
"b c #805E5A",
"n c #6F524E",
"m c #7F5E5A",
"M c #8C6863",
"N c #956E69",
"B c #9C736E",
"V c #A07671",
"C c #A27872",
"Z c #85635E",
"A c #99716C",
"S c #A87D77",
"D c #B3857E",
"F c #BB8A84",
"G c #C08E87",
"H c #C39089",
"J c #AF827C",
"K c #C18F88",
"L c #CE9891",
"P c #D79F97",
"I c #DDA39B",
"U c #E0A59D",
"Y c #D59D96",
"T c #E2A79F",
"R c #ECAFA6",
"E c #F3B4AB",
"W c #F6B6AD",
"Q c #F1B2A9",
"! c #FBBAB1",
"~ c #FFBFB6",
"^ c #FFC2B8",
"/ c #FFC2B9",
"( c #FFC8BE",
") c #FFCAC0",
"_ c #FFCDC3",
"` c #FFD0C6",
"' c #FFD3C9",
/* pixels */
"                                                  ",
"                                                  ",
"                                                  ",
"                                                  ",
"                                                  ",
"                                                  ",
"                                                  ",
"                                                  ",
"                                                  ",
"                                                  ",
"                                                  ",
"               .XXXXooooooooooXXXX.               ",
"            XoO+@#$%&*=----=*&%$#@+OoX            ",
"            o;:>,<12345677654321<,>:;o            ",
"            O:8<970qwertyytrewq079<8:O            ",
"           .+><u0ipasdfghhgfdsapi0u<>+.           ",
"           X@,90ejklzxcvbbvcxzlkje09,@X           ",
"           X#<7ijgnmMNBVCCVBNMmngji7<#X           ",
"           X$10pknZASDFGHHGFDSAZnkp01$X           ",
"           X%2qalmAJKLPIUUIPLKJAmlaq2%X           ",
"           o&3wszMSKYTREWWERTYKSMzsw3&o           ",
"           o*4edxNDLTQ!~^^~!QTLDNxde4*o           ",
"           o=5rfcBFPR!/())(/!RPFBcfr5=o           ",
"           o-6tgvVGIE~(_``_(~EIGVvgt6-o           ",
"           o-7yhbCHUW^)`''`)^WUHCbhy7-o           ",
"           o-7yhbCHUW^)`''`)^WUHCbhy7-o           ",
"           o-6tgvVGIE~(_``_(~EIGVvgt6-o           ",
"           o=5rfcBFPR!/())(/!RPFBcfr5=o           ",
"           o*4edxNDLTQ!~^^~!QTLDNxde4*o           ",
"           o&3wszMSKYTREWWERTYKSMzsw3&o           ",
"           X%2qalmAJKLPIUUIPLKJAmlaq2%X           ",
"           X$10pknZASDFGHHGFDSAZnkp01$X           ",
"           X#<7ijgnmMNBVCCVBNMmngji7<#X           ",
"           X@,90ejklzxcvbbvcxzlkje09,@X           ",
"           .+><u0ipasdfghhgfdsapi0u<>+.           ",
"            O:8<970qwertyytrewq079<8:O            ",
"            o;:>,<12345677654321<,>:;o            ",
"            XoO+@#$%&*=----=*&%$#@+OoX            ",
"               .XXXXooooooooooXXXX.               ",
"                                                  ",
"                                                  ",
"                                                  ",
"                                                  ",
"                                                  ",
"                                                  ",
"                                                  ",
"                                                  ",
"                                                  ",
"                                                  ",
"                                                  "
};
