/* XPM */
static char *result[] = {
/* columns rows colors chars-per-pixel */
"50 50 204 2 ",
"   c #000000",
".  c #0C0000",
"X  c #000408",
"o  c #140000",
"O  c #1B0000",
"+  c #200000",
"@  c #2C0000",
"#  c #340000",
"$  c #3D0000",
"%  c #32313F",
"&  c #3C2C31",
"*  c #430000",
"=  c #490000",
"-  c #530001",
";  c #5B0000",
":  c #5B0708",
">  c #41191B",
",  c #640000",
"<  c #6A0000",
"1  c #740000",
"2  c #7B0000",
"3  c #0F1541",
"4  c #1B0A40",
"5  c #1E2642",
"6  c #4E0742",
"7  c #840000",
"8  c #8A0000",
"9  c #950000",
"0  c #9C0000",
"q  c #940D0E",
"w  c #9E1316",
"e  c #A40000",
"r  c #AB0000",
"t  c #B40000",
"y  c #BA0000",
"u  c #973A3F",
"i  c #C20000",
"p  c #CD0000",
"a  c #D40000",
"s  c #DE0001",
"d  c #E30000",
"f  c #EA0000",
"g  c #F40000",
"h  c #FF0000",
"j  c #FE0708",
"k  c #FE0B0D",
"l  c #F5010B",
"z  c #FF120F",
"x  c #F10311",
"c  c #F70914",
"v  c #FD1114",
"b  c #FC1519",
"n  c #FC191D",
"m  c #FF1916",
"M  c #E70018",
"N  c #DF012B",
"B  c #CC0536",
"V  c #FB1E23",
"C  c #E70429",
"Z  c #DE2126",
"A  c #DA252B",
"S  c #FC2125",
"D  c #FA252B",
"F  c #FB292E",
"G  c #FA2C32",
"H  c #F7373F",
"J  c #FA353A",
"K  c #920842",
"L  c #BD0B4E",
"P  c #B40B56",
"I  c #BA1157",
"U  c #9C0C70",
"Y  c #B40A61",
"T  c #AF2C7C",
"R  c #C51C56",
"E  c #D0354C",
"W  c #F73942",
"Q  c #F73A43",
"!  c #E9344B",
"~  c #8B6673",
"^  c #F6434D",
"/  c #FA4349",
"(  c #EE4153",
")  c #FA4C53",
"_  c #F54752",
"`  c #F3525E",
"'  c #FA585F",
"]  c #F35562",
"[  c #F65964",
"{  c #F25C6B",
"}  c #E85D6C",
"|  c #F5636F",
" . c #F16473",
".. c #F16C7C",
"X. c #F76A74",
"o. c #E4616D",
"O. c #2C1498",
"+. c #2C3198",
"@. c #5E129A",
"#. c #79159C",
"$. c #6314B0",
"%. c #7119A8",
"&. c #51599B",
"*. c #767393",
"=. c #3D1DDF",
"-. c #0B14FF",
";. c #0A15FF",
":. c #1319FF",
">. c #1A1BFF",
",. c #1D18E7",
"<. c #251BF5",
"1. c #2A1BE8",
"2. c #1B23FF",
"3. c #2323FE",
"4. c #2B28FC",
"5. c #3837FF",
"6. c #2D23E8",
"7. c #471BD3",
"8. c #6229C6",
"9. c #5B3DE1",
"0. c #4C4CFF",
"q. c #474AFF",
"w. c #5353FF",
"e. c #5A5AFF",
"r. c #524BF0",
"t. c #6059F9",
"y. c #6765FE",
"u. c #7979FF",
"i. c #8A38AE",
"p. c #9A258B",
"a. c #A55DB8",
"s. c #B466B1",
"d. c #E86E86",
"f. c #EF7284",
"g. c #EE798B",
"h. c #EE7689",
"j. c #F57484",
"k. c #DE7DA0",
"l. c #A46BC7",
"z. c #7F87FF",
"x. c #7E86E9",
"c. c #ED8195",
"v. c #EC859A",
"b. c #EC889D",
"n. c #F7899A",
"m. c #D19DB2",
"M. c #DC83A8",
"N. c #EB8EA4",
"B. c #EC97AC",
"V. c #F294A4",
"C. c #E99BB2",
"Z. c #EAA3BA",
"A. c #ECA8BE",
"S. c #B3ADDE",
"D. c #8584FF",
"F. c #8D8BFF",
"G. c #8B96FF",
"H. c #9394FF",
"J. c #9C9AFF",
"K. c #978DF6",
"L. c #A390EE",
"P. c #A49AF8",
"I. c #9FA9FF",
"U. c #A5A2FF",
"Y. c #ACB6FF",
"T. c #BEBBFF",
"R. c #B9B6FE",
"E. c #D9B0D9",
"W. c #E9AAC2",
"Q. c #E7ACC6",
"!. c #E6B4CF",
"~. c #E6B6D2",
"^. c #E6B9D6",
"/. c #E5BCD9",
"(. c #EEBFD6",
"). c #FAB4C9",
"_. c #C0BEFF",
"`. c #CEB7EB",
"'. c #BED0FF",
"]. c #E5C2DF",
"[. c #E9C3DD",
"{. c #C9C6FF",
"}. c #CBCAFF",
"|. c #C6C4FF",
" X c #D1CDFF",
".X c #D7CCF7",
"XX c #D5D3FF",
"oX c #DADAFF",
"OX c #D9D8FB",
"+X c #C3D5FF",
"@X c #E5C4E2",
"#X c #E2CCEB",
"$X c #E6C8E4",
"%X c #F0D2EE",
"&X c #E0CFF1",
"*X c #E3D4F3",
"=X c #E1D7F9",
"-X c #E1DDFE",
";X c #EAD9F3",
":X c #DFE9FF",
">X c #DFE4FF",
",X c #E2E3FF",
"<X c #E3ECFF",
"1X c #E0F1FF",
/* pixels */
"                                                                                                    ",
"                                      . . . . . . . . . . . .                                       ",
"                                    O # = = = = = = = = = = # O                                     ",
"                                  . $ 1 9 e 0 0 0 0 0 0 e 9 1 $ .                                   ",
"                                  + , r d g f f d f f f g s t , +       .                           ",
"                      . + # * $ $ ; 9 a h h h h h h h h h h a 9 ; $ $ $ # O .                       ",
"                      o = 2 9 9 9 e i f h h h h h h h h h h d i e 9 0 9 2 * o                       ",
"                      @ 1 y d f d d f h h h h h h h h h h h h f d d d s y 1 @                       ",
"                . o @ ; e s h h h h h h h h h h h h h h h h h h h h h h s 0 ; @ O                   ",
"                o * 1 e p g h h h h h h h h h h h h h h h h h h h h h h g p e 1 * o                 ",
"                @ 2 y d g h h h h h h h h h h h h h h h h h h h h h h h h g d y 1 @                 ",
"          . o @ : w Z G G F S b j h h h h h h h h h h k n D F G F S v h h h h d e ; @ o .           ",
"          O = 1 w E } j.j.j.{ W v h h h h h h h h h h n ^  .f.h...] G k h h h g p e 1 = O           ",
"        . # 2 y A o.C.^.].^.C. .D h h h h h h h h h j J f.Z./.@X!.N.` n h h h h g s y 1 # .         ",
"          $ q Z ) n.[.>X<XoX].b._ V k j h h h h j v F [ B.#X:X:XoX~.g.Q n k j h h h d 9 $           ",
"        . > u o.n.).;X<X1X:X*XQ.c.{ W b h h h j V / X.V.(.,X1X:X:X#XZ.g.` G v h h h d 0 * .         ",
"        X & ~ m.(.%X-X,X,X-X-X#X/.C. .G j h h k W h.A.[.*X-X,X,X,X=X#X~.N.] S h h h d 9 *           ",
"        X % *.S. X X}.}.XXoX-X,X-X].c.H j h h k ( M.`.{.}.}. XXXoX-X,X=X~...D h h h d 9 *           ",
"        X 5 &.x.H.H.H.J.R. X-X<X:X#Xv.W j h h c E s.K.G.G.H.U._.XX,X<X,X/.f.G h h h s 9 $           ",
"        X 3 +.r.w.0.w.y.J.|.-X<X:X$Xc.W j h h x R i.t.0.q.w.u.U. X,X<X,X~.j.D h h h s 9 $           ",
"    . . . 4 O.1.3.3.3.q.D._.-X<X,X@Xg.Q k h h x I %.6.2.2.4.w.H.{.,X<X-X!.d.F h h h d e - O         ",
"    O $ : 6 O.,.:.-.:.5.u.T.-X<X:X$Xv.W j h h x P $.<.;.;.>.q.F.{.,X<X,X^.f.F h h h f i 8 ; # o     ",
"  . # 1 0 K @.1.:.-.>.5.u._.,X<X:X#Xv.W j h h x P $.<.:.-.>.q.F.{.<X<X:X/.f.G h h h g d p e < # .   ",
"  . = 0 p B p.7.4.3.4.0.D._.-X<X*X~.h.J j h h x L %.=.3.<.5.e.H.}.-X,X*XQ. .D h h h h h h s 9 = .   ",
"  . = r f C Y #.8.9.e.u.I.}.OX[.W.c.] D j h h l B U %.8.r.y.D.Y. X*X[.Z.h._ n h h h h h h f 0 = .   ",
"  . = e f c N R T a.L.Y.'.OX#XZ...^ D v h h h l M B R p.l.U.Y.+XoX@XB.| W S k h h h h h h f e = .   ",
"  . = 0 f h h x ! d.E..XOXOX~.g.W v h h h h h h h g c ! N.E.OXoX&XW...G j h h h h h h h h f 0 = .   ",
"  . = 0 d h h h m ' n.Z.A.Z.v.` V h h h h h h h h h j G | V.A.W.C.g.^ v h h h h h h h h h d 0 = .   ",
"  . = 0 f h h h z F ) ' [ ] ^ G k h h h h h h h h h h m J ) [ [ ` Q D k h h h h h h h h h f 0 = .   ",
"  . = 0 f h h h j k v b b b v k h h h h h h h h h h h j k v b b v v k h h h h h h h h h h f 0 = .   ",
"  . = 0 f h h h h h h h h h h h h h h h h h h h h h h h h h h h h h h h h h h h h h h h h d 0 = .   ",
"  . = 0 d h h h h h h h h h h h h h h h h h h h h h h h h h h h h h h h h h h h h h h h h f 0 = .   ",
"  . = 0 d h h h h h h h h h h h h h h h h h h h h h h h h h h h h h h h h h h h h h h h h d 0 = .   ",
"  . = 0 f h h h h h h h h h h h h h h h h h h h h h h h h h h h h h h h h h h h h h h h h f 0 = .   ",
"  . = 0 d h h h h h h h h h h h h h h h h h h h h h h h h h h h h h h h h h h h h h h h h f 0 = .   ",
"  . = 0 f h h h h h h h h h h h h h h h h h h h h h h h h h h h h h h h h h h h h h h h h d 0 = .   ",
"  . = 0 d h h h h h h h h h h h h h h h h h h h h h h h h h h h h h h h h h h h h h h h h d 0 = .   ",
"  . = 0 f h h h h h h h h h h h h h h h h h h h h h h h h h h h h h h h h h h h h h h h h f 0 = .   ",
"  . = 0 d h h h h h h h h h h h h h h h h h h h h h h h h h h h h h h h h h h h h h h h h d 0 = .   ",
"  . = 0 f h h h h h h h h h h f d s f g h h h h h h h h h h g f s d f h h h h h h h h h h f 0 = .   ",
"  . = e f h h h h h h h h h g p e 0 y d h h h h h h h h h h d y 0 e p g h h h h h h h h h f e = .   ",
"  . = 0 f h h h h h h h h h d 0 ; - 7 p h h h h h h h h h h p 7 - ; 0 d h h h h h h h h h f e = o   ",
"  . * 8 p g h h h h h h h f i 1 @ + ; e s g h h h h h h g s e ; + @ 1 i d h h h h h h h f p 8 $ .   ",
"    + ; 8 t s h h h h g a r 2 * o . @ < 0 i d h h h h f i 0 < @ . o * 2 r a g h h h h a t 8 ; @     ",
"    o + * 1 t f h h h d e , $ o     o @ - 8 p h h h h p 8 = @ o   . o # , e d h h h f t 1 * O .     ",
"        . * 8 p f g f i 1 @             O ; e s g g s e ; O           . @ 2 i f g g p 8 * .         ",
"          O ; 8 e r 0 2 = o               $ < 9 e e 9 < # .             o = 2 e e e 8 ; +           ",
"          o + * = = = $ + .               o # = = = * # o               . + $ = = = $ @ .           ",
"            . . . . . .                     . . . . . .                     . . . . . .             ",
"                                                                                                    "
};
