/* XPM */
static char *result[] = {
/* columns rows colors chars-per-pixel */
"50 50 157 2 ",
"   c #000000",
".  c #020609",
"X  c #04090C",
"o  c #0A0A0C",
"O  c #110E0F",
"+  c #0E0F12",
"@  c #060F14",
"#  c #100F12",
"$  c #061117",
"%  c #071219",
"&  c #08151C",
"*  c #131215",
"=  c #191517",
"-  c #161619",
";  c #19171A",
":  c #1A1A1E",
">  c #091721",
",  c #0A1B25",
"<  c #0C1F2B",
"1  c #1D1D21",
"2  c #201F24",
"3  c #0D212E",
"4  c #1B2027",
"5  c #1D2229",
"6  c #0F2634",
"7  c #112C3D",
"8  c #212126",
"9  c #26252B",
"0  c #28282E",
"q  c #2E2D34",
"w  c #242831",
"e  c #333037",
"r  c #35343C",
"t  c #0C2D41",
"y  c #122F41",
"u  c #0E3044",
"i  c #133245",
"p  c #143449",
"a  c #173C52",
"s  c #1B3E55",
"d  c #3D3C45",
"f  c #3F3E48",
"g  c #403F49",
"h  c #1A435D",
"j  c #28485F",
"k  c #26475E",
"l  c #3F4350",
"z  c #1E4E6C",
"x  c #1C4762",
"c  c #205474",
"v  c #225779",
"b  c #22597B",
"n  c #43424C",
"m  c #474651",
"M  c #484752",
"N  c #4B4A55",
"B  c #4B4D59",
"V  c #504F5B",
"C  c #52515E",
"Z  c #58535F",
"A  c #575663",
"S  c #5E5C6A",
"D  c #645F6C",
"F  c #41617C",
"G  c #64606E",
"H  c #646372",
"J  c #696777",
"K  c #626678",
"L  c #6D6B7C",
"P  c #736E7E",
"I  c #245D82",
"U  c #27648A",
"Y  c #296A93",
"T  c #296F9B",
"R  c #2C729E",
"E  c #2D75A2",
"W  c #2F79A7",
"Q  c #2F7AA9",
"!  c #347DAB",
"~  c #506F8D",
"^  c #5B7B9A",
"/  c #486884",
"(  c #706F80",
")  c #787689",
"_  c #7C7A8D",
"`  c #767486",
"'  c #7F7D90",
"]  c #807F92",
"[  c #3282B4",
"{  c #358ABF",
"}  c #488EBF",
"|  c #448BBB",
" . c #7A9ABD",
".. c #378EC5",
"X. c #3994CC",
"o. c #3A97D1",
"O. c #3B99D4",
"+. c #3C9DD9",
"@. c #3EA1DE",
"#. c #3FA3E2",
"$. c #4A91C1",
"%. c #5298CA",
"&. c #62A8DD",
"*. c #40A6E6",
"=. c #40A7E8",
"-. c #43ABEC",
";. c #42ADF0",
":. c #4BB2F3",
">. c #46B7FC",
",. c #4FB6F8",
"<. c #47B9FF",
"1. c #48BCFF",
"2. c #45B3F7",
"3. c #50B7F9",
"4. c #52B9FB",
"5. c #68AEE3",
"6. c #6EB4EA",
"7. c #77BDF4",
"8. c #4BC2FF",
"9. c #4DC9FF",
"0. c #8C899E",
"q. c #88879B",
"w. c #918B9F",
"e. c #8E8DA2",
"r. c #908EA4",
"t. c #9390A6",
"y. c #9492A9",
"u. c #9896AC",
"i. c #9A98AF",
"p. c #9D99B0",
"a. c #9497B1",
"s. c #A09EB6",
"d. c #A7A5BF",
"f. c #89A8CE",
"g. c #81A1C5",
"h. c #90AFD6",
"j. c #A9A6C0",
"k. c #ADABC5",
"l. c #A8ABC7",
"z. c #B1ABC4",
"x. c #B1AEC9",
"c. c #B3B1CC",
"v. c #B9B6D2",
"b. c #BDBAD7",
"n. c #C2BCD8",
"m. c #A2C1EA",
"M. c #C3C1DE",
"N. c #C5C3E1",
"B. c #C9C5E2",
"V. c #CCC8E7",
"C. c #CDCAE9",
"Z. c #D1CEED",
"A. c #D4D1F1",
"S. c #D9D5F5",
"D. c #DDDAFC",
"F. c #E2DFFF",
"G. c #E3E0FF",
/* pixels */
"                                                                                                    ",
"                                                                                                    ",
"                                                                                                    ",
"                                                                                                    ",
"                                      . . . . . . . . .                                             ",
"                                  . % 6 y y i i i i 7 3 %                                           ",
"                                  . 7 c T W E R E E T z 6 .                                         ",
"                                  & h ! O.=.*.+.*.=.O.R a %       .                                 ",
"                      . & 3 6 6 6 i c W ..X.X.X.X.X...E z y 6 6 6 < % .                             ",
"                      % i c U Y U U I v c c c c c c c b I U U Y U z 7 $                             ",
"                      , z [ *.=.#...Y a < > > < > > 3 s Y X.*.*.+.! x >                             ",
"                      3 b X.>.9.8.=.Q h 6 , < < , , 6 z [ -.8.8.1.X.c ,                             ",
"                      3 I +.1.9.8.2.X.R b c c c c c b E o.>.9.9.1.X.v <                             ",
"                      3 I O.1.8.1.>.-.+.o.X.X.o.X.X.O.@.-.<.1.1.<.X.c ,                             ",
"                      3 I o.>.1.1.1.1.<.1.>.1.<.1.<.<.<.1.<.1.8.>...c ,                             ",
"                      3 I o.<.1.1.<.1.1.8.1.1.8.8.1.1.1.1.<.<.8.>.X.c ,                             ",
"                      3 I o.1.1.1.1.>.1.<.<.8.<.<.1.8.#.9.<.8.8.>.X.c ,                             ",
"                      3 I o.<.1.<.>.1.>.<.8.<.<.<.<.<.<.<.<.#.8.>.X.c >                             ",
"                      3 I +.1.9.8.1.<.>.#.8.1.1.<.<.#.<.#.8.9.9.1.X.c <                             ",
"                      6 I O.1.8.1.1.<.<.<.<.1.1.<.<.9.<.9.8.8.9.1.X.c <                             ",
"                      < c ..#.;.#.;.:.3.4.,.-.-.:.,.4.,.2.#.#.#.=.[ z >                             ",
"                      & a I E E R [ %.6.7.&.| ! $.5.7.5.$.Q E [ R b i $                             ",
"                      X > 7 p u p j ^ h.m. .F k / &.m.f.~ h t u i 7 > X                             ",
"                        . . . . . 5 K l.N.e.l 4 N u.N.l.K 5 $ X X . .                               ",
"                                  = G z.M.w.d = n y.V.n.w.Z e = .                                   ",
"                                  ; G z.M.w.d = n w.V.S.n.p.P d O                                   ",
"                                  : H z.M.t.f ; n w.Z.F.F.n.w.Z ;                                   ",
"                                  : H z.M.r.l ; M u.A.F.B.d.] n *                                   ",
"                                  : H k.N.r.f ; M i.Z.B.u.G g 2 o                                   ",
"                                  : H k.N.e.f ; n y.M.d.G 9 O                                       ",
"                                  : H k.N.e.g * r P r.) g o                                         ",
"                                  : H k.N.t.n * ; r N d 2                                           ",
"                                  : H k.B.y.n + . O ; * o                                           ",
"                                  : H k.N.y.n o o ; 0 8 *                                           ",
"                                  : H k.N.t.n * 4 N H C 0 .                                         ",
"                                  ; H k.N.r.f - d q.j.0.N *                                         ",
"                                  : H k.N.e.d : m u.V.c.` d : o .                                   ",
"                                  : H k.N.e.d : M u.A.Z.k._ A q o                                   ",
"                                  : H l.N.e.d : n y.Z.F.A.v.0.N ;                                   ",
"                                  : H x.N.e.f - n t.Z.G.S.b.e.V ;                                   ",
"                                  1 J c.V.r.d * n u.A.A.c.q.S e +                                   ",
"                                  ; H x.V.r.f - n u.C.v._ n 8 * .                                   ",
"                                  ; A u.x.q.N q C r.x.t.V *                                         ",
"                                  * r H _ _ L J ( _ ) S q .                                         ",
"                                  o * 0 l J t.p.0.H f 8 #                                           ",
"                                        * A y.x.e.N *                                               ",
"                                        . r J ' H q                                                 ",
"                                          ; e d q -                                                 ",
"                                          . o o o                                                   ",
"                                                                                                    "
};
