/* XPM */
static char *_9ecd1aeb3b94c53953d359cd31b52a1SiOihbZqgYle9RzT[] = {
/* columns rows colors chars-per-pixel */
"48 64 2 1 ",
"  c None",
". c #FFFB00",
/* pixels */
"                                                ",
"                                                ",
"     ......          ......          ......     ",
"   .......         ..........      ..........   ",
"  .......         ............    ............  ",
"  ......          ............    ............  ",
" ......          ...........     .............. ",
" .....           ........        .............. ",
" ....            .....           .............. ",
" .....           ........        .............. ",
" ......          ...........     .............. ",
"  ......          ............    ............  ",
"  .......         ............    ............  ",
"   .......         ..........      ..........   ",
"     ......          ......          ......     ",
"                                                ",
"                                                ",
"                                                ",
"     ......          ......          ......     ",
"      .......      ..........      ..........   ",
"       .......    ............    ............  ",
"        ......    ............    ............  ",
"         ......     ...........  .............. ",
"          .....        ........  .............. ",
"           ....           .....  .............. ",
"          .....        ........  .............. ",
"         ......     ...........  .............. ",
"        ......    ............    ............  ",
"       .......    ............    ............  ",
"      .......      ..........      ..........   ",
"     ......          ......          ......     ",
"                                                ",
"                                                ",
"                                                ",
"                   ..     ..         .....      ",
"                  ...     ...      .........    ",
"                  ....   ....     ...........   ",
" .           .   .....   .....    ...........   ",
" ..         ..   .....   .....   .............  ",
" ...       ...   ...... ......   .............  ",
" ....     ....   ...... ......   .............  ",
" .....   .....   ...... ......   .............  ",
" ...... ......   .............   .............  ",
"  ...........     ...........     ...........   ",
"  ...........     ...........     ...........   ",
"   .........       .........       .........    ",
"     .....           .....           .....      ",
"                                                ",
"                                                ",
"     .....           .....           .....      ",
"   .........       .........       .........    ",
"  ...........     ...........     ...........   ",
"  ...........     ...........     ...........   ",
" ...... ......   .............   .............  ",
" .....   .....   ...... ......   .............  ",
" ....     ....   ...... ......   .............  ",
" ...       ...   ...... ......   .............  ",
" ..         ..   .....   .....   .............  ",
" .           .   .....   .....    ...........   ",
"                  ....   ....     ...........   ",
"                  ...     ...      .........    ",
"                   ..     ..         .....      ",
"                                                ",
"                                                "
};
