/* XPM */
static char *result[] = {
/* columns rows colors chars-per-pixel */
"50 50 71 1 ",
"  c black",
". c #010100",
"X c #060600",
"o c #0C0C00",
"O c #0F0F00",
"+ c #070700",
"@ c #020200",
"# c #1E1E00",
"$ c #3B3B00",
"% c #4B4B00",
"& c #3E3E00",
"* c #212100",
"= c #080800",
"- c #0B0B00",
"; c #3C3C00",
": c #787800",
"> c #989800",
", c #7F7F00",
"< c #444400",
"1 c #101000",
"2 c #545400",
"3 c #A8A800",
"4 c #D4D400",
"5 c #B0B000",
"6 c #5F5F00",
"7 c #161600",
"8 c #111100",
"9 c #5D5D00",
"0 c #B9B900",
"q c #E9E900",
"w c #C2C200",
"e c #696900",
"r c #181800",
"t c #5C5C00",
"y c #B8B800",
"u c #686800",
"i c #5A5A00",
"p c #B4B400",
"a c #E3E300",
"s c #BDBD00",
"d c #666600",
"f c #171700",
"g c #B3B300",
"h c #E2E200",
"j c #5B5B00",
"k c #E4E400",
"l c #BEBE00",
"z c #EAEA00",
"x c #C3C300",
"c c #B7B700",
"v c #E7E700",
"b c #C0C000",
"n c #676700",
"m c #505000",
"M c #9F9F00",
"N c #C8C800",
"B c #A7A700",
"V c #141400",
"C c #0A0A00",
"Z c #353500",
"A c #858500",
"S c #6F6F00",
"D c #0E0E00",
"F c #040400",
"G c #2D2D00",
"H c #393900",
"J c #2F2F00",
"K c #191900",
"L c #030300",
"P c #050500",
"I c white",
/* pixels */
"                                                  ",
"                                                  ",
"                                                  ",
"                                                  ",
"                                                  ",
"                                                  ",
"                                                  ",
"                                                  ",
"                                                  ",
"                                                  ",
"                                                  ",
"                                                  ",
"                                                  ",
"                                                  ",
"                                                  ",
"                                                  ",
"                                                  ",
"                                                  ",
"                                                  ",
"                                                  ",
"                                                  ",
"                                                  ",
"                                                  ",
"                       .XoOo+@                    ",
"                       X#$%&*=                    ",
"                       -;:>,<1                    ",
"                       1234567                    ",
"                       890qwer                    ",
"                       8tyqwur                    ",
"                       8ipasdf                    ",
"                       8ighsdf                    ",
"                       8ighsdf                    ",
"                       8ighsdf                    ",
"                       8ighsdf                    ",
"                       8ighsdf                    ",
"                       8ighsdf                    ",
"                       8ighsdf                    ",
"                       8ighsdf                    ",
"                       8ighsdf                    ",
"                       8jpkldf                    ",
"                       890zxer                    ",
"                       8tcvbnr                    ",
"                       OmMNBiV                    ",
"                       CZeAS;D                    ",
"                       FfGHJKX                    ",
"                        LPXPL.                    ",
"                                                  ",
"                                                  ",
"                                                  ",
"                                                  "
};
