/* XPM */
static char *result[] = {
/* columns rows colors chars-per-pixel */
"50 50 163 2 ",
"   c black",
".  c #020200",
"X  c #080800",
"o  c #0D0D00",
"O  c #111100",
"+  c #0E0E00",
"@  c #030300",
"#  c #070700",
"$  c #232300",
"%  c #414100",
"&  c #535300",
"*  c #575700",
"=  c #565600",
"-  c #545400",
";  c #555500",
":  c #444400",
">  c #272700",
",  c #0A0A00",
"<  c #121200",
"1  c #494900",
"2  c #858500",
"3  c #A8A800",
"4  c #B1B100",
"5  c #AEAE00",
"6  c #ABAB00",
"7  c #ADAD00",
"8  c #8B8B00",
"9  c #515100",
"0  c #181800",
"q  c #010100",
"w  c #0B0B00",
"e  c #0C0C00",
"r  c #040400",
"t  c #2D2D00",
"y  c #737300",
"u  c #BEBE00",
"i  c #EBEB00",
"p  c #F6F600",
"a  c #F2F200",
"s  c #EEEE00",
"d  c #F1F100",
"f  c #C6C600",
"g  c #7D7D00",
"h  c #343400",
"j  c #090900",
"k  c #151500",
"l  c #434300",
"z  c #4C4C00",
"x  c #4A4A00",
"c  c #484800",
"v  c #656500",
"b  c #A0A000",
"n  c #DEDE00",
"m  c yellow",
"M  c #E5E500",
"N  c #6C6C00",
"B  c #626200",
"V  c #929200",
"C  c #A4A400",
"Z  c #A5A500",
"A  c #A1A100",
"S  c #9F9F00",
"D  c #9D9D00",
"F  c #AFAF00",
"G  c #CFCF00",
"H  c #F0F000",
"J  c #F4F400",
"K  c #D3D300",
"L  c #B2B200",
"P  c #8E8E00",
"I  c #EFEF00",
"U  c #E9E900",
"Y  c #E8E800",
"T  c #E7E700",
"R  c #ECEC00",
"E  c #F3F300",
"W  c #FAFA00",
"Q  c #FBFB00",
"!  c #4B4B00",
"~  c #A3A300",
"^  c #4D4D00",
"/  c #A7A700",
"(  c #F7F700",
")  c #474700",
"_  c #9A9A00",
"`  c #E6E600",
"'  c #FEFE00",
"]  c #FDFD00",
"[  c #FCFC00",
"{  c #373700",
"}  c #797900",
"|  c #B8B800",
" . c #DCDC00",
".. c #D9D900",
"X. c #CBCB00",
"o. c #060600",
"O. c #1E1E00",
"+. c #424200",
"@. c #6E6E00",
"#. c #9C9C00",
"$. c #9E9E00",
"%. c #7C7C00",
"&. c #6D6D00",
"*. c #0F0F00",
"=. c #282800",
"-. c #5D5D00",
";. c #A6A600",
":. c #AAAA00",
">. c #303000",
",. c #1A1A00",
"<. c #333300",
"1. c #7A7A00",
"2. c #B9B900",
"3. c #D5D500",
"4. c #D7D700",
"5. c #DADA00",
"6. c #F9F900",
"7. c #E0E000",
"8. c #D6D600",
"9. c #7F7F00",
"0. c #393900",
"q. c #191900",
"w. c #707000",
"e. c #808000",
"r. c #989800",
"t. c #C4C400",
"y. c #D8D800",
"u. c #8F8F00",
"i. c #D2D200",
"p. c #CACA00",
"a. c #828200",
"s. c #818100",
"d. c #1D1D00",
"f. c #2C2C00",
"g. c #2E2E00",
"h. c #B7B700",
"j. c #454500",
"k. c #E2E200",
"l. c #5B5B00",
"z. c #313100",
"x. c #2B2B00",
"c. c #292900",
"v. c #1B1B00",
"b. c #B3B300",
"n. c #8D8D00",
"m. c #838300",
"M. c #DFDF00",
"N. c #E1E100",
"B. c #BABA00",
"V. c #767600",
"C. c #2F2F00",
"Z. c #8A8A00",
"A. c #909000",
"S. c #8C8C00",
"D. c #505000",
"F. c #757500",
"G. c #161600",
"H. c #363600",
"J. c #383800",
"K. c #222200",
"L. c #202000",
"P. c #1C1C00",
"I. c white",
/* pixels */
"                                                                                                    ",
"                                                                                                    ",
"                                                                                                    ",
"                                                                                                    ",
"                                                                                                    ",
"                                                                                                    ",
"                                                                                                    ",
"                                                                                                    ",
"                                                                                                    ",
"                                                                                                    ",
"                                                                                                    ",
"                                                                                                    ",
"                                                                                                    ",
"                                                                                                    ",
"                                                                                                    ",
"                                                                                                    ",
"                                                                                                    ",
"                                                                                                    ",
"                                                                                                    ",
"                                                                                                    ",
"                                                                                                    ",
"                                                                                                    ",
"                                                                                                    ",
"                            . X o O O O O O O O O O O O O O O O O O O O + X @                       ",
"                            # $ % & * = - - - - - - - - - - - - - ; * - : > ,                       ",
"                            < 1 2 3 4 5 6 6 6 6 6 6 6 6 6 6 6 6 6 7 4 6 8 9 0                       ",
"  q @ # w e e e e e e , r , t y u i p a s s s s s s s s s s s s s d p s f g h e r j e e e e e e e e ",
"  r k t l z z x x x x c l c v b n m m m m m m m m m m m m m m m m m m m M 3 N x l c x x x x x x x x ",
"  X t B V C Z A b b b S D S F G H m m m m m m m m m m m m m m m m m m m J K L b D S b b b b b b b b ",
"  w % P K s I U Y Y Y Y T Y R E W m m m m m m m m m m m m m m m m m m m Q J R Y T Y Y Y Y Y Y Y Y Y ",
"  o ! ~ d m m m m m m m m m m m m m m m m m m m m m m m m m m m m m m m m m m m m m m m m m m m m m ",
"  o ^ / ( m m m m m m m m m m m m m m m m m m m m m m m m m m m m m m m m m m m m m m m m m m m m m ",
"  e ) _ ` m m m m m m m m m m m m m m m m m m m m m m m m m m m m m m m m m m m m m m m m m ' ] [ [ ",
"  , { } |  .H [ m m m m m m m m m m m m m m m m m m m m m m m m m m m m m m m m m m m m m ] R ..X.f ",
"  o.O.+.@.#.G ( m m m m m m m m m m m m m m m m m m m m m m m m m m m m m m m m m m m m m Q G $.%.&.",
"  . o.*.=.-.;.` m m m m m m m m m m m m m m m m m m m m m m m m m m m m m m m m m m m m m i :.B >.,.",
"        r <.1.2.3.4.K 5.U 6.m m m m m m m m m ' H 7.4.n s ] m m m m m m m m m W i  .K 8.8.u 9.0.X   ",
"          q.) w.e.9.e.r.t.I m m m m m m m m m m y.3 u.~ i.Q m m m m m m m m m J p.D a.9.s.y ! d.    ",
"          , ,.=.f.=.g.& r. .m m m m m m m m m E h.N j.v 7 s m m m m m m m m m k.A l.z.> x.c.v.w     ",
"                      > &.b.5.k. .5.5.5.5.7.7.X.n.% q.0.m.f M.7.5.5.5.5. .N. .B.V.C.@               ",
"                      O % w.Z.A.S.8 8 8 8 P u.s.= $ # d.D.g P u.8 8 8 8 S.A.S.F.) G.                ",
"                      # ,.f.H.0.{ { { { { J.J.<.K.+ @ e L.z.J.J.{ { { { { 0.{ g.P.j                 ",
"                      q . @ @ r @ @ @ @ @ r r @ . q   q . @ r r @ @ @ @ @ r @ @ . q                 ",
"                                                                                                    ",
"                                                                                                    ",
"                                                                                                    ",
"                                                                                                    ",
"                                                                                                    ",
"                                                                                                    ",
"                                                                                                    "
};
