/* XPM */
static char *result[] = {
/* columns rows colors chars-per-pixel */
"50 50 206 2 ",
"   c black",
".  c #010100",
"X  c #050500",
"o  c #090900",
"O  c #0C0C00",
"+  c #0D0D00",
"@  c #0A0A00",
"#  c #060600",
"$  c #020200",
"%  c #181800",
"&  c #323200",
"*  c #444400",
"=  c #4A4A00",
"-  c #494900",
";  c #484800",
":  c #3B3B00",
">  c #242400",
",  c #343400",
"<  c #6C6C00",
"1  c #959500",
"2  c #A2A200",
"3  c #A0A000",
"4  c #9C9C00",
"5  c #9E9E00",
"6  c #808000",
"7  c #4E4E00",
"8  c #1C1C00",
"9  c #030300",
"0  c #1B1B00",
"q  c #5B5B00",
"w  c #A7A700",
"e  c #DEDE00",
"r  c #EFEF00",
"t  c #EDED00",
"y  c #E8E800",
"u  c #EBEB00",
"i  c #F0F000",
"p  c #BEBE00",
"a  c #747400",
"s  c #292900",
"d  c #313100",
"f  c #3E3E00",
"g  c #3C3C00",
"h  c #525200",
"j  c #898900",
"k  c #CCCC00",
"l  c #FCFC00",
"z  c yellow",
"x  c #DADA00",
"c  c #858500",
"v  c #2F2F00",
"b  c #0E0E00",
"n  c #3F3F00",
"m  c #737300",
"M  c #939300",
"N  c #989800",
"B  c #C0C000",
"V  c #E6E600",
"C  c #DFDF00",
"Z  c #888800",
"A  c #696900",
"S  c #B2B200",
"D  c #E4E400",
"F  c #F7F700",
"G  c #FEFE00",
"H  c #FDFD00",
"J  c #CFCF00",
"K  c #7E7E00",
"L  c #2D2D00",
"P  c #080800",
"I  c #141400",
"U  c #2B2B00",
"Y  c #545400",
"T  c #969600",
"R  c #D8D800",
"E  c #F8F800",
"W  c #EAEA00",
"Q  c #D1D100",
"!  c #A4A400",
"~  c #626200",
"^  c #232300",
"/  c #414100",
"(  c #717100",
")  c #9D9D00",
"_  c #C9C900",
"`  c #EEEE00",
"'  c #BCBC00",
"]  c #8A8A00",
"[  c #5E5E00",
"{  c #353500",
"}  c #272700",
"|  c #F3F300",
" . c #FBFB00",
".. c #454500",
"X. c #1D1D00",
"o. c #0B0B00",
"O. c #2C2C00",
"+. c #D3D300",
"@. c #F9F900",
"#. c #D4D400",
"$. c #A3A300",
"%. c #5D5D00",
"&. c #282800",
"*. c #D7D700",
"=. c #BDBD00",
"-. c #8E8E00",
";. c #606000",
":. c #7F7F00",
">. c #CDCD00",
",. c #878700",
"<. c #464600",
"1. c #1F1F00",
"2. c #040400",
"3. c #202000",
"4. c #4D4D00",
"5. c #595900",
"6. c #191900",
"7. c #171700",
"8. c #3A3A00",
"9. c #646400",
"0. c #E7E700",
"q. c #929200",
"w. c #303000",
"e. c #2A2A00",
"r. c #6B6B00",
"t. c #ABAB00",
"y. c #FAFA00",
"u. c #CACA00",
"i. c #474700",
"p. c #363600",
"a. c #D9D900",
"s. c #555500",
"d. c #393900",
"f. c #909000",
"g. c #E2E200",
"h. c #E5E500",
"j. c #2E2E00",
"k. c #373700",
"l. c #8D8D00",
"z. c #DDDD00",
"x. c #C6C600",
"c. c #838300",
"v. c #262600",
"b. c #101000",
"n. c #8B8B00",
"m. c #F5F500",
"M. c #515100",
"N. c #161600",
"B. c #F6F600",
"V. c #BBBB00",
"C. c #7B7B00",
"Z. c #ACAC00",
"A. c #5F5F00",
"S. c #252500",
"D. c #BFBF00",
"F. c #828200",
"G. c #111100",
"H. c #C4C400",
"J. c #E0E000",
"K. c #565600",
"L. c #1A1A00",
"P. c #383800",
"I. c #535300",
"U. c #131300",
"Y. c #E1E100",
"T. c #E9E900",
"R. c #C8C800",
"E. c #9F9F00",
"W. c #333300",
"Q. c #868600",
"!. c #A6A600",
"~. c #5A5A00",
"^. c #656500",
"/. c #CECE00",
"(. c #8C8C00",
"). c #505000",
"_. c #121200",
"`. c #151500",
"'. c #B8B800",
"]. c #C5C500",
"[. c #9B9B00",
"{. c #8F8F00",
"}. c #F4F400",
"|. c #A9A900",
" X c #979700",
".X c #F2F200",
"XX c #DBDB00",
"oX c #676700",
"OX c #D5D500",
"+X c #0F0F00",
"@X c #C2C200",
"#X c #ECEC00",
"$X c #C3C300",
"%X c #DCDC00",
"&X c #D2D200",
"*X c #B9B900",
"=X c #E3E300",
"-X c #A1A100",
";X c #686800",
":X c #999900",
">X c #4B4B00",
",X c #3D3D00",
"<X c #424200",
"1X c #404000",
"2X c #070700",
"3X c white",
/* pixels */
"                                                                                                    ",
"                                        . X o O + + + + + + + + + + + + @ # $                       ",
"                                        $ % & * = - ; ; ; ; ; ; ; - = ; : > +                       ",
"                                        # , < 1 2 3 4 4 4 4 4 4 4 5 2 4 6 7 8                       ",
"                            . 9 # # . $ 0 q w e r t y y y y y y y u i y p a s                       ",
"                            # 0 d f g g h j k l z z z z z z z z z z z z x c v                       ",
"                            b n m M N 1 3 B V z z z z z z z z z z z z z C Z d                       ",
"                          . > A S e y D D t F G z z z z z z z z z z z H J K L                       ",
"                      P I U Y T R z z z z z z z z z z z z z z z z E W Q ! ~ ^                       ",
"                      % / ( ) _ ` z z z z z z z z z z z z z z z z W ' ] [ { I                       ",
"                      } < S C |  .z z z z z z z z z z z z z z z l Q ] ..X.o.X                       ",
"                      O.6 +.z z z z z z z z z z z z z z z z @.t #.$.%.8                             ",
"                      &.6 *.z z z z z z z z z z z z z z z z y =.-.;.d @                             ",
"                      O.:.+.z z z z z z z z z z z z z z z  .>.,.<.1.+ 2.                            ",
"              . X O 3.4.M R z z z z z z z z z z z z z @.i *.2 5.6.                                  ",
"              $ 7.8.9.-.p 0.z z z z z z z z z z z z z V p q.~ w.P                                   ",
"              9 e.r.t.#.u F z z z z z z z z z z z z y.u.c i.^ b 9                                   ",
"              9 p.j *.z z z z z z z z z z z z G  .| a.3 s.7.                                        ",
"              2.d.f.g.z z z z z z z z z z z z z h.B T 9.j.X                                         ",
"              9 k.l.z.z z z z z z z z z z z z E x.c.= v.b.$                                         ",
"              9 k.n.x z z z z z z z z z H l m.x ) M.N.                                              ",
"              9 k.n.x z z z z z z z z z B.e ' M ;.e.$                                               ",
"              9 k.n.x z z z z z z z z z ` V.C.<.> b                                                 ",
"              9 k.n.x z z z z z z z z z u Z.A.S.O 2.$                                               ",
"              9 k.n.x z z z z z z z z z r D.F.7 U G.                                                ",
"              9 k.n.x z z z z z z z z z F g.H.5 A j.9                                               ",
"              9 k.n.x z z z z z z z z z G z y.J.$.K.L.$   .                                         ",
"              2.P.l.e z z z z z z z z z z z z y.u.n.I.L U.$                                         ",
"              2.d.f.Y.z z z z z z z z z z z z z T.R.E.< W.#                                         ",
"              9 { Q.#. .z z z z z z z z z z z G H F C !.~.0                                         ",
"              9 &.^.$.k V m.z z z z z z z z z z z z l /.(.).e._.9                                   ",
"              . `., ~.c '.h.z z z z z z z z z z z z z T.].[.r.{ o                                   ",
"                2.P L.<.{.*.z z z z z z z z z z z z G  .}.e |.[ X.                                  ",
"                      e.:.+.z z z z z z z z z z z z z z z H Q -.7 v.b.2.                            ",
"                      &.6 *.z z z z z z z z z z z z z z z z u H. XA p.O                             ",
"                      O.:.Q z z z z z z z z z z z z z z z z y..XXXt.~ 3.                            ",
"                      S.oXt.R r @.z z z z z z z z z z z z z z z G OXf.4.^ +X#                       ",
"                      N.: oXM @X#Xz z z z z z z z z z z z z z z z #X$XM oX: N.                      ",
"                      # +X^ 4.f.OXz z z z z z z z z z z z z z z z y.r R t.oXS.                      ",
"                            3.9.t.*.J.%Xz.y m.z z z z z z z z z z z z z &X6 j.                      ",
"                            O 8.r.Z (.] T *X=Xz z z z z z z z z z z z z J.j d                       ",
"                            X 7.e.{ & & - c.R.y.z z z z z z z z z z z z R c.v                       ",
"                            . $ 9 9     7.K.-X*.T.V Y.Y.Y.Y.Y.Y.Y.D T.Y.*X( &.                      ",
"                                        X & ;X-.[.:XT 1 1 1 1 1 1  X[.1 C.>X0                       ",
"                                        $ `.O.,X<X<X1X1X1X1X1X1X1X/ <X1X{ 3.o.                      ",
"                                        . 9 X 2X2X2X2X2X2X2X2X2X2X2XP 2X# 2..                       ",
"                                                                                                    ",
"                                                                                                    ",
"                                                                                                    ",
"                                                                                                    "
};
