/* XPM */
static char *result[] = {
/* columns rows colors chars-per-pixel */
"50 50 189 2 ",
"   c black",
".  c #010100",
"X  c #050500",
"o  c #090900",
"O  c #0C0C00",
"+  c #0D0D00",
"@  c #0A0A00",
"#  c #060600",
"$  c #020200",
"%  c #040400",
"&  c #1B1B00",
"*  c #353500",
"=  c #464600",
"-  c #4A4A00",
";  c #494900",
":  c #484800",
">  c #474700",
",  c #373700",
"<  c #1E1E00",
"1  c #3B3B00",
"2  c #737300",
"3  c #979700",
"4  c #A2A200",
"5  c #9F9F00",
"6  c #9C9C00",
"7  c #9A9A00",
"8  c #797900",
"9  c #434300",
"0  c #0F0F00",
"q  c #030300",
"w  c #212100",
"e  c #646400",
"r  c #B0B000",
"t  c #E2E200",
"y  c #F0F000",
"u  c #ECEC00",
"i  c #E8E800",
"p  c #EBEB00",
"a  c #E5E500",
"s  c #B8B800",
"d  c #6E6E00",
"f  c #282800",
"g  c #080800",
"h  c #343400",
"j  c #3F3F00",
"k  c #3C3C00",
"l  c #3D3D00",
"z  c #575700",
"x  c #929200",
"c  c #D4D400",
"v  c yellow",
"b  c #DBDB00",
"n  c #5D5D00",
"m  c #363600",
"M  c #131300",
"N  c #959500",
"B  c #989800",
"V  c #A3A300",
"C  c #C4C400",
"Z  c #EAEA00",
"A  c #EEEE00",
"S  c #C9C900",
"D  c #A6A600",
"F  c #969600",
"G  c #7E7E00",
"H  c #4D4D00",
"J  c #191900",
"K  c #2B2B00",
"L  c #727200",
"P  c #BABA00",
"I  c #E1E100",
"U  c #E3E300",
"Y  c #F8F800",
"T  c #F9F900",
"R  c #EFEF00",
"E  c #E6E600",
"W  c #C1C100",
"Q  c #7C7C00",
"!  c #333300",
"~  c #161600",
"^  c #2F2F00",
"/  c #5C5C00",
"(  c #DFDF00",
")  c #A8A800",
"_  c #636300",
"`  c #1C1C00",
"'  c #767600",
"]  c #CECE00",
"[  c #F2F200",
"{  c #F6F600",
"}  c #D3D300",
"|  c #2E2E00",
" . c #757500",
".. c #F5F500",
"X. c #FBFB00",
"o. c #FCFC00",
"O. c #383800",
"+. c #8D8D00",
"@. c #DEDE00",
"#. c #3A3A00",
"$. c #949400",
"%. c #E9E900",
"&. c #E0E000",
"*. c #4B4B00",
"=. c #8B8B00",
"-. c #9D9D00",
";. c #EDED00",
":. c #313100",
">. c #555500",
",. c #D8D800",
"<. c #242400",
"1. c #696900",
"2. c #B2B200",
"3. c #FEFE00",
"4. c #0E0E00",
"5. c #747400",
"6. c #939300",
"7. c #9B9B00",
"8. c #BBBB00",
"9. c #424200",
"0. c #414100",
"q. c #404000",
"w. c #818100",
"e. c #070700",
"r. c #515100",
"t. c #9E9E00",
"y. c #D9D900",
"u. c #E7E700",
"i. c #F4F400",
"p. c #2D2D00",
"a. c #8F8F00",
"s. c #AFAF00",
"d. c #D1D100",
"f. c #3E3E00",
"g. c #444400",
"h. c #454500",
"j. c #6B6B00",
"k. c #A9A900",
"l. c #1D1D00",
"z. c #141400",
"x. c #202000",
"c. c #151500",
"v. c #4E4E00",
"b. c #4C4C00",
"n. c #ADAD00",
"m. c #6C6C00",
"M. c #AAAA00",
"N. c #A5A500",
"B. c #A4A400",
"V. c #D6D600",
"C. c #0B0B00",
"Z. c #565600",
"A. c #F7F700",
"S. c #FDFD00",
"D. c #1F1F00",
"F. c #393900",
"G. c #888800",
"H. c #C8C800",
"J. c #FAFA00",
"K. c #101000",
"L. c #A0A000",
"P. c #A7A700",
"I. c #C2C200",
"U. c #E4E400",
"Y. c #232300",
"T. c #808000",
"R. c #303000",
"E. c #7A7A00",
"W. c #C0C000",
"Q. c #2C2C00",
"!. c #707000",
"~. c #B3B300",
"^. c #DCDC00",
"/. c #F1F100",
"(. c #1A1A00",
"). c #6D6D00",
"_. c #999900",
"`. c #111100",
"'. c #272700",
"]. c #545400",
"[. c #8A8A00",
"{. c #8C8C00",
"}. c #BEBE00",
"|. c #323200",
" X c #D0D000",
".X c #5F5F00",
"XX c #919100",
"oX c #181800",
"OX c white",
/* pixels */
"                                                                                                    ",
"                                  . X o O + + + + + + + + + + + O @ # $                             ",
"                                  % & * = - ; : : : : : : : ; - > , < #                             ",
"                                  @ 1 2 3 4 5 6 6 6 6 6 6 6 5 4 7 8 9 0                             ",
"                      . % # #   q w e r t y u i i i i i i i p y a s d f X   X # % $                 ",
"                      g < h j k l z x c v v v v v v v v v v v v v b 7 n j 1 j m w @                 ",
"                      M = 8 N B N V C Z v v v v v v v v v v v v v A S D F 3 F G H J                 ",
"                    q K L P I i U a A Y v v v v v v v v v v v v v T R E U i U W Q ! #               ",
"              . o ~ ^ / 5 ( v v v v v v v v v v v v v v v v v v v v v v v v v E ) _ ! J @ $         ",
"              $ ` > ' 4 ] [ v v v v v v v v v v v v v v v v v v v v v v v v v { } ) Q H w %         ",
"              q |  .P U ..X.v v v v v v v v v v v v v v v v v v v v v v v v v o.{ E W G m #         ",
"              % O.+.@.v v v v v v v v v v v v v v v v v v v v v v v v v v v v v v v U F j X         ",
"              % #.$.%.v v v v v v v v v v v v v v v v v v v v v v v v v v v v v v v i 3 1           ",
"              % O.+.@.v v v v v v v v v v v v v v v v v v v v v v v v v v v v v v v U F j X         ",
"              q ^ ' P b &.b ( p Y v v v v v v v v v v v v v v v v v v v v v v v v v E D n f 0 # $   ",
"              $ < *.' =.=.=.-.C ;.v v v v v v v v v v v v v v v v v v v v v v v v v R S 7 d 9 < #   ",
"              . O < ^ * :.* >.$.,.v v v v v v v v v v v v v v v v v v v v v v v v v T A b s 8 , @   ",
"                . $ q $   . <.1.2.@.%.a I &.&.U p { 3.v v v v v v v v v v v v v v v v v v a 7 > O   ",
"                            4.j 5.6.7.B N x x -.8.I v v v v v v v v v v v v v v v v v v v y 4 - +   ",
"                            # & :.j 9.0.q.1 #.H w.C Y v v v v v v v v v v v v v v v v v v p 5 ; +   ",
"                            . q # e.g e.e.. . ~ r.t.y.R A i i u.i ;.i.o.v v v v v v v v v i 6 : +   ",
"                                              $ p.e a.t.t.7 B F 7.s.d.y v v v v v v v v v i 6 : +   ",
"                                                M K f.g.g.9.j 1 h.j.k.U v v v v v v v v v i 6 : +   ",
"                                              $ o M & l.l.l.J z.x.H B @.v v v v v v v v v i 6 : +   ",
"                                                c.:.= v.v.b.; h.v.L n.a v v v v v v v v v i 6 : +   ",
"                                              q :.m.7 M.M.N.B.4 D s V.[ v v v v v v v v v i 6 : +   ",
"                            $ X o O O O C.# X & Z.V ( ..i.A A A A [ A.S.v v v v v v v v v i 6 : +   ",
"                            e.D.F.; H *.- h.g.Z.G.H.J.v v v v v v v v v v v v v v v v v v u 5 ; +   ",
"                            K.g.Q t.D V L.t.-.P.I.U.v v v v v v v v v v v v v v v v v v v y 4 - +   ",
"                $ % # X   X f d s a y u i i u.Z y Y 3.v v v v v v v v v v v v v v v v v v t 3 = O   ",
"              . 4.Y., j 1 j n 7 b v v v v v v v v v v v v v v v v v v v v v v v v v Y Z c r 2 * o   ",
"              $ x.r.T.F 3 F D S A v v v v v v v v v v v v v v v v v v v v v v v v v A C x e 1 & X   ",
"              q R.E.W.U i U E R T v v v v v v v v v v v v v v v v v v v v v v v v v a V z w @ % .   ",
"              % O.a.&.v v v v v v v v v v v v v v v v v v v v v v v v v v v v v v v U N l q         ",
"              % #.$.%.v v v v v v v v v v v v v v v v v v v v v v v v v v v v v v v i B k           ",
"              q , =.b v v v v v v v v v v v v v v v v v v v v v v v v v v v v v v v I N j #         ",
"              q Q.!.~.^./.J.v v v v v v v v v v v v v v v v v v v v v v v v v X.[ ( P 8 h #         ",
"              $ (.q.)._.H./.v v v v v v v v v v v v v v v v v v v v v v v v v ..] 5 L = < %         ",
"              . e.`.'.]._.^.v v v v v v v v v v v v v v v v v v v v v v v v v U 4 / K M g .         ",
"                      '.).~.y.&.^.@.Z A.v v v v v v v v v v v v v Y p ( b &.b P ' ^ q               ",
"                      `.q.!.[.{.[._.}.i v v v v v v v v v v v v v ;.C -.=.=.=. .> ~                 ",
"                      e.(.Q.* |.! v.=. X3.v v v v v v v v v v v v ,.$.>.* :.* | ` o                 ",
"                      . $ q $     l..XM.b %.E I I I I I I I a %.@.2.1.<..   $ q $ .                 ",
"                                  o O.d XX7._.N N N N N N N B 7.6.5.j 4.                            ",
"                                  % oX^ f.9.0.q.q.q.q.q.q.q.0.9.j :.& #                             ",
"                                  . q X e.g e.e.e.e.e.e.e.e.e.g e.# q .                             ",
"                                                                                                    ",
"                                                                                                    ",
"                                                                                                    ",
"                                                                                                    "
};
