/* XPM */
static char *result[] = {
/* columns rows colors chars-per-pixel */
"50 50 197 2 ",
"   c black",
".  c #010100",
"X  c #050500",
"o  c #090900",
"O  c #0C0C00",
"+  c #0D0D00",
"@  c #0A0A00",
"#  c #060600",
"$  c #020200",
"%  c #080800",
"&  c #1E1E00",
"*  c #363600",
"=  c #464600",
"-  c #4A4A00",
";  c #494900",
":  c #484800",
">  c #474700",
",  c #373700",
"<  c #121200",
"1  c #414100",
"2  c #757500",
"3  c #989800",
"4  c #A2A200",
"5  c #9F9F00",
"6  c #9C9C00",
"7  c #9A9A00",
"8  c #797900",
"9  c #434300",
"0  c #0F0F00",
"q  c #1B1B00",
"w  c #606000",
"e  c #AEAE00",
"r  c #E1E100",
"t  c #F0F000",
"y  c #ECEC00",
"u  c #E8E800",
"i  c #EBEB00",
"p  c #E5E500",
"a  c #B8B800",
"s  c #6E6E00",
"d  c #282800",
"f  c #040400",
"g  c #1F1F00",
"h  c #C7C700",
"j  c yellow",
"k  c #DBDB00",
"l  c #5D5D00",
"z  c #3F3F00",
"x  c #3B3B00",
"c  c #212100",
"v  c #202000",
"b  c #717100",
"n  c #CCCC00",
"m  c #EEEE00",
"M  c #C9C900",
"N  c #A6A600",
"B  c #969600",
"V  c #979700",
"C  c #7E7E00",
"Z  c #4D4D00",
"A  c #191900",
"S  c #1D1D00",
"D  c #686800",
"F  c #BDBD00",
"G  c #F5F500",
"H  c #F9F900",
"J  c #EFEF00",
"K  c #E6E600",
"L  c #E3E300",
"P  c #C1C100",
"I  c #7C7C00",
"U  c #333300",
"Y  c #171700",
"T  c #515100",
"R  c #959500",
"E  c #C8C800",
"W  c #A8A800",
"Q  c #636300",
"!  c #2C2C00",
"~  c #545400",
"^  c #B0B000",
"/  c #E0E000",
"(  c #F6F600",
")  c #D3D300",
"_  c #383800",
"`  c #777700",
"'  c #FCFC00",
"]  c #111100",
"[  c #4B4B00",
"{  c #939300",
"}  c #CBCB00",
"|  c #FEFE00",
" . c #030300",
".. c #262600",
"X. c #828200",
"o. c #B1B100",
"O. c #DEDE00",
"+. c #393900",
"@. c #F3F300",
"#. c #919100",
"$. c #CDCD00",
"%. c #F8F800",
"&. c #FDFD00",
"*. c #242400",
"=. c #555500",
"-. c #878700",
";. c #B3B300",
":. c #DDDD00",
">. c #0B0B00",
",. c #3C3C00",
"<. c #747400",
"1. c #B9B900",
"2. c #F1F100",
"3. c #8E8E00",
"4. c #CECE00",
"5. c #FAFA00",
"6. c #222200",
"7. c #565600",
"8. c #8A8A00",
"9. c #B6B600",
"0. c #737300",
"q. c #525200",
"w. c #888800",
"e. c #B2B200",
"r. c #D6D600",
"t. c #6C6C00",
"y. c #ABAB00",
"u. c #E4E400",
"i. c #1C1C00",
"p. c #999900",
"a. c #232300",
"s. c #454500",
"d. c #5A5A00",
"f. c #929200",
"g. c #BBBB00",
"h. c #DCDC00",
"j. c #909000",
"k. c #D4D400",
"l. c #0E0E00",
"z. c #7B7B00",
"x. c #5E5E00",
"c. c #949400",
"v. c #BEBE00",
"b. c #D5D500",
"n. c #F4F400",
"m. c #E2E200",
"M. c #EAEA00",
"N. c #353500",
"B. c #C4C400",
"V. c #646400",
"C. c #4C4C00",
"Z. c #A3A300",
"A. c #575700",
"S. c #3D3D00",
"D. c #2A2A00",
"F. c #5C5C00",
"G. c #8C8C00",
"H. c #141400",
"J. c #505000",
"K. c #D2D200",
"L. c #C5C500",
"P. c #FBFB00",
"I. c #F2F200",
"U. c #DFDF00",
"Y. c #BABA00",
"T. c #343400",
"R. c #313100",
"E. c #B7B700",
"W. c #727200",
"Q. c #181800",
"!. c #D0D000",
"~. c #F7F700",
"^. c #2B2B00",
"/. c #131300",
"(. c #6A6A00",
"). c #C0C000",
"_. c #767600",
"`. c #2F2F00",
"'. c #EDED00",
"]. c #9D9D00",
"[. c #8B8B00",
"{. c #161600",
"}. c #6D6D00",
"|. c #D8D800",
" X c #2E2E00",
".X c #1A1A00",
"XX c #A9A900",
"oX c #E9E900",
"OX c #696900",
"+X c #3E3E00",
"@X c #707000",
"#X c #9B9B00",
"$X c #070700",
"%X c #303000",
"&X c #424200",
"*X c #404000",
"=X c white",
/* pixels */
"                                                                                                    ",
"                                  . X o O + + + + + + + + + + + O @ # $                             ",
"                                  % & * = - ; : : : : : : : ; - > , & #                             ",
"                                  < 1 2 3 4 5 6 6 6 6 6 6 6 5 4 7 8 9 0                             ",
"                                  q w e r t y u u u u u u u i t p a s d X   X # f $                 ",
"                                  g s h j j j j j j j j j j j j j k 7 l z x z * c @                 ",
"                                  v b n j j j j j j j j j j j j j m M N B V B C Z A                 ",
"                                  S D F G j j j j j j j j j j j j H J K L u L P I U #               ",
"                                  Y T R E p G j j j j j j j j j j j j j j j j K W Q U A @ $         ",
"                                  + ! ~ C ^ / j j j j j j j j j j j j j j j j ( ) W I Z c f         ",
"                                  f o Y _ ` P G j j j j j j j j j j j j j j j ' ( K P C * #         ",
"                                        ] [ { } u ( | j j j j j j j j j j j j j j j L B z X         ",
"                                         ...~ X.o.O.| j j j j j j j j j j j j j j j u V x           ",
"                                        $ @ A +.2 F @.j j j j j j j j j j j j j j j L B z X         ",
"                                              0 > #.$.i %.&.j j j j j j j j j j j j K N l d 0 # $   ",
"                                              . *.=.-.;.:.' j j j j j j j j j j j j J M 7 s 9 & #   ",
"                                              . >.S ,.<.1.2.j j j j j j j j j j j j H m k a 8 , @   ",
"                                                    + 9 3.4.m 5.&.j j j j j j j j j j j j p 7 > O   ",
"                                                      6.7.8.9.:.5.j j j j j j j j j j j j t 4 - +   ",
"                                                      O v z 0.9.m j j j j j j j j j j j j i 5 ; +   ",
"                                                          + z 8.4.2.' &.j j j j j j j j j u 6 : +   ",
"                                                            & q.w.e.r.2.j j j j j j j j j u 6 : +   ",
"                                                            @ & ,.t.y.u.j j j j j j j j j u 6 : +   ",
"                                                          . f o i.Z p.O.j j j j j j j j j u 6 : +   ",
"                                                            O a.s.0.^ p j j j j j j j j j u 6 : +   ",
"                                                            c d.f.g.h.@.j j j j j j j j j u 6 : +   ",
"                                                    .     ] s.j.k.( j | j j j j j j j j j u 6 : +   ",
"                                                      l...: z.g.2.j j j j j j j j j j j j y 5 ; +   ",
"                                                      ..x.c.v.r 5.j j j j j j j j j j j j t 4 - +   ",
"                                                    ] : c.b.n.' &.j j j j j j j j j j j j m.V = O   ",
"                                              . l.a.s.z.v.n.j j j j j j j j j j j j %.M.k.^ 0.N.o   ",
"                                              $ d l j.g.r ' j j j j j j j j j j j j m B.f.V.x q X   ",
"                                              < C.V k.2.5.&.j j j j j j j j j j j j p Z.A.c @ f .   ",
"                                        $ + v 1 I P ( j j j j j j j j j j j j j j j L R S. .        ",
"                                        f D.F.G.1.m.j j j j j j j j j j j j j j j j u 3 ,.          ",
"                                        H.J.7 K.m H | j j j j j j j j j j j j j j j r R z #         ",
"                                  X + S z C L.%.j j j j j j j j j j j j j j j P.I.U.Y.8 T.#         ",
"                                  l.R.F.w.E.L j j j j j j j j j j j j j j j j G 4.5 W.= & f         ",
"                                  Q.=.6 !.i ~.j j j j j j j j j j j j j j j j L 4 F.^./.% .         ",
"                                  & (.).H j j j j j j j j j j j j %.i U.k / k Y._.`. .              ",
"                                  v b n j j j j j j j j j j j j j '.B.].[.[.[.2 > {.                ",
"                                  g }.L.j j j j j j j j j j j j j |.c.=.N.R.N. Xi.o                 ",
"                                  .Xl XXk oXK r r r r r r r p oXO.e.OX*..   $  .$ .                 ",
"                                  ] +X@X#.#X3 R R R R R R R 3 #X{ <.z l.                            ",
"                                  $X.X%X+X&X1 *X*X*X*X*X*X*X1 &Xz R.q #                             ",
"                                  .  .X $X% $X$X$X$X$X$X$X$X$X% $X#  ..                             ",
"                                                                                                    ",
"                                                                                                    ",
"                                                                                                    ",
"                                                                                                    "
};
