/* XPM */
static char *result[] = {
/* columns rows colors chars-per-pixel */
"50 50 200 2 ",
"   c black",
".  c #010100",
"X  c #090900",
"o  c #161600",
"O  c #212100",
"+  c #262600",
"@  c #282800",
"#  c #252500",
"$  c #1E1E00",
"%  c #121200",
"&  c #060600",
"*  c #040400",
"=  c #101000",
"-  c #1D1D00",
";  c #272700",
":  c #222200",
">  c #171700",
",  c #0A0A00",
"<  c #020200",
"1  c #030300",
"2  c #444400",
"3  c #676700",
"4  c #787800",
"5  c #7D7D00",
"6  c #757500",
"7  c #5E5E00",
"8  c #363600",
"9  c #0E0E00",
"0  c #303000",
"q  c #5A5A00",
"w  c #737300",
"e  c #7C7C00",
"r  c #797900",
"t  c #6A6A00",
"y  c #474700",
"u  c #323200",
"i  c #767600",
"p  c #B1B100",
"a  c #CFCF00",
"s  c #D6D600",
"d  c #C9C900",
"f  c #A4A400",
"g  c #626200",
"h  c #202000",
"j  c #191900",
"k  c #595900",
"l  c #9D9D00",
"z  c #C6C600",
"x  c #D1D100",
"c  c #B6B600",
"v  c #7B7B00",
"b  c #383800",
"n  c #070700",
"m  c #3F3F00",
"M  c #939300",
"N  c #DEDE00",
"B  c yellow",
"V  c #FDFD00",
"C  c #D4D400",
"Z  c #8E8E00",
"A  c #464600",
"S  c #080800",
"D  c #3E3E00",
"F  c #848400",
"G  c #CDCD00",
"H  c #F9F900",
"J  c #E5E500",
"K  c #9A9A00",
"L  c #0C0C00",
"P  c #424200",
"I  c #9B9B00",
"U  c #E9E900",
"Y  c #EDED00",
"T  c #BDBD00",
"R  c #878700",
"E  c #0B0B00",
"W  c #2B2B00",
"Q  c #545400",
"!  c #818100",
"~  c #E8E800",
"^  c #F0F000",
"/  c #A2A200",
"(  c #4A4A00",
")  c #0D0D00",
"_  c #414100",
"`  c #989800",
"'  c #232300",
"]  c #1C1C00",
"[  c #F7F700",
"{  c #ECEC00",
"}  c #9F9F00",
"|  c #494900",
" . c #404000",
".. c #959500",
"X. c #E1E100",
"o. c #FBFB00",
"O. c #D7D700",
"+. c #929200",
"@. c #050500",
"#. c #141400",
"$. c #888800",
"%. c #D0D000",
"&. c #9C9C00",
"*. c #484800",
"=. c #BEBE00",
"-. c #858500",
";. c #555500",
":. c #2E2E00",
">. c #2A2A00",
",. c #505000",
"<. c #7E7E00",
"1. c #B7B700",
"2. c #EBEB00",
"3. c #E6E600",
"4. c #CACA00",
"5. c #A0A000",
"6. c #646400",
"7. c #5C5C00",
"8. c #C5C500",
"9. c #E3E300",
"0. c #F8F800",
"q. c #FAFA00",
"w. c #D9D900",
"e. c #969600",
"r. c #8C8C00",
"t. c #D2D200",
"y. c #F3F300",
"u. c #C0C000",
"i. c #838300",
"p. c #515100",
"a. c #2C2C00",
"s. c #4C4C00",
"d. c #B9B900",
"f. c #EEEE00",
"g. c #656500",
"h. c #292900",
"j. c #5D5D00",
"k. c #979700",
"l. c #C1C100",
"z. c #E2E200",
"x. c #FEFE00",
"c. c #DADA00",
"v. c #4D4D00",
"b. c #151500",
"n. c #111100",
"m. c #454500",
"M. c #909000",
"N. c #F6F600",
"B. c #999900",
"V. c #C3C300",
"C. c #242400",
"Z. c #BBBB00",
"A. c #F1F100",
"S. c #616100",
"D. c #949400",
"F. c #919100",
"G. c #DBDB00",
"H. c #F4F400",
"J. c #FCFC00",
"K. c #2F2F00",
"L. c #6E6E00",
"P. c #AAAA00",
"I. c #565600",
"U. c #EAEA00",
"Y. c #B0B000",
"T. c #353500",
"R. c #181800",
"E. c #5F5F00",
"W. c #8B8B00",
"Q. c #DFDF00",
"!. c #B3B300",
"~. c #C4C400",
"^. c #3B3B00",
"/. c #1B1B00",
"(. c #4E4E00",
"). c #F5F500",
"_. c #A3A300",
"`. c #575700",
"'. c #333300",
"]. c #8A8A00",
"[. c #DCDC00",
"{. c #3D3D00",
"}. c #E0E000",
"|. c #3C3C00",
" X c #707000",
".X c #F2F200",
"XX c #BABA00",
"oX c #343400",
"OX c #1A1A00",
"+X c #6D6D00",
"@X c #C8C800",
"#X c #CECE00",
"$X c #727200",
"%X c #131300",
"&X c #D8D800",
"*X c #313100",
"=X c #B2B200",
"-X c #696900",
";X c #747400",
":X c white",
/* pixels */
"                                                                                                    ",
"                                                                                                    ",
"                                                                                                    ",
"                                                                                                    ",
"                                                                                                    ",
"                                                                                                    ",
"                                                                                                    ",
"                                                                                                    ",
"                                                                                                    ",
"                                                                                                    ",
"                                                                                                    ",
"                                                                                                    ",
"                                                                                                    ",
"                                                                                                    ",
"        . X o O + @ # $ % &                                                   * = - # @ ; : > , <   ",
"        1 - 2 3 4 5 6 7 8 9                                                   , 0 q w e r t y O &   ",
"        & u i p a s d f g h                                                   j k l z s x c v b ,   ",
"        n m M N B B V C Z A j S 1                                       1 n o D F G H B B J K y L   ",
"        S P I U B B B Y T R k 0 9                                       E W Q ! c ~ B B B ^ / ( )   ",
"        n _ ` J B B B H ~ G / g '                                       ] q I d J [ B B B { } | )   ",
"        n  ...X.B B B B B o.O.+.y > @.<                           < * #.m $.%.H B B B B B ~ &.*.)   ",
"        n  ...X.B B B B B B ^ =.-.;.:.=                           ) >.,.<.1.2.B B B B B B ~ &.*.)   ",
"        n  ...X.B B B B B B H 3.4.5.6.+                           h 7.K 8.9.0.B B B B B B ~ &.*.)   ",
"        n  ...X.B B B B B B B B q.w.e.( o 1   .             . < % _ r.t.0.B B B B B B B B ~ &.*.)   ",
"        n  ...X.B B B B B B B B B y.u.i.p.a.=               9 @ s.e d.f.B B B B B B B B B ~ &.*.)   ",
"        n  ...X.B B B B B B B B B o.J z l g.h.              ' j.k.l.z.H B B B B B B B B B ~ &.*.)   ",
"        n  ...X.B B B B B B B B B x.B 0.c.K v.b.    .     n.m.M.C N.B x.B B B B B B B B B ~ &.*.)   ",
"        n _ B.3.B B B B B B B B B B B B N.V.i.v.@ 9 * L C.*.v Z.A.B B B B B B B B B B B B { } | )   ",
"        S P I U B B B B B B B B B B B B V J V.K S.; , O k D.=.X.q.B B B B B B B B B B B B ^ / ( )   ",
"        n D F.G.x.B B B B B B B B B B B V V N.c.` | h _ Z C H.J.V B B B B B B B B B B B B z.k.A L   ",
"        @.K.L.P.%.~ [ B B B B B B B B B B B B 0.u.v I.w 1.y.B B B B B B B B B B B B 0.U.C Y.w T.X   ",
"        1 R.b E.W.=.U.B B B B B B B B B B B B B Q.1./ !.c.J.B B B B B B B B B B B B f.~.+.6.^./.@.  ",
"        . * X - (.B.N B B B B B B B B B B B B x.).U.J U H.V B B B B B B B B B B B B J _.`.O , * .   ",
"                '.].[.B B B B B B B B B B B B B B B B B B B B B B B B B B B B B B B 9...{.1         ",
"                u r.}.B B B B B B B B B B B B B B B B B B B B B B B B B B B B B B B ~ ` |.          ",
"              < T.].w.B B B B B B B B B B B B B B B B B B B B B B B B B B B B B B B X...m &         ",
"              1 a. X!.[.A.q.B B B B B B B B B B B B B B B B B B B B B B B B B o..XQ.XXr oX&         ",
"              < OX .+XB.@XA.B B B B B B B B B B B B B B B B B B B B B B B B B ).#X} $XA $ *         ",
"              . n n.; Q B.[.B B B B B B B B B B B B B B B B B B B B B B B B B 9./ 7.W %XS .         ",
"                      ; +X!.w.}.[.N U.[ B B B B B B B B B B B B B 0.2.Q.G.}.G.XXi K.1               ",
"                      n. . X].r.].B.=.~ B B B B B B B B B B B B B Y ~.l W.W.W.6 y o                 ",
"                      n OXa.T.u '.(.W.%.x.B B B B B B B B B B B B &XD.;.T.*XT.:.] X                 ",
"                      . < 1 <     - E.P.G.U 3.X.X.X.X.X.X.X.J U N =X-XC..   < 1 < .                 ",
"                                  X b L.F.I B...............` I M ;Xm 9                             ",
"                                  * R.K.D P _  . . . . . . ._ P m *X/.&                             ",
"                                  . 1 @.n S n n n n n n n n n S n & 1 .                             ",
"                                                                                                    ",
"                                                                                                    ",
"                                                                                                    ",
"                                                                                                    "
};
