/* XPM */
static char *result[] = {
/* columns rows colors chars-per-pixel */
"50 50 214 2 ",
"   c black",
".  c #0A0A00",
"X  c #1C1C00",
"o  c #272700",
"O  c #242400",
"+  c #151500",
"@  c #050500",
"#  c #040400",
"$  c #131300",
"%  c #232300",
"&  c #282800",
"*  c #1D1D00",
"=  c #0C0C00",
"-  c #1B1B00",
";  c #4C4C00",
":  c #6E6E00",
">  c #656500",
",  c #3A3A00",
"<  c #070700",
"1  c #343400",
"2  c #616100",
"3  c #6F6F00",
"4  c #4F4F00",
"5  c #202000",
"6  c #363600",
"7  c #818100",
"8  c #B6B600",
"9  c #A8A800",
"0  c #1E1E00",
"q  c #171700",
"w  c #5C5C00",
"e  c #A2A200",
"r  c #B8B800",
"t  c #878700",
"y  c #3D3D00",
"u  c #080800",
"i  c #020200",
"p  c #060600",
"a  c #0F0F00",
"s  c #606000",
"d  c #AEAE00",
"f  c #E3E300",
"g  c #D4D400",
"h  c #909000",
"j  c #464600",
"k  c #1F1F00",
"l  c #141400",
"z  c #121200",
"x  c #222200",
"c  c #3F3F00",
"v  c #868600",
"b  c #CECE00",
"n  c #E5E500",
"m  c #B2B200",
"M  c #676700",
"N  c #303000",
"B  c #1A1A00",
"V  c #424200",
"C  c #9F9F00",
"Z  c #F5F500",
"A  c #EBEB00",
"S  c #BDBD00",
"D  c #8B8B00",
"F  c #747400",
"G  c #626200",
"H  c #3B3B00",
"J  c #0E0E00",
"K  c #5E5E00",
"L  c #737300",
"P  c #E7E700",
"I  c #F7F700",
"U  c #A1A100",
"Y  c #7C7C00",
"T  c #6D6D00",
"R  c #373700",
"E  c #797900",
"W  c #DDDD00",
"Q  c #F2F200",
"!  c #FBFB00",
"~  c #D1D100",
"^  c #CACA00",
"/  c #AAAA00",
"(  c #6B6B00",
")  c #A4A400",
"_  c #C8C800",
"`  c #CFCF00",
"'  c #E2E200",
"]  c #EEEE00",
"[  c #DADA00",
"{  c #CBCB00",
"}  c #C6C600",
"|  c #474700",
" . c #9A9A00",
".. c yellow",
"X. c #FEFE00",
"o. c #FDFD00",
"O. c #FCFC00",
"+. c #DBDB00",
"@. c #979700",
"#. c #4E4E00",
"$. c #090900",
"%. c #030300",
"&. c #191900",
"*. c #8E8E00",
"=. c #0D0D00",
"-. c #4A4A00",
";. c #F0F000",
":. c #C3C300",
">. c #8D8D00",
",. c #353500",
"<. c #595900",
"1. c #EDED00",
"2. c #494900",
"3. c #FAFA00",
"4. c #EAEA00",
"5. c #A9A900",
"6. c #2A2A00",
"7. c #CDCD00",
"8. c #E8E800",
"9. c #F9F900",
"0. c #484800",
"q. c #9C9C00",
"w. c #DEDE00",
"e. c #919100",
"r. c #D7D700",
"t. c #F4F400",
"y. c #C2C200",
"u. c #898900",
"i. c #646400",
"p. c #5B5B00",
"a. c #585800",
"s. c #555500",
"d. c #5F5F00",
"f. c #838300",
"g. c #BBBB00",
"h. c #EFEF00",
"j. c #E4E400",
"k. c #C9C900",
"l. c #B7B700",
"z. c #B9B900",
"x. c #727200",
"c. c #292900",
"v. c #6A6A00",
"b. c #E0E000",
"n. c #F8F800",
"m. c #434300",
"M. c #D9D900",
"N. c #F6F600",
"B. c #A3A300",
"V. c #545400",
"C. c #999900",
"Z. c #DFDF00",
"A. c #F3F300",
"S. c #2E2E00",
"D. c #666600",
"F. c #9E9E00",
"G. c #C4C400",
"H. c #E1E100",
"J. c #686800",
"K. c #C0C000",
"L. c #AFAF00",
"P. c #A7A700",
"I. c #515100",
"U. c #B5B500",
"Y. c #848400",
"T. c #5D5D00",
"R. c #010100",
"E. c #161600",
"W. c #4D4D00",
"Q. c #9D9D00",
"!. c #E9E900",
"~. c #959500",
"^. c #ECEC00",
"/. c #444400",
"(. c #989800",
"). c #454500",
"_. c #3E3E00",
"`. c #2F2F00",
"'. c #D5D500",
"]. c #B0B000",
"[. c #181800",
"{. c #383800",
"}. c #949400",
"|. c #565600",
" X c #212100",
".X c #0B0B00",
"XX c #D3D300",
"oX c #CCCC00",
"OX c #B1B100",
"+X c #8A8A00",
"@X c #A0A000",
"#X c #858500",
"$X c #9B9B00",
"%X c #BEBE00",
"&X c #8F8F00",
"*X c #757500",
"=X c #414100",
"-X c #D0D000",
";X c #D8D800",
":X c #929200",
">X c #262600",
",X c #D2D200",
"<X c #3C3C00",
"1X c #7D7D00",
"2X c #ACAC00",
"3X c #7E7E00",
"4X c #828200",
"5X c #808000",
"6X c #767600",
"7X c #7F7F00",
"8X c #101000",
"9X c #2D2D00",
"0X c #252500",
"qX c white",
/* pixels */
"                                                                                                    ",
"                                                                                                    ",
"                                                                                                    ",
"                                                                                                    ",
"                                                                                                    ",
"                                                                                                    ",
"                                                                                                    ",
"                                                                                                    ",
"                                                                                                    ",
"                                                                                                    ",
"                                                                                                    ",
"          . X o O + @                                                               # $ % & * =     ",
"          - ; : > , =                                                               < 1 2 3 4 5     ",
"        # 6 7 8 9 > 0                                                               q w e r t y u   ",
"  i p a & s d f g h j O k O 5 l <                                       p z 0 O 5 x c v b n m M N B ",
"  p 0 V : C g Z A S D F F F G H z                                       J 6 K F F L v 8 P I g U Y T ",
"  . R E r W Q ! I n ~ ^ b ^ / ( o                                       5 G ) _ b ^ ` ' Z ! ] [ { } ",
"  = |  .n ......X.o.O.o...X.+.@.#.* $.%.                          %.u &.j *.g ! ..X.O.o.X...X.o.O.! ",
"  =.-.e ;...................Q :.>.K ,.z                           a N <.t S 1.......................",
"  =.2.C A ..................3.4.~ 5.( 6.                          % G e 7.8.9.......................",
"  =.0.q.8.......................o.w. .4 * a $ + a < i p J + l a B | e.r.! ..........................",
"  =.-.U ] ........................t.y.u.i.p.K a.H q @ l 6 s.d.w 2 f.g.h.............................",
"  =.-.U h.........................! j.k.r l.z.5.x.N =.c.v.) z.r l.} b.n.............................",
"  = m.e.M.n...X...................X.3.N.t.9.3.j.B.V.6.; C.Z.9.3.t.N.3.o...................o.n.A.h.1.",
"  u S.D.F.G.H.N...............................O._ u.J.f.K.I ..............................I w.:.L.P.",
"  # l S.I.7 g.A ................................n } U.y.H.o...............................;.S Y.T.; ",
"  R.  i E.W.Q.f ..............................X.9.A.;.A.n.X...............................!.B.V.* @ ",
"        R.H ~.n ..........................................................................^.q./.p   ",
"        R.y (.8...........................................................................h.C ).p   ",
"        < _.e.+.X.........................................................................H.@.).=   ",
"        @ `.: / ~ 4.3...............................................................O.1.'.].L 1 $.  ",
"        %.[.{.d.>.:.Q ..............................................................N.^ }.i.H - @   ",
"        R.# $.* #.@.+.X...o.O.o.X...............X.o.O.O.X...............X.o.O.o.....' U |. X.X# R.  ",
"                o ( / ^ b ^ ~ f N.............X.] [ ` r.A o.............n.n XX^ 7.oXOXL `.i         ",
"                z H G F F F +Xr !.............X.g @X#X$X7.! ............] %X&X*XL *XD.=Xq           ",
"                < l 5 O k O ).u.-XO...........;.m D._.K 9 A ............;X:X; >Xk %  X+ u           ",
"                            * K ) ` M.'.,Xr.;X:.t <X+ ,.1X%Xr.;X,Xg M.~ 2XM %                       ",
"                            .X,.G 3XY.4X5Xf.Y.6X4 5 p - 2.L f.Y.5X7 Y.7XM H 8X                      ",
"                            @ l % 9X`.S.S.`.`.6.* = %.. - c.`.`.S.S.`.S.0XE.p                       ",
"                                                                                                    ",
"                                                                                                    ",
"                                                                                                    ",
"                                                                                                    ",
"                                                                                                    ",
"                                                                                                    ",
"                                                                                                    ",
"                                                                                                    ",
"                                                                                                    ",
"                                                                                                    ",
"                                                                                                    "
};
