/* XPM */
static char *result[] = {
/* columns rows colors chars-per-pixel */
"50 50 174 2 ",
"   c black",
".  c #010100",
"X  c #060600",
"o  c #0E0E00",
"O  c #151500",
"+  c #171700",
"@  c #181800",
"#  c #131300",
"$  c #0C0C00",
"%  c #050500",
"&  c #040400",
"*  c #0B0B00",
"=  c #1B1B00",
"-  c #3A3A00",
";  c #565600",
":  c #616100",
">  c #626200",
",  c #5F5F00",
"<  c #606000",
"1  c #505000",
"2  c #303000",
"3  c #0F0F00",
"4  c #2C2C00",
"5  c #4D4D00",
"6  c #090900",
"7  c #333300",
"8  c #6F6F00",
"9  c #A5A500",
"0  c #BABA00",
"q  c #BBBB00",
"w  c #B6B600",
"e  c #B5B500",
"r  c #B7B700",
"t  c #BCBC00",
"y  c #9A9A00",
"u  c #212100",
"i  c #1A1A00",
"p  c #575700",
"a  c #939300",
"s  c #444400",
"d  c #959500",
"f  c #DDDD00",
"g  c #F9F900",
"h  c #FBFB00",
"j  c #F4F400",
"k  c #F3F300",
"l  c #F5F500",
"z  c #D2D200",
"x  c #8C8C00",
"c  c #414100",
"v  c #141400",
"b  c #0D0D00",
"n  c #111100",
"m  c #393900",
"M  c #828200",
"N  c #CBCB00",
"B  c #F6F600",
"V  c #4A4A00",
"C  c #A1A100",
"Z  c #F0F000",
"A  c yellow",
"S  c #EDED00",
"D  c #7A7A00",
"F  c #4E4E00",
"G  c #515100",
"H  c #545400",
"J  c #525200",
"K  c #747400",
"L  c #AEAE00",
"P  c #E7E700",
"I  c #494900",
"U  c #A0A000",
"Y  c #F8F800",
"T  c #DCDC00",
"R  c #BEBE00",
"E  c #ACAC00",
"W  c #A8A800",
"Q  c #A9A900",
"!  c #ABAB00",
"~  c #AAAA00",
"^  c #D8D800",
"/  c #484800",
"(  c #9C9C00",
")  c #E8E800",
"_  c #FDFD00",
"`  c #F7F700",
"'  c #F2F200",
"]  c #EEEE00",
"[  c #F1F100",
"{  c #FCFC00",
"}  c #9F9F00",
"|  c #ECEC00",
" . c #A2A200",
".. c #464600",
"X. c #979700",
"o. c #E2E200",
"O. c #FEFE00",
"+. c #FAFA00",
"@. c #343400",
"#. c #737300",
"$. c #B0B000",
"%. c #D5D500",
"&. c #E9E900",
"*. c #C2C200",
"=. c #3B3B00",
"-. c #646400",
";. c #949400",
":. c #CACA00",
">. c #969600",
",. c #717100",
"<. c #A6A600",
"1. c #5C5C00",
"2. c #292900",
"3. c #020200",
"4. c #2F2F00",
"5. c #B1B100",
"6. c #CCCC00",
"7. c #CDCD00",
"8. c #D3D300",
"9. c #E5E500",
"0. c #DADA00",
"q. c #CFCF00",
"w. c #D7D700",
"e. c #EBEB00",
"r. c #797900",
"t. c #353500",
"y. c #666600",
"u. c #757500",
"i. c #8F8F00",
"p. c #D4D400",
"a. c #858500",
"s. c #9B9B00",
"d. c #C5C500",
"f. c #777700",
"g. c #696900",
"h. c #080800",
"j. c #232300",
"k. c #1F1F00",
"l. c #262600",
"z. c #4C4C00",
"x. c #929200",
"c. c #B2B200",
"v. c #3E3E00",
"b. c #5E5E00",
"n. c #DFDF00",
"m. c #282800",
"M. c #222200",
"N. c #161600",
"B. c #676700",
"V. c #D1D100",
"C. c #D9D900",
"Z. c #C3C300",
"A. c #878700",
"S. c #3C3C00",
"D. c #7D7D00",
"F. c #2B2B00",
"G. c #101000",
"H. c #7F7F00",
"J. c #848400",
"K. c #818100",
"L. c #808000",
"P. c #838300",
"I. c #767600",
"U. c #4F4F00",
"Y. c #202000",
"T. c #6C6C00",
"R. c #252500",
"E. c #2E2E00",
"W. c #2A2A00",
"Q. c #1D1D00",
"!. c #030300",
"~. c #0A0A00",
"^. c #272700",
"/. c white",
/* pixels */
"                                                                                                    ",
"                                                                                                    ",
"                                                                                                    ",
"                                                                                                    ",
"                                                                                                    ",
"                                                                                                    ",
"                                                                                                    ",
"                                                                                                    ",
"                                                                                                    ",
"                                                                                                    ",
"                                                                                                    ",
"                                                                                                    ",
"                                                                                                    ",
"                                                                                                    ",
"                                                                                                    ",
"                                                                                                    ",
"                                                                                                    ",
"                                                                                                    ",
"                                                                                                    ",
"                                                                                                    ",
"  . X o O + @ + + + + + @ + # $ %                                       & * # + @ + + + + + + + + + ",
"  % = - ; : > , , , , < > < 1 2 3                                       * 4 5 , > < , , , , , , , , ",
"  6 7 8 9 0 q w e e e r t r y , u                                       i p a e t r e e e e e e e e ",
"  $ s d f g h j k k k l h l z x c v 6 b n n n n n n n n n n n n n o 6 n m M N k h B k k k k k k k k ",
"  b V C Z A A A A A A A A A S w D p F G H H H H H H H H H H H H H J F H K L P A A A A A A A A A A A ",
"  b I U S A A A A A A A A A Y T R E W Q ! ! ! ! ! ! ! ! ! ! ! ! ! ~ W ! q ^ l A A A A A A A A A A A ",
"  b / ( ) A A A A A A A A A _ ` ' ] ] ] ] ] ] ] ] ] ] ] ] ] ] ] ] ] ] ] [ ` { A A A A A A A A A A A ",
"  b I } | A A A A A A A A A A A A A A A A A A A A A A A A A A A A A A A A A A A A A A A A A A A A A ",
"  b V  .Z A A A A A A A A A A A A A A A A A A A A A A A A A A A A A A A A A A A A A A A A A A A A A ",
"  $ ..X.o.A A A A A A A A A A A A A A A A A A A A A A A A A A A A A A A A A A A A A A A A O.{ +.Y ` ",
"  6 @.#.$.%.S { A A A A A A A A A A A A A A A A A A A A A A A A A A A A A A A A A A A A A _ &.z *.t ",
"  % = =.-.;.:.B A A A A A A A A A A A A A A A A A A A A A A A A A A A A A A A A A A A A A +.N >.,.> ",
"  . & * u ; C o.A A _ { _ O.A A A A A A A A A A O._ { { O.A A A A A A A A A A O._ { { A A P <.1.2.# ",
"        3.4.#.5.6.7.:.8.9.Y A A A A A A A A A O.] 0.q.w.e._ A A A A A A A A A +.) %.:.7.7.w r.t.%   ",
"          + c y.u.#.u.i.R ] A A A A A A A A A O.p.U a.s.7.h A A A A A A A A A k d.;.f.#.u.g.s =     ",
"          h.O u j.k.l.z.x.^ A A A A A A A A A Z c.y.v.b.W e.A A A A A A A A A n.s.H m.k.j.M.N.6 .   ",
"                      j.B.E V.C.p.V.V.V.z w.^ Z.A.S.O t.D.R w.^ z V.V.V.8.C.8.c.,.F.                ",
"                      G.=.B.H.J.K.L.L.L.L.P.J.I.U.Y.X = I #.P.J.L.L.L.L.K.J.K.T.c v                 ",
"                      X N.R.E.4.E.E.E.E.E.4.4.W.Q.$ !.~.= 2.4.4.E.E.E.E.E.4.E.^.@ h.                ",
"                                                                                                    ",
"                                                                                                    ",
"                                                                                                    ",
"                                                                                                    ",
"                                                                                                    ",
"                                                                                                    ",
"                                                                                                    ",
"                                                                                                    ",
"                                                                                                    ",
"                                                                                                    ",
"                                                                                                    "
};
