/* XPM */
static char *result[] = {
/* columns rows colors chars-per-pixel */
"50 50 180 2 ",
"   c black",
".  c #010100",
"X  c #060600",
"o  c #0C0C00",
"O  c #0F0F00",
"+  c #070700",
"@  c #1A1A00",
"#  c #393900",
"$  c #4A4A00",
"%  c #3D3D00",
"&  c #1E1E00",
"*  c #020200",
"=  c #040400",
"-  c #373700",
";  c #767600",
":  c #979700",
">  c #7C7C00",
",  c #3F3F00",
"<  c #080800",
"1  c #5C5C00",
"2  c #ABAB00",
"3  c #D5D500",
"4  c #B4B400",
"5  c #666600",
"6  c #202000",
"7  c #030300",
"8  c #131300",
"9  c #2D2D00",
"0  c #535300",
"q  c #8F8F00",
"w  c #D0D000",
"e  c #F2F200",
"r  c #D7D700",
"t  c #989800",
"y  c #595900",
"u  c #313100",
"i  c #161600",
"p  c #333300",
"a  c #6C6C00",
"s  c #9F9F00",
"d  c #CACA00",
"f  c #ECEC00",
"g  c #FAFA00",
"h  c #EFEF00",
"j  c #CFCF00",
"k  c #A5A500",
"l  c #737300",
"z  c #3A3A00",
"x  c #0B0B00",
"c  c #1B1B00",
"v  c #5A5A00",
"b  c #A6A600",
"n  c #DFDF00",
"m  c #F8F800",
"M  c #FEFE00",
"N  c #FDFD00",
"B  c #F9F900",
"V  c #E4E400",
"C  c #AFAF00",
"Z  c #646400",
"A  c #212100",
"S  c #151500",
"D  c #2B2B00",
"F  c #505000",
"G  c #8C8C00",
"H  c #CECE00",
"J  c #FCFC00",
"K  c yellow",
"L  c #949400",
"P  c #565600",
"I  c #2F2F00",
"U  c #171700",
"Y  c #111100",
"T  c #6D6D00",
"R  c #9B9B00",
"E  c #C5C500",
"W  c #E9E900",
"Q  c #EDED00",
"!  c #A1A100",
"~  c #414100",
"^  c #A8A800",
"/  c #DEDE00",
"(  c #F5F500",
")  c #FBFB00",
"_  c #F6F600",
"`  c #E2E200",
"'  c #B1B100",
"]  c #1C1C00",
"[  c #6A6A00",
"{  c #C2C200",
"}  c #CCCC00",
"|  c #757500",
" . c #232300",
".. c #676700",
"X. c #C3C300",
"o. c #CDCD00",
"O. c #1F1F00",
"+. c #C0C000",
"@. c #262600",
"#. c #0D0D00",
"$. c #454500",
"%. c #868600",
"&. c #CBCB00",
"*. c #D3D300",
"=. c #4C4C00",
"-. c #0E0E00",
";. c #050500",
":. c #0A0A00",
">. c #606000",
",. c #8D8D00",
"<. c #B9B900",
"1. c #E1E100",
"2. c #E5E500",
"3. c #BFBF00",
"4. c #929200",
"5. c #5D5D00",
"6. c #A3A300",
"7. c #D4D400",
"8. c #F7F700",
"9. c #EEEE00",
"0. c #D8D800",
"q. c #464600",
"w. c #8B8B00",
"e. c #D1D100",
"r. c #4E4E00",
"t. c #656500",
"y. c #919100",
"u. c #C1C100",
"i. c #F0F000",
"p. c #C7C700",
"a. c #6B6B00",
"s. c #191900",
"d. c #242400",
"f. c #D9D900",
"g. c #6E6E00",
"h. c #272700",
"j. c #B6B600",
"k. c #E3E300",
"l. c #EAEA00",
"z. c #F4F400",
"x. c #E6E600",
"c. c #BDBD00",
"v. c #777700",
"b. c #818100",
"n. c #AEAE00",
"m. c #B7B700",
"M. c #A2A200",
"N. c #B3B300",
"B. c #DADA00",
"V. c #888800",
"C. c #363600",
"Z. c #DDDD00",
"A. c #7A7A00",
"S. c #F3F300",
"D. c #A7A700",
"F. c #282800",
"G. c #B8B800",
"H. c #EBEB00",
"J. c #E8E800",
"K. c #999900",
"L. c #424200",
"P. c #8E8E00",
"I. c #787800",
"U. c #797900",
"Y. c #9A9A00",
"T. c #9C9C00",
"R. c #626200",
"E. c #222200",
"W. c #A0A000",
"Q. c #9D9D00",
"!. c #9E9E00",
"~. c #7F7F00",
"^. c #494900",
"/. c #474700",
"(. c #484800",
"). c #434300",
"_. c #121200",
"`. c #292900",
"'. c #090900",
"]. c white",
/* pixels */
"                                                                                                    ",
"                                                                                                    ",
"                                                                                                    ",
"                                                                                                    ",
"                                                                                                    ",
"                                                                                                    ",
"                                                                                                    ",
"                                                                                                    ",
"                                                                                                    ",
"                                                                                                    ",
"                                                                                                    ",
"                                                                                                    ",
"                                                                                                    ",
"                                                                                                    ",
"                                                                                                    ",
"                                                                                                    ",
"                                                                                                    ",
"                                                                                                    ",
"                                                                                                    ",
"                                                                                                    ",
"                                                                                                    ",
"                                                                                                    ",
"                                                                                                    ",
"                                              . X o O o + .                                         ",
"                                                @ # $ % & *                                         ",
"                                              = - ; : > , <                                         ",
"                                        .   * @ 1 2 3 4 5 6 7   .                                   ",
"                                        * 8 9 0 q w e r t y u i =                                   ",
"                                        X p a s d f g h j k l z x                                   ",
"                                        c v b n m M N M B V C Z A *                                 ",
"                                  + S D F G H J K K K K K K 3 L P I U <                             ",
"                                  Y z T R E W K K K K K K K Q d ! l ~ S                             ",
"                                  @ 1 ^ / ( ) M K K K K K K J _ ` ' 5 A                             ",
"                                  ] [ { J K K K K K K K K K K K K } |  .                            ",
"                                  U ..X.K K K K K K K K K K K K K o.l O.                            ",
"                                  & [ +.B K K K K K K K K K K K N d | @.                            ",
"                            = #.6 $.%.&.B K K K K K K K K K K K J *.q =. .-.;.                      ",
"                            :.u >.,.<.1.) K K K K K K K K K K K N 2.3.4.5 - -.                      ",
"                            ] 5.6.7.f 8.M K K K K K K K K K K K M m 9.0.2 5  .                      ",
"                      ;.o & q.w.e.J K K K K K K K K K K K K K K K K K K 0.L r.A #.X .               ",
"                      S z t.y.u.f K K K K M K K K K K K K K K M K K K K i.p.: a., s.*               ",
"                      d.t.^ 3 Q B K K K K K K K K K K K K K K K K K K K g h f.C g.D 7               ",
"                      h.g.j.k.( ) K K K K K K M ( l.2.W z.N K K K K K K J 8.x.c.v.I 7               ",
"                      ] =.b.n.7.e K K K K K K K n m.M.N.B.J K K K K K K ( 0.N.V.0 A *               ",
"                      :.c C.>.s Z.K K K K K K m +.A.P l m.S.K K K K K K k.D...z & o .               ",
"                          = F.g.G.2.i.H.J.9.h f.K.$ 6 L.P.7.9.h W H.i.J.+.I.I X                     ",
"                            O L.U.Y.M.s T.! ! y.R.F.:.E.v ,.W.! Q.!.M.T.~.^.S                       ",
"                            X & - /.$ ^.(.$ $ ).9 _.= O `.~ $ $ (.^.$ (.z A '.                      ",
"                            * X :.o #.#.#.#.#.o < = . 7 < x #.#.#.#.#.#.:.X *                       ",
"                                                                                                    "
};
