/* XPM */
static char *result[] = {
/* columns rows colors chars-per-pixel */
"50 50 189 2 ",
"   c black",
".  c #010100",
"X  c #050500",
"o  c #090900",
"O  c #0C0C00",
"+  c #0D0D00",
"@  c #0A0A00",
"#  c #060600",
"$  c #020200",
"%  c #040400",
"&  c #1B1B00",
"*  c #353500",
"=  c #464600",
"-  c #4A4A00",
";  c #494900",
":  c #484800",
">  c #474700",
",  c #373700",
"<  c #1E1E00",
"1  c #3B3B00",
"2  c #737300",
"3  c #979700",
"4  c #A2A200",
"5  c #9F9F00",
"6  c #9C9C00",
"7  c #9A9A00",
"8  c #797900",
"9  c #434300",
"0  c #0F0F00",
"q  c #030300",
"w  c #212100",
"e  c #646400",
"r  c #B0B000",
"t  c #E2E200",
"y  c #F0F000",
"u  c #ECEC00",
"i  c #E8E800",
"p  c #EBEB00",
"a  c #E5E500",
"s  c #B8B800",
"d  c #6E6E00",
"f  c #282800",
"g  c #080800",
"h  c #343400",
"j  c #3F3F00",
"k  c #3C3C00",
"l  c #3D3D00",
"z  c #575700",
"x  c #929200",
"c  c #D4D400",
"v  c yellow",
"b  c #DBDB00",
"n  c #5D5D00",
"m  c #363600",
"M  c #131300",
"N  c #959500",
"B  c #989800",
"V  c #A3A300",
"C  c #C4C400",
"Z  c #EAEA00",
"A  c #EEEE00",
"S  c #C9C900",
"D  c #A6A600",
"F  c #969600",
"G  c #7E7E00",
"H  c #4D4D00",
"J  c #191900",
"K  c #2B2B00",
"L  c #727200",
"P  c #BABA00",
"I  c #E1E100",
"U  c #E3E300",
"Y  c #F8F800",
"T  c #F9F900",
"R  c #EFEF00",
"E  c #E6E600",
"W  c #C1C100",
"Q  c #7C7C00",
"!  c #333300",
"~  c #161600",
"^  c #2F2F00",
"/  c #5C5C00",
"(  c #DFDF00",
")  c #A8A800",
"_  c #636300",
"`  c #1C1C00",
"'  c #767600",
"]  c #CECE00",
"[  c #F2F200",
"{  c #F6F600",
"}  c #D3D300",
"|  c #2E2E00",
" . c #757500",
".. c #F5F500",
"X. c #FBFB00",
"o. c #FCFC00",
"O. c #8B8B00",
"+. c #313100",
"@. c #E0E000",
"#. c #0E0E00",
"$. c #242400",
"%. c #555500",
"&. c #9D9D00",
"*. c #FDFD00",
"=. c #DEDE00",
"-. c #696900",
";. c #949400",
":. c #F7F700",
">. c #D6D600",
",. c #ADAD00",
"<. c #A9A900",
"1. c #D1D100",
"2. c #F4F400",
"3. c #747400",
"4. c #B2B200",
"5. c #D8D800",
"6. c #EDED00",
"7. c #6B6B00",
"8. c #AFAF00",
"9. c #070700",
"0. c #939300",
"q. c #4E4E00",
"w. c #202000",
"e. c #454500",
"r. c #9B9B00",
"t. c #424200",
"y. c #E9E900",
"u. c #141400",
"i. c #E7E700",
"p. c #414100",
"a. c #A4A400",
"s. c #404000",
"d. c #A5A500",
"f. c #4C4C00",
"g. c #1D1D00",
"h. c #AAAA00",
"j. c #444400",
"k. c #9E9E00",
"l. c #FEFE00",
"z. c #FAFA00",
"x. c #3E3E00",
"c. c #8F8F00",
"v. c #D9D900",
"b. c #E4E400",
"n. c #C8C800",
"m. c #6C6C00",
"M. c #C2C200",
"N. c #888800",
"B. c #565600",
"V. c #151500",
"C. c #2D2D00",
"Z. c #515100",
"A. c #818100",
"S. c #BBBB00",
"D. c #A7A700",
"F. c #999900",
"G. c #3A3A00",
"H. c #919100",
"J. c #A0A000",
"K. c #0B0B00",
"L. c #D0D000",
"P. c #4B4B00",
"I. c #181800",
"U. c #383800",
"Y. c #5F5F00",
"T. c #BEBE00",
"R. c #8A8A00",
"E. c #DCDC00",
"W. c #393900",
"Q. c #323200",
"!. c #8C8C00",
"~. c #1F1F00",
"^. c #101000",
"/. c #2C2C00",
"(. c #707000",
"). c #B3B300",
"_. c #F1F100",
"`. c #1A1A00",
"'. c #6D6D00",
"]. c #111100",
"[. c #272700",
"{. c #545400",
"}. c #C0C000",
"|. c #808000",
" X c #7A7A00",
".X c #232300",
"XX c #8D8D00",
"oX c #303000",
"OX c white",
/* pixels */
"                                                                                                    ",
"                                  . X o O + + + + + + + + + + + O @ # $                             ",
"                                  % & * = - ; : : : : : : : ; - > , < #                             ",
"                                  @ 1 2 3 4 5 6 6 6 6 6 6 6 5 4 7 8 9 0                             ",
"                      . % # #   q w e r t y u i i i i i i i p y a s d f X   X # % $                 ",
"                      g < h j k l z x c v v v v v v v v v v v v v b 7 n j 1 j m w @                 ",
"                      M = 8 N B N V C Z v v v v v v v v v v v v v A S D F 3 F G H J                 ",
"                    q K L P I i U a A Y v v v v v v v v v v v v v T R E U i U W Q ! #               ",
"              . o ~ ^ / 5 ( v v v v v v v v v v v v v v v v v v v v v v v v v E ) _ ! J @ $         ",
"              $ ` > ' 4 ] [ v v v v v v v v v v v v v v v v v v v v v v v v v { } ) Q H w %         ",
"              q |  .P U ..X.v v v v v v v v v v v v v v v v v v v v v v v v v o.{ E W G m #         ",
"              $ * O.b v v v v v v v v v v v v v v v v v v v v v v v v v v v v v v v U F j X         ",
"                +.O.@.v v v v v v v v v v v v v v v v v v v v v v v v v v v v v v v i 3 1           ",
"              . * O.b v v v v v v v v v v v v v v v v v v v v v v v v v v v v v v v U F j X         ",
"        . # #.$.%.&.( v v v v v v v v v v v v *.[ a =.U y o.v v v v v v v v v v v v E D n f 0 # $   ",
"        q & j -.;.C p v v v v v v v v v v v v :.>.,.B <.1.2.v v v v v v v v v v v v R S 7 d 9 < #   ",
"        # +.3.4.5.6.Y v v v v v v v v v v v v [ s L H 7.8.6.v v v v v v v v v v v v T A b s 8 , @   ",
"        9.j 0.=.v v v v v v v v v v v v v v v A D q.w.e.r.i v v v v v v v v v v v v v v v a 7 > O   ",
"        g t.r.y.v v v v v v v v v v v v v v v A 4 e.u.1 F i.v v v v v v v v v v v v v v v y 4 - +   ",
"        9.p.B a v v v v v v v v v v v v v v v A a.; J j B i v v v v v v v v v v v v v v v p 5 ; +   ",
"        9.s.N I v v v v v v v v v v v v v v v A d.f.g.t.7 i v v v v v v v v v v v v v v v i 6 : +   ",
"        9.s.N I v v v v v v v v v v v v v v v 2.h.q.g.j.k.A v v v v v v v v v v v v v v v i 6 : +   ",
"        9.s.N I v v v v v v v v v v v v v v v ..h.q.g.j.k.R v v v v v v v v v v v v v v v i 6 : +   ",
"        9.s.N I v v v v v v v v v v v v l.v z.( 7 = & x.c.v.Y v l.v v v v v v v v v v v v i 6 : +   ",
"        9.s.N I v v v v v v v v v v v v Y b.n.V m.+.M K e k.C I { v v v v v v v v v v v v i 6 : +   ",
"        9.s.N I v v v v v v v v v v v v y M.N.B.+.V.o M C.Z.A.S.p v v v v v v v v v v v v i 6 : +   ",
"        9.s.N I v v v v v v v v v v v v Z D.B.& q   $   $ ~ H &.U v v v v v v v v v v v v i 6 : +   ",
"        9.p.F.E v v v v v v v v v v v v i.&.j.X           . G.x @.v v v v v v v v v v v v u 5 ; +   ",
"        g t.r.y.v v v v v v v v v v v v i k.e.#           . 1 x @.v v v v v v v v v v v v y 4 - +   ",
"        9.x.H.b l.v v v v v v v v v v v i J.- K.          9.s.N I v v v v v v v v v v v v t 3 = O   ",
"        X ^ d h.L.i :.v v v v v v v v v u V P.O           9.p.B a v v v v v v v v v Y Z c r 2 * o   ",
"        q I.U.Y.O.T.Z v v v v v v v v v y D H O           g t.r.y.v v v v v v v v v A C x e 1 & X   ",
"        . % o g.q.F.=.v v v v v v v v v a k.; O           9.j 0.=.v v v v v v v v v a V z w @ % .   ",
"                ! R.E.v v v v v v T A b s Q W.o           # +.3.4.5.6.Y v v v v v v U N l q         ",
"                Q.!.@.v v v v v v R S 7 d j.~.X           q & j -.;.C p v v v v v v i B k           ",
"              $ * R.v.v v v v v v E D n f ^.9.$           . # #.$.%.&.( v v v v v v I N j #         ",
"              q /.(.).E._.z.v v v U F j X                       . * O.b v v v X.[ ( P 8 h #         ",
"              $ `.s.'.F.n._.v v v i 3 1                           +.O.@.v v v ..] 5 L = < %         ",
"              . 9.].[.{.F.E.v v v U F j X                       $ * O.b v v v U 4 / K M g .         ",
"                      [.'.).b y.@.}.|., #                       q ^ ' P =.y.=.P ' ^ q               ",
"                      ].s.(.O.;.c. XZ..X%                       $ < P.' XX;.XX .> ~                 ",
"                      9.`./., G.U.oXw.#.$                       . O < ^ U.G.U.| ` o                 ",
"                      . $ q q % % q $ .                           . $ q % % % q $ .                 ",
"                                                                                                    ",
"                                                                                                    ",
"                                                                                                    ",
"                                                                                                    ",
"                                                                                                    ",
"                                                                                                    ",
"                                                                                                    "
};
