/* XPM */
static char *result[] = {
/* columns rows colors chars-per-pixel */
"50 50 211 2 ",
"   c black",
".  c #010100",
"X  c #080800",
"o  c #121200",
"O  c #1B1B00",
"+  c #1E1E00",
"@  c #1F1F00",
"#  c #181800",
"$  c #0E0E00",
"%  c #050500",
"&  c #040400",
"*  c #0D0D00",
"=  c #171700",
"-  c #1D1D00",
";  c #414100",
":  c #606000",
">  c #6C6C00",
",  c #6D6D00",
"<  c #6A6A00",
"1  c #6B6B00",
"2  c #6E6E00",
"3  c #696900",
"4  c #555500",
"5  c #313100",
"6  c #090900",
"7  c #2C2C00",
"8  c #515100",
"9  c #686800",
"0  c #363600",
"q  c #757500",
"w  c #AEAE00",
"e  c #C4C400",
"r  c #C5C500",
"t  c #C0C000",
"y  c #C1C100",
"u  c #C6C600",
"i  c #BFBF00",
"p  c #9C9C00",
"a  c #5C5C00",
"s  c #545400",
"d  c #959500",
"f  c #BCBC00",
"g  c #C2C200",
"h  c #0C0C00",
"j  c #464600",
"k  c #989800",
"l  c #E1E100",
"z  c #FEFE00",
"x  c yellow",
"c  c #F8F800",
"v  c #FAFA00",
"b  c #D0D000",
"n  c #878700",
"m  c #3F3F00",
"M  c #0F0F00",
"N  c #141400",
"B  c #151500",
"V  c #060600",
"C  c #383800",
"Z  c #7E7E00",
"A  c #C8C800",
"S  c #F5F500",
"D  c #FBFB00",
"F  c #4A4A00",
"G  c #A2A200",
"H  c #F0F000",
"J  c #EAEA00",
"K  c #B3B300",
"L  c #7D7D00",
"P  c #5F5F00",
"I  c #595900",
"U  c #5D5D00",
"Y  c #626200",
"T  c #616100",
"R  c #565600",
"E  c #393900",
"W  c #131300",
"Q  c #353500",
"!  c #535300",
"~  c #777700",
"^  c #ACAC00",
"/  c #E4E400",
"(  c #494900",
")  c #9F9F00",
"_  c #ECEC00",
"`  c #F6F600",
"'  c #DDDD00",
"]  c #C3C300",
"[  c #B5B500",
"{  c #B2B200",
"}  c #B4B400",
"|  c #B6B600",
" . c #BBBB00",
".. c #BABA00",
"X. c #A4A400",
"o. c #6F6F00",
"O. c #2F2F00",
"+. c #282800",
"@. c #676700",
"#. c #B9B900",
"$. c #D9D900",
"%. c #F3F300",
"&. c #484800",
"*. c #E8E800",
"=. c #FDFD00",
"-. c #F9F900",
";. c #F4F400",
":. c #DFDF00",
">. c #525200",
",. c #111100",
"<. c #969600",
"1. c #F7F700",
"2. c #FCFC00",
"3. c #A0A000",
"4. c #EDED00",
"5. c #888800",
"6. c #4E4E00",
"7. c #505000",
"8. c #818100",
"9. c #BDBD00",
"0. c #EFEF00",
"q. c #E3E300",
"w. c #AFAF00",
"e. c #A8A800",
"r. c #A9A900",
"t. c #ABAB00",
"y. c #ADAD00",
"u. c #E0E000",
"i. c #444400",
"p. c #DEDE00",
"a. c #EEEE00",
"s. c #F2F200",
"d. c #A7A700",
"f. c #CECE00",
"g. c #E9E900",
"h. c #E6E600",
"j. c #CBCB00",
"k. c #B1B100",
"l. c #343400",
"z. c #5B5B00",
"x. c #8C8C00",
"c. c #C7C700",
"v. c #8E8E00",
"b. c #020200",
"n. c #9B9B00",
"m. c #222200",
"M. c #2A2A00",
"N. c #D1D100",
"B. c #D5D500",
"V. c #707000",
"C. c #303000",
"Z. c #030300",
"A. c #5E5E00",
"S. c #8D8D00",
"D. c #CACA00",
"F. c #949400",
"G. c #646400",
"H. c #979700",
"J. c #DBDB00",
"K. c #E2E200",
"L. c #A1A100",
"P. c #212100",
"I. c #0A0A00",
"U. c #272700",
"Y. c #AAAA00",
"T. c #DADA00",
"R. c #CFCF00",
"E. c #D7D700",
"W. c #EBEB00",
"Q. c #E5E500",
"!. c #D3D300",
"~. c #CDCD00",
"^. c #CCCC00",
"/. c #737300",
"(. c #3B3B00",
"). c #747400",
"_. c #8A8A00",
"`. c #B8B800",
"'. c #D4D400",
"]. c #858500",
"[. c #BEBE00",
"{. c #8F8F00",
"}. c #666600",
"|. c #070700",
" X c #202000",
".X c #242400",
"XX c #454500",
"oX c #898900",
"OX c #3E3E00",
"+X c #D8D800",
"@X c #929200",
"#X c #4C4C00",
"$X c #262600",
"%X c #232300",
"&X c #D2D200",
"*X c #3C3C00",
"=X c #0B0B00",
"-X c #848400",
";X c #828200",
":X c #808000",
">X c #838300",
",X c #767600",
"<X c #4F4F00",
"1X c #7F7F00",
"2X c #101000",
"3X c #2D2D00",
"4X c #2E2E00",
"5X c #292900",
"6X c #252500",
"7X c #161600",
"8X c white",
/* pixels */
"                                                                                                    ",
"                                                                                                    ",
"                                                                                                    ",
"                                                                                                    ",
"                                                                                                    ",
"                                                                                                    ",
"                                                                                                    ",
"                                                                                                    ",
"                                                                                                    ",
"                                                                                                    ",
"                                                                                                    ",
"                                                                                                    ",
"                                                                                                    ",
"                                                                                                    ",
"                                                                                                    ",
"                                                                                                    ",
"                                                                                                    ",
"  . X o O + @ + + @ + # $ %                                                   & * = - @ + + + + + + ",
"  % + ; : > , < 1 2 3 4 5 *                                                   6 7 8 9 2 1 < < < < < ",
"  6 0 q w e r t y u i p a -                                                   = s d f u g i i i i i ",
"  h j k l z x c v x c b n m = M N = # = B $ V .             V * N = # = B M B C Z A S x D c c c c c ",
"  * F G H x x x x x x J K L P I U P Y T R E =               W Q ! T Y P U I U ~ ^ / x x x x x x x x ",
"  * ( ) _ x x x x x x ` ' ] [ { } |  ...X.o.O..             +.@.) #. .| } { } y $.%.x x x x x x x x ",
"  * &.p *.x x x x x x =.-.S %.%.%.;.v -.:.) >.O 6 h ,.h 6 = F <.$.1.D S %.%.%.S -.2.x x x x x x x x ",
"  * ( 3.4.x x x x z x x x x x x x x x x 1.r 5.a 6.7.s 8 6.I 8.9.%.x x x x x x x x x x x x x x x x x ",
"  * F G 0.x x x x x x x x x x x x x x x =.q.r w.e.r.t.r.e.y.y u.v x x x x x x x x x x x x x x x x x ",
"  h i.d p.2.x z x x x x x x x x x x x x z -.%.0.a.a.a.a.a.0.s.c =.x x x x x x x x x x x x z v 1.;.%.",
"  6 5 > d.f.g.D x x x x x x x x x x x x x x x x x x x x x x x x x x x x x x x x x x x x x =.h.j.#.k.",
"  % = l.z.x.r ;.x x x x x x x x x x x x x x x x x x x x x x x x x x x x x x x x x x x x x c c.v.@.R ",
"  . b.V O 7.n.p.=.x x x x x x x x x x x x x x x x x x x x x x x x x x x x x x x x x x x x / 3.R m.h ",
"          M.1 r.N.J v x x x x x x x x x x x x x x x x x x x x x x x x x x x x x x x 2.4.B.w.V.C.Z.  ",
"          o Q A.S.] s.x x x x x x x x x x x x x x x x x x x x x x x x x x x x x x x ` D.F.G.C B     ",
"          Z.6 - 6.H.J.z x =.2.=.z x x x x x x x z =.2.2.z x x x x x x x z =.2.=.x x K.L.R P.I.& .   ",
"                U.1 Y.D.f.D.N.q.` x x x x x x z a.T.R.E.W.=.x x x x x x c Q.!.D.~.^.k./.O.b.        ",
"                o (.Y ).).)._.`.g.x x x x x x z '.3.].n.~.D x x x x x x a.[.{.q /.q }.; =           ",
"                |.N  X.X@ .XXXoXb 2.x x x x x H { }.OXA.e.W.x x x x x x +X@X#X$X@ %XP.B X           ",
"                            - A.X.R.$.B.&XE.+X] n *XB Q L [.E.+X&X'.$.N.^ @.%X                      ",
"                            =XQ Y Z -X;X:X>X-X,X<X XV O ( /.>X-X:X8.-X1X@.(.2X                      ",
"                            % N %X3XO.4X4XO.O.M.- h Z.I.O 5XO.O.4X4XO.4X6X7XV                       ",
"                                                                                                    ",
"                                                                                                    ",
"                                                                                                    ",
"                                                                                                    ",
"                                                                                                    ",
"                                                                                                    ",
"                                                                                                    ",
"                                                                                                    ",
"                                                                                                    ",
"                                                                                                    ",
"                                                                                                    "
};
