/* XPM */
static char *result[] = {
/* columns rows colors chars-per-pixel */
"50 50 197 2 ",
"   c black",
".  c #010100",
"X  c #050500",
"o  c #090900",
"O  c #0C0C00",
"+  c #0D0D00",
"@  c #0A0A00",
"#  c #060600",
"$  c #020200",
"%  c #040400",
"&  c #1B1B00",
"*  c #353500",
"=  c #464600",
"-  c #4A4A00",
";  c #494900",
":  c #484800",
">  c #474700",
",  c #373700",
"<  c #1E1E00",
"1  c #3B3B00",
"2  c #737300",
"3  c #979700",
"4  c #A2A200",
"5  c #9F9F00",
"6  c #9C9C00",
"7  c #9A9A00",
"8  c #797900",
"9  c #434300",
"0  c #0F0F00",
"q  c #030300",
"w  c #212100",
"e  c #646400",
"r  c #B0B000",
"t  c #E2E200",
"y  c #F0F000",
"u  c #ECEC00",
"i  c #E8E800",
"p  c #EBEB00",
"a  c #E5E500",
"s  c #B8B800",
"d  c #6E6E00",
"f  c #282800",
"g  c #080800",
"h  c #343400",
"j  c #3F3F00",
"k  c #3C3C00",
"l  c #3D3D00",
"z  c #575700",
"x  c #929200",
"c  c #D4D400",
"v  c yellow",
"b  c #DBDB00",
"n  c #5D5D00",
"m  c #363600",
"M  c #131300",
"N  c #959500",
"B  c #989800",
"V  c #A3A300",
"C  c #C4C400",
"Z  c #EAEA00",
"A  c #EEEE00",
"S  c #C9C900",
"D  c #A6A600",
"F  c #969600",
"G  c #7E7E00",
"H  c #4D4D00",
"J  c #191900",
"K  c #2B2B00",
"L  c #727200",
"P  c #BABA00",
"I  c #E1E100",
"U  c #E3E300",
"Y  c #F8F800",
"T  c #F9F900",
"R  c #EFEF00",
"E  c #E6E600",
"W  c #C1C100",
"Q  c #7C7C00",
"!  c #333300",
"~  c #161600",
"^  c #2F2F00",
"/  c #5C5C00",
"(  c #DFDF00",
")  c #A8A800",
"_  c #636300",
"`  c #1C1C00",
"'  c #767600",
"]  c #CECE00",
"[  c #F2F200",
"{  c #F6F600",
"}  c #D3D300",
"|  c #2E2E00",
" . c #757500",
".. c #F5F500",
"X. c #FBFB00",
"o. c #FCFC00",
"O. c #8B8B00",
"+. c #313100",
"@. c #E0E000",
"#. c #0E0E00",
"$. c #242400",
"%. c #555500",
"&. c #9D9D00",
"*. c #FEFE00",
"=. c #F3F300",
"-. c #DEDE00",
";. c #E4E400",
":. c #F1F100",
">. c #FDFD00",
",. c #696900",
"<. c #949400",
"1. c #DCDC00",
"2. c #999900",
"3. c #ABAB00",
"4. c #D6D600",
"5. c #747400",
"6. c #B2B200",
"7. c #D8D800",
"8. c #EDED00",
"9. c #BBBB00",
"0. c #6C6C00",
"q. c #070700",
"w. c #939300",
"e. c #FAFA00",
"r. c #454500",
"t. c #888800",
"y. c #424200",
"u. c #9B9B00",
"i. c #E9E900",
"p. c #909000",
"a. c #5A5A00",
"s. c #232300",
"d. c #525200",
"f. c #8A8A00",
"g. c #B6B600",
"h. c #DDDD00",
"j. c #414100",
"k. c #F4F400",
"l. c #BEBE00",
"z. c #7B7B00",
"x. c #404000",
"c. c #D5D500",
"v. c #111100",
"b. c #5E5E00",
"n. c #262600",
"m. c #202000",
"M. c #565600",
"N. c #8E8E00",
"B. c #B9B900",
"V. c #222200",
"C. c #B3B300",
"Z. c #878700",
"A. c #CDCD00",
"S. c #1D1D00",
"D. c #919100",
"F. c #BDBD00",
"G. c #4C4C00",
"H. c #0B0B00",
"J. c #B1B100",
"K. c #D2D200",
"L. c #8C8C00",
"P. c #121200",
"I. c #393900",
"U. c #828200",
"Y. c #CBCB00",
"T. c #F7F700",
"R. c #C5C500",
"E. c #545400",
"W. c #B7B700",
"Q. c #505000",
"!. c #2A2A00",
"~. c #4B4B00",
"^. c #777700",
"/. c #3E3E00",
"(. c #D0D000",
"). c #141400",
"_. c #383800",
"`. c #C8C800",
"'. c #303000",
"]. c #707000",
"[. c #A9A900",
"{. c #CCCC00",
"}. c #C0C000",
"|. c #171700",
" X c #C7C700",
".X c #AEAE00",
"XX c #1A1A00",
"oX c #6D6D00",
"OX c #717100",
"+X c #6A6A00",
"@X c #2C2C00",
"#X c #515100",
"$X c #686800",
"%X c #606000",
"&X c #1F1F00",
"*X c #181800",
"=X c white",
/* pixels */
"                                                                                                    ",
"                                  . X o O + + + + + + + + + + + O @ # $                             ",
"                                  % & * = - ; : : : : : : : ; - > , < #                             ",
"                                  @ 1 2 3 4 5 6 6 6 6 6 6 6 5 4 7 8 9 0                             ",
"                      . % # #   q w e r t y u i i i i i i i p y a s d f X   X # % $                 ",
"                      g < h j k l z x c v v v v v v v v v v v v v b 7 n j 1 j m w @                 ",
"                      M = 8 N B N V C Z v v v v v v v v v v v v v A S D F 3 F G H J                 ",
"                    q K L P I i U a A Y v v v v v v v v v v v v v T R E U i U W Q ! #               ",
"              . o ~ ^ / 5 ( v v v v v v v v v v v v v v v v v v v v v v v v v E ) _ ! J @ $         ",
"              $ ` > ' 4 ] [ v v v v v v v v v v v v v v v v v v v v v v v v v { } ) Q H w %         ",
"              q |  .P U ..X.v v v v v v v v v v v v v v v v v v v v v v v v v o.{ E W G m #         ",
"              $ * O.b v v v v v v v v v v v v v v v v v v v v v v v v v v v v v v v U F j X         ",
"                +.O.@.v v v v v v v v v v v v v v v v v v v v v v v v v v v v v v v i 3 1           ",
"              . * O.b v v v v v v v v v v v v v v v v v v v v v v v v v v v v v v v U F j X         ",
"        . # #.$.%.&.( v v v v v v v v v v v v *.=.a -.;.:.>.v v v v v v v v v v v v E D n f 0 # $   ",
"        q & j ,.<.C p v v v v v v v v v v v v v 1.r 2.3.4.o.v v v v v v v v v v v v R S 7 d 9 < #   ",
"        # +.5.6.7.8.Y v v v v v v v v v v v v { 9.2 H 0.6.:.v v v v v v v v v v v v T A b s 8 , @   ",
"        q.j w.-.v v v v v v v v v v v v >.e.:.c x r.` k t.] A e.>.v v v v v v v v v v v v a 7 > O   ",
"        g y.u.i.v v v v v v v v v v v v o.I 9.p.a.s.o < d.f.g.h.e.v v v v v v v v v v v v y 4 - +   ",
"        q.j.B a v v v v v v v v v v v v k.l.z.r.w O % @ < j 2 g.A v v v v v v v v v v v v p 5 ; +   ",
"        q.x.N I v v v v v v v v v >.o.k.c.<.: v.    .     + j f.] :.o.>.v v v v v v v v v i 6 : +   ",
"        q.x.N I v v v v v v v v v e.I l.<.b.n.              m.M.N.B.h.Y v v v v v v v v v i 6 : +   ",
"        q.x.N I v v v v v v v v v :.9.z.: n.#.              O V.9 5.C.p v v v v v v v v v i 6 : +   ",
"        q.x.N I v v v v v v *.v { c p.r.v.    .                 + k Z.A.=.*.*.v v v v v v i 6 : +   ",
"        q.x.N I v v v v v v T t W 3 n s.                          S.%.D.F.-.{ v v v v v v i 6 : +   ",
"        q.x.N I v v v v v v A B.Q G.f #.                          H.$.>  .J.i v v v v v v i 6 : +   ",
"        q.x.N I v v v v v Y K.L.j.P.$ .                           . . 0 I.U.Y...v v v v v i 6 : +   ",
"        q.j.B E v v v T.U R.7 / m.                                      J E.w.W @...v v v u 5 ; +   ",
"        g y.u.i.v v v p W.G Q.!.+                                       @ n.~.^.r a v v v y 4 - +   ",
"        q./.D.b v v T (.t.j ).% $                                       $ q v._.G `...v v I B = O   ",
"        X '.].[.R.{.}.6 / S.                                                  |.E.N F.{. X.X .m o   ",
"        q XX/.n oXOX+X%.+.+                                                   o @X#X$XOXd %Xj.< X   ",
"        . q.v.XX&Xm.< *X#.X                                                   % + |.S.m.&X& P.g .   ",
"                                                                                                    ",
"                                                                                                    ",
"                                                                                                    ",
"                                                                                                    ",
"                                                                                                    ",
"                                                                                                    ",
"                                                                                                    ",
"                                                                                                    ",
"                                                                                                    ",
"                                                                                                    ",
"                                                                                                    ",
"                                                                                                    ",
"                                                                                                    ",
"                                                                                                    ",
"                                                                                                    ",
"                                                                                                    ",
"                                                                                                    "
};
