/* XPM */
static char *result[] = {
/* columns rows colors chars-per-pixel */
"50 50 212 2 ",
"   c black",
".  c #010100",
"X  c #020200",
"o  c #030300",
"O  c #040400",
"+  c #0E0E00",
"@  c #202000",
"#  c #303000",
"$  c #383800",
"%  c #3A3A00",
"&  c #373700",
"*  c #2C2C00",
"=  c #1A1A00",
"-  c #070700",
";  c #050500",
":  c #171700",
">  c #2A2A00",
",  c #363600",
"<  c #393900",
"1  c #323200",
"2  c #212100",
"3  c #0F0F00",
"4  c #232300",
"5  c #515100",
"6  c #7A7A00",
"7  c #8F8F00",
"8  c #949400",
"9  c #8B8B00",
"0  c #707000",
"q  c #404000",
"w  c #111100",
"e  c #0C0C00",
"r  c #6B6B00",
"t  c #898900",
"y  c #909000",
"u  c #7E7E00",
"i  c #555500",
"p  c #272700",
"a  c #060600",
"s  c #808000",
"d  c #C0C000",
"f  c #E0E000",
"g  c #E9E900",
"h  c #DBDB00",
"j  c #B3B300",
"k  c #6D6D00",
"l  c #646400",
"z  c #ABAB00",
"x  c #D7D700",
"c  c #E8E800",
"v  c #E3E300",
"b  c #C6C600",
"n  c #858500",
"m  c #3D3D00",
"M  c #0B0B00",
"N  c #414100",
"B  c #979700",
"V  c yellow",
"C  c #DCDC00",
"Z  c #999900",
"A  c #545400",
"S  c #101000",
"D  c #4D4D00",
"F  c #D5D500",
"G  c #EAEA00",
"H  c #9E9E00",
"J  c #484800",
"K  c #0D0D00",
"L  c #080800",
"P  c #424200",
"I  c #9B9B00",
"U  c #F1F100",
"Y  c #C8C800",
"T  c #6C6C00",
"R  c #3C3C00",
"E  c #121200",
"W  c #666600",
"Q  c #939300",
"!  c #C3C300",
"~  c #ECEC00",
"^  c #F0F000",
"/  c #A2A200",
"(  c #4A4A00",
")  c #FAFA00",
"_  c #B2B200",
"`  c #6F6F00",
"'  c #D8D800",
"]  c #EFEF00",
"[  c #9D9D00",
"{  c #959500",
"}  c #E1E100",
"|  c #DFDF00",
" . c #242400",
".. c #9C9C00",
"X. c #F3F300",
"o. c #C9C900",
"O. c #969600",
"+. c #686800",
"@. c #3B3B00",
"#. c #141400",
"$. c #626200",
"%. c #FBFB00",
"&. c #D9D900",
"*. c #B1B100",
"=. c #717100",
"-. c #2E2E00",
";. c #262600",
":. c #696900",
">. c #EDED00",
",. c #E2E200",
"<. c #A1A100",
"1. c #565600",
"2. c #090900",
"3. c #1D1D00",
"4. c #4E4E00",
"5. c #FEFE00",
"6. c #F6F600",
"7. c #CACA00",
"8. c #161600",
"9. c #353500",
"0. c #5E5E00",
"q. c #8E8E00",
"w. c #C4C400",
"e. c #F2F200",
"r. c #FCFC00",
"t. c #AFAF00",
"y. c #737300",
"u. c #313100",
"i. c #A9A900",
"p. c #D1D100",
"a. c #EBEB00",
"s. c #E4E400",
"d. c #A5A500",
"f. c #595900",
"g. c #1B1B00",
"h. c #505000",
"j. c #DEDE00",
"k. c #FDFD00",
"l. c #9A9A00",
"z. c #E7E700",
"x. c #F9F900",
"c. c #CCCC00",
"v. c #606000",
"b. c #131300",
"n. c #5A5A00",
"m. c #8C8C00",
"M. c #C5C500",
"N. c #F4F400",
"B. c #EEEE00",
"V. c #D2D200",
"C. c #ACAC00",
"Z. c #2F2F00",
"A. c #282800",
"S. c #676700",
"D. c #A6A600",
"F. c #CECE00",
"G. c #D3D300",
"H. c #E5E500",
"J. c #A3A300",
"K. c #4B4B00",
"L. c #F8F800",
"P. c #919100",
"I. c #434300",
"U. c #616100",
"Y. c #989800",
"T. c #838300",
"R. c #F7F700",
"E. c #2B2B00",
"W. c #B4B400",
"Q. c #E6E600",
"!. c #B5B500",
"~. c #C2C200",
"^. c #BBBB00",
"/. c #818100",
"(. c #444400",
"). c #8A8A00",
"_. c #DDDD00",
"`. c #333300",
"'. c #868600",
"]. c #3E3E00",
"[. c #656500",
"{. c #CDCD00",
"}. c #AAAA00",
"|. c #6E6E00",
" X c #151500",
".X c #343400",
"XX c #878700",
"oX c #BDBD00",
"OX c #8D8D00",
"+X c #5F5F00",
"@X c #181800",
"#X c #464600",
"$X c #D4D400",
"%X c #A4A400",
"&X c #CFCF00",
"*X c #747400",
"=X c #B8B800",
"-X c #1E1E00",
";X c #222200",
":X c #3F3F00",
">X c #7F7F00",
",X c #D0D000",
"<X c #454500",
"1X c #1F1F00",
"2X c #CBCB00",
"3X c #D6D600",
"4X c #5D5D00",
"5X c #7C7C00",
"6X c #848400",
"7X c #828200",
"8X c #2D2D00",
"9X c white",
/* pixels */
"                                                                                                    ",
"                                                                                                    ",
"                                                                                                    ",
"                                                                                                    ",
"                                                                                                    ",
"                                                                                                    ",
"                                                                                                    ",
"          . X o O O o o X .                                                   . X o o O O o X .     ",
"        X + @ # $ % & * = -                                                   ; : > , % < 1 2 3 o   ",
"        O 4 5 6 7 8 9 0 q w                                                   e % r t 8 y u i p -   ",
"        a & s d f g h j k p                                                   @ l z x c v b n m M   ",
"        - N B v V V V C Z A p S ;                                       ; + 4 D y F V V V G H J K   ",
"        L P I g V V V U Y Z T R E                                       + , W Q ! ~ V V V ^ / ( K   ",
"        - q B v V V V ) U C _ ` > .                                     4 W z ' ] ) V V V G [ J K   ",
"        - q { } V V V V V V | [ A  .K ;                           O e @ D Q ' V V V V V V c ..J K   ",
"        - q { } V V V V V V X.o.O.+.@.#.                          S , $.y ! ] V V V V V V c ..J K   ",
"        - q { } V V V V V V %.] &.*.=.-.X                         ;.:.z F >.) V V V V V V c ..J K   ",
"        - q { } V V V V V V V V V ,.<.1.2 M O .             o 2.3.4.B h 5.V V V V V V V V c ..J K   ",
"        - q { } V V V V V V V V V 6.7.8 l % 8.              E 9.0.q.w.e.V V V V V V V V V c ..J K   ",
"        - q { } V V V V V V V V V r.>.F t.y.u.o             > r i.p.a.) V V V V V V V V V c ..J K   ",
"        - q O.,.V V V V V V V V V V V V s.d.f.@ - . X . a g.h.I j.k.V V V V V V V V V V V c ..J K   ",
"        - P l.z.V V V V V V V V V V V V x.c.Q v.9.b.; S # n.m.M.N.V V V V V V V V V V V V B.<.( K   ",
"        - P l.c V V V V V V V V V V V V k.~ V.C.0 Z.K A.S.D.F.g %.V V V V V V V V V V V V ] <.( K   ",
"        - @.9 G.6.V 5.V V V V V V V V V 5.V k.H.J.A > K.Z | r.V 5.V V V V V V V V V 5.V L.&.P.I.e   ",
"        ; > U.Y.d j.N.V V V V V V V V V V V V %.Y t +.T.d R.V V V V V V V V V V V V 6.} w.H W -.L   ",
"        X E E.D 6 W.Q.V V V V V V V V V V V V V H.b !.~.} k.V V V V V V V V V V V V a.^./.5 -.#.O   ",
"            . E (.Q C V V V V V V V V V V V V 5.x.X.^ X.L.5.V V V V V V V V V V V V v [ D 8.X   .   ",
"                u.)._.V V V V V V V V V V V V V V V V V V V V V V V V V V V V V V V H.{ @..         ",
"                `.m.f V V V V V V V V V V V V V V V V V V V V V V V V V V V V V V V c Y.m .         ",
"              o 9.'.G.%.V V V V V V V V V V V V V V V V V V V V V V V V V V V V V 5.h P.].-         ",
"              o A.[.J.{.c L.V V V V V V V V V V V V V V V V V V V V V V V V V ) G p.}.|.Z.;         ",
"              .  X.Xn.XXoX>.V V V V V V V V V V V V V V V V V V V V V V V V V e.! OX+X$ @Xo         ",
"                O L = #Xq.$X%.V 5.r.k.5.V V V V V V V V V V V V V 5.k.r.k.V 5.h B 4.3.2.O .         ",
"                      @ $.%XY F.7.&Xf N.V V V V V V V V V V V V V 6.v p.7.F.7.}.r p                 ",
"                      + , 0.*X*Xy.'._ v V V V V V V V V V V V V V g =X).*X*X*X$.@.E                 ",
"                      a E -X .@ ;X:X>XY x.V V V V V V V V V V V r.,Xt <X .1X .@ #.-                 ",
"                                  8.i ..2X&.3Xp.p.p.p.p.p.p.F &.&X%X0.3.                            ",
"                                  - # 4X5X6X7Xs s s s s s s 7X6Xu $.9.M                             ",
"                                  o E ;X* Z.Z.-.-.-.-.-.-.-.-.Z.8X4 #.;                             ",
"                                                                                                    ",
"                                                                                                    ",
"                                                                                                    ",
"                                                                                                    ",
"                                                                                                    ",
"                                                                                                    ",
"                                                                                                    ",
"                                                                                                    ",
"                                                                                                    ",
"                                                                                                    ",
"                                                                                                    "
};
