/* XPM */
static char *result[] = {
/* columns rows colors chars-per-pixel */
"50 50 195 2 ",
"   c black",
".  c #010100",
"X  c #060600",
"o  c #0C0C00",
"O  c #101000",
"+  c #111100",
"@  c #0D0D00",
"#  c #070700",
"$  c #020200",
"%  c #1C1C00",
"&  c #3A3A00",
"*  c #505000",
"=  c #575700",
"-  c #565600",
";  c #545400",
":  c #525200",
">  c #3E3E00",
",  c #1F1F00",
"<  c #050500",
"1  c #080800",
"2  c #777700",
"3  c #A3A300",
"4  c #B1B100",
"5  c #AFAF00",
"6  c #ABAB00",
"7  c #AEAE00",
"8  c #A6A600",
"9  c #7E7E00",
"0  c #424200",
"q  c #090900",
"w  c #0B0B00",
"e  c #202000",
"r  c #606000",
"t  c #ADAD00",
"y  c #E4E400",
"u  c #F6F600",
"i  c #F3F300",
"p  c #EEEE00",
"a  c #E8E800",
"s  c #B5B500",
"d  c #696900",
"f  c #262600",
"g  c #0A0A00",
"h  c #393900",
"j  c #484800",
"k  c #474700",
"l  c #464600",
"z  c #5B5B00",
"x  c #909000",
"c  c #D0D000",
"v  c #FEFE00",
"b  c yellow",
"n  c #D7D700",
"m  c #989800",
"M  c #494900",
"N  c #3C3C00",
"B  c #222200",
"V  c #444400",
"C  c #7C7C00",
"Z  c #9E9E00",
"A  c #A0A000",
"S  c #A9A900",
"D  c #C6C600",
"F  c #ECEC00",
"G  c #CACA00",
"H  c #ACAC00",
"J  c #828200",
"K  c #4C4C00",
"L  c #151500",
"P  c #040400",
"I  c #282800",
"U  c #6E6E00",
"Y  c #B8B800",
"T  c #E5E500",
"R  c #F0F000",
"E  c #EBEB00",
"W  c #EAEA00",
"Q  c #F1F100",
"!  c #F9F900",
"~  c #F2F200",
"^  c #EFEF00",
"/  c #C0C000",
"(  c #787800",
")  c #2F2F00",
"_  c #242400",
"`  c #383800",
"'  c #414100",
"]  c #404000",
"[  c #5D5D00",
"{  c #9A9A00",
"}  c #DBDB00",
"|  c #E2E200",
" . c #636300",
".. c #0F0F00",
"X. c #1E1E00",
"o. c #838300",
"O. c #9B9B00",
"+. c #969600",
"@. c #959500",
"#. c #929200",
"$. c #949400",
"%. c #C9C900",
"&. c #CECE00",
"*. c #AAAA00",
"=. c #919100",
"-. c #999900",
";. c #878700",
":. c #585800",
">. c #232300",
",. c #3B3B00",
"<. c #868600",
"1. c #C7C700",
"2. c #E9E900",
"3. c #E3E300",
"4. c #E1E100",
"5. c #E0E000",
"6. c #E6E600",
"7. c #FAFA00",
"8. c #E7E700",
"9. c #CDCD00",
"0. c #8B8B00",
"q. c #0E0E00",
"w. c #030300",
"e. c #B2B200",
"r. c #727200",
"t. c #434300",
"y. c #272700",
"u. c #8A8A00",
"i. c #B4B400",
"p. c #DCDC00",
"a. c #FDFD00",
"s. c #DADA00",
"d. c #8E8E00",
"f. c #848400",
"g. c #F7F700",
"h. c #D8D800",
"j. c #808000",
"k. c #C2C200",
"l. c #F5F500",
"z. c #DEDE00",
"x. c #D6D600",
"c. c #D2D200",
"v. c #4F4F00",
"b. c #A8A800",
"n. c #8F8F00",
"m. c #FBFB00",
"M. c #FCFC00",
"N. c #161600",
"B. c #313100",
"V. c #666600",
"C. c #B7B700",
"Z. c #6C6C00",
"A. c #454500",
"S. c #656500",
"D. c #B0B000",
"F. c #6B6B00",
"G. c #252500",
"H. c #373700",
"J. c #DDDD00",
"K. c #DFDF00",
"L. c #EDED00",
"P. c #F8F800",
"I. c #8C8C00",
"U. c #191900",
"Y. c #858500",
"T. c #3D3D00",
"R. c #4D4D00",
"E. c #797900",
"W. c #A1A100",
"Q. c #B3B300",
"!. c #1B1B00",
"~. c #4B4B00",
"^. c #818100",
"/. c #A5A500",
"(. c #8D8D00",
"). c #7D7D00",
"_. c #515100",
"`. c #303000",
"'. c #353500",
"]. c #9D9D00",
"[. c #B9B900",
"{. c #747400",
"}. c #181800",
"|. c #626200",
" X c #2B2B00",
".X c #BABA00",
"XX c #C1C100",
"oX c #333300",
"OX c #131300",
"+X c #979700",
"@X c #5A5A00",
"#X c #343400",
"$X c #363600",
"%X c #212100",
"&X c white",
/* pixels */
"                                                                                                    ",
"                                                                                                    ",
"                                                                                                    ",
"                                                                                                    ",
"                                                                                                    ",
"                                                                                                    ",
"                                                                                                    ",
"                                                                                                    ",
"                                                                                                    ",
"                                                                                                    ",
"                                                                                                    ",
"                                                                                                    ",
"                                                                                                    ",
"                                                                                                    ",
"                                                                                                    ",
"                                                                                                    ",
"                                                                                                    ",
"                                                                                                    ",
"                                                                                                    ",
"                                                                                                    ",
"                                                                                                    ",
"                                                                                                    ",
"                                                                                                    ",
"                                        . X o O + + + + + O @ # $                                   ",
"                                        $ % & * = - ; - = : > , <                                   ",
"                                        1 & 2 3 4 5 6 7 4 8 9 0 o                                   ",
"                            $ < q w < X e r t y u i p i u a s d f 1 < g g X $                       ",
"                            # , h j k l z x c v b b b b b b n m r k k M N B q                       ",
"                            O V C Z 3 A S D a b b b b b b b F G H A 3 A J K L                       ",
"          $ P X # # # <   < I U Y T R E W Q ! v b b b b b b ! ~ E W ^ a / ( ) #   < # # # # P $     ",
"          @ _ ` ' 0 ] > h > [ { } b b b b b b b b b b b b b b b b b b b | 3  .] h > ] 0 0 & f ..    ",
"          X.; o.m O.+.@.#.$.8 %.p b b b b b b b b b b b b b b b b b b b ~ &.*.+.=.$.+.{ -.;.:.>.    ",
"        q ,.<.1.T 2.3.4.5.4.6.^ ! b b b b b b b b b b b b b b b b b b b 7.Q 8.4.5.4.| a 8.9.0.0 q.  ",
"  w.o % & U e.F b b b b b b b b b b b b b b b b b b b b b b b b b b b b b b b b b b b b b Q s r.t.) ",
"  # y.- u.i.p.7.b b b b b b b b b b b b b b b b b b b b b b b b b b b b b b b b b b b b b a.s.i.-.d.",
"  w N f.1.2.g.a.b b b b b b b b b b b b b b b b b b b b b b b b b b b b b b b b b b b b b a.Q y } h.",
"  g ,.j.k.T l.a.b b b b b b b b b b b b b b b v R 5.n z.p a.b b b b b b b b b b b b b b b a.R 4.x.c.",
"  # _ v.j.H n ! b b b b b b b b b b b b b b b v h.b.n.3 c.m.b b b b b b b b b b b b b b b M.x.H n.J ",
"  $ q N.B.V.H 2.b b b b b b b b b b b b b b b i C.Z.A.S.t p b b b b b b b b b b b b b b b p D.F.& G.",
"        X H.j./ J.K.} 4.L.! b b b b b b a.P.E 9.I.] U.` J 1.2.g.a.b b b b b b m.^ | } K.K.D Y.T.w   ",
"          % R.E.I.0.0.W.%.Q b b b b b b M.J.Q.<.: e # !.~.^.7 h.! b b b b b b l.&./.(.u.I.)._.e     ",
"          w , `.'.B.H.z ].K.b b b b b b Q [.{.N !.q w.1 }.H.F.4 F b b b b b b 6.8 |.h B.'.B.e @     ",
"          . $ w..   P  Xr..X4.2.y | a 8.9.n.V @           q ,.<.1.T 2.3.3.2.3.XXC oXX     w.$ .     ",
"                      OXl E.@.O.+X+.{ -.;.@X_               X.; o.m O.+.+XO.+X9 R.U.                ",
"                      1 X.#X] 0 ' ] 0 0 & y.O               @ _ ` ' 0 ] ' 0 ' $X%Xw                 ",
"                      . P X # 1 # # # # # < $               $ P X # # # # 1 # X P $                 ",
"                                                                                                    ",
"                                                                                                    ",
"                                                                                                    ",
"                                                                                                    "
};
