/* XPM */
static char *result[] = {
/* columns rows colors chars-per-pixel */
"50 50 162 2 ",
"   c black",
".  c #010100",
"X  c #060600",
"o  c #0C0C00",
"O  c #0F0F00",
"+  c #070700",
"@  c #020200",
"#  c #1E1E00",
"$  c #3B3B00",
"%  c #4B4B00",
"&  c #3E3E00",
"*  c #212100",
"=  c #080800",
"-  c #0B0B00",
";  c #3C3C00",
":  c #787800",
">  c #989800",
",  c #7F7F00",
"<  c #444400",
"1  c #101000",
"2  c #545400",
"3  c #A8A800",
"4  c #D4D400",
"5  c #B0B000",
"6  c #5F5F00",
"7  c #161600",
"8  c #0D0D00",
"9  c #595900",
"0  c #B7B700",
"q  c #E9E900",
"w  c #C1C100",
"e  c #656500",
"r  c #131300",
"t  c #090900",
"y  c #565600",
"u  c #B5B500",
"i  c #E8E800",
"p  c #BFBF00",
"a  c #626200",
"s  c #171700",
"d  c #B6B600",
"f  c #E4E400",
"g  c #6A6A00",
"h  c #282800",
"j  c #4A4A00",
"k  c #868600",
"l  c #C8C800",
"z  c #EAEA00",
"x  c #CFCF00",
"c  c #8E8E00",
"v  c #4F4F00",
"b  c #2B2B00",
"n  c #151500",
"m  c #353500",
"M  c #676700",
"N  c #969600",
"B  c #C0C000",
"V  c #E3E300",
"C  c #F3F300",
"Z  c #E7E700",
"A  c #C5C500",
"S  c #9B9B00",
"D  c #6D6D00",
"F  c #111100",
"G  c #141400",
"H  c #535300",
"J  c #9F9F00",
"K  c #D9D900",
"L  c #FBFB00",
"P  c #FCFC00",
"I  c #F5F500",
"U  c #DEDE00",
"Y  c #5C5C00",
"T  c #1A1A00",
"R  c #616100",
"E  c #B9B900",
"W  c #F7F700",
"Q  c yellow",
"!  c #C3C300",
"~  c #6C6C00",
"^  c #181800",
"/  c #BBBB00",
"(  c #C6C600",
")  c #1F1F00",
"_  c #F9F900",
"`  c #5D5D00",
"'  c #B4B400",
"]  c #F8F800",
"[  c #BEBE00",
"{  c #686800",
"}  c #1C1C00",
"|  c #B2B200",
" . c #BDBD00",
".. c #646400",
"X. c #040400",
"o. c #0A0A00",
"O. c #393900",
"+. c #C9C900",
"@. c #828200",
"#. c #3F3F00",
"$. c #0E0E00",
"%. c #303000",
"&. c #5A5A00",
"*. c #858500",
"=. c #B1B100",
"-. c #DBDB00",
";. c #FAFA00",
":. c #E0E000",
">. c #8A8A00",
",. c #606000",
"<. c #121200",
"1. c #CCCC00",
"2. c #F4F400",
"3. c #FDFD00",
"4. c #FEFE00",
"5. c #F6F600",
"6. c #D0D000",
"7. c #A0A000",
"8. c #5B5B00",
"9. c #A5A500",
"0. c #EBEB00",
"q. c #E5E500",
"w. c #DFDF00",
"e. c #AEAE00",
"r. c #202000",
"t. c #747400",
"y. c #A4A400",
"u. c #CECE00",
"i. c #EFEF00",
"p. c #E2E200",
"a. c #A2A200",
"s. c #DDDD00",
"d. c #F2F200",
"f. c #D3D300",
"g. c #A9A900",
"h. c #7B7B00",
"j. c #454500",
"k. c #2E2E00",
"l. c #939300",
"z. c #D5D500",
"x. c #777700",
"c. c #EEEE00",
"v. c #9C9C00",
"b. c #323200",
"n. c #191900",
"m. c #1B1B00",
"M. c #464600",
"N. c #CDCD00",
"B. c #6B6B00",
"V. c #222200",
"C. c #717100",
"Z. c #2C2C00",
"A. c #252500",
"S. c #888800",
"D. c #404000",
"F. c #343400",
"G. c #2F2F00",
"H. c #363600",
"J. c #1D1D00",
"K. c #050500",
"L. c #030300",
"P. c white",
/* pixels */
"                                                                                                    ",
"                                                                                                    ",
"                                                                                                    ",
"                                                                                                    ",
"                                                                                                    ",
"                                                                                                    ",
"                                                                                                    ",
"                                                                                                    ",
"                                                                                                    ",
"                                                                                                    ",
"                                                                                                    ",
"                                                                                                    ",
"                                                                                                    ",
"                                                                                                    ",
"                                                                                                    ",
"                                                                                                    ",
"                                                                                                    ",
"                                                                                                    ",
"                                                                                                    ",
"                                                                                                    ",
"                                                                                                    ",
"                                                                                                    ",
"                                                                                                    ",
"                                              . X o O o + @                                         ",
"                                              X # $ % & * =                                         ",
"                                              - ; : > , < 1                                         ",
"                                              1 2 3 4 5 6 7                                         ",
"                                              8 9 0 q w e r                                         ",
"                                              t y u i p a 1                                         ",
"                                              s 6 d f p g #                                         ",
"                                        X r h j k l z x c v b n +                                   ",
"                                        8 m M N B V C Z A S D $ F                                   ",
"                                        G H J K C L P P I U 3 Y T                                   ",
"                                        s R E W Q Q Q Q Q P ! ~ #                                   ",
"                                        ^ a / L Q Q Q Q Q Q ( D )                                   ",
"                                        s 6 d I Q Q Q Q Q _ B g #                                   ",
"                                        n ` ' C Q Q Q Q Q ] [ { }                                   ",
"                                        O 9 | C Q Q Q Q Q W  ...7                                   ",
"                                        n ` ' C Q Q Q Q Q ] [ { }                                   ",
"                                  X.o.^ O.: w I Q Q Q Q Q _ +.@.#.T - X.                            ",
"                                  $.%.&.*.=.-.;.Q Q Q Q Q P :.0 >.,.m <.                            ",
"                                  ^ H > 1.Z 2.3.Q Q Q Q Q 4.5.q 6.7.Y #                             ",
"                                  T 8.9.-.C L P 5.0.q.z I P L I w.e...r.                            ",
"                                  <.#.t.y.u.i.;.p.E a.u s._ d.f.g.h.j.s                             ",
"                                  + 7 k.2 l.z.i.( , y x.[ c.-.v.&.b.n.t                             ",
"                                        m.R e.x 7.v r.M.N N.u B.V.@                                 ",
"                                        X O.C.>.M Z.o.A.,.S.x.D.-                                   ",
"                                        @ n.F.#.G.G X.F Z.#.H.J.X.                                  ",
"                                        . K.t - t X.. L.= - o.X .                                   ",
"                                                                                                    "
};
