/* XPM */
static char *result[] = {
/* columns rows colors chars-per-pixel */
"50 50 196 2 ",
"   c black",
".  c #010100",
"X  c #040400",
"o  c #060600",
"O  c #070700",
"+  c #080800",
"@  c #020200",
"#  c #1E1E00",
"$  c #343400",
"%  c #404000",
"&  c #444400",
"*  c #424200",
"=  c #383800",
"-  c #252500",
";  c #101000",
":  c #0E0E00",
">  c #232300",
",  c #373700",
"<  c #414100",
"1  c #454500",
"2  c #363600",
"3  c #212100",
"4  c #0A0A00",
"5  c #131300",
"6  c #464600",
"7  c #797900",
"8  c #969600",
"9  c #A0A000",
"0  c #9A9A00",
"q  c #848400",
"w  c #585800",
"e  c #202000",
"r  c #515100",
"t  c #808000",
"y  c #989800",
"u  c #7E7E00",
"i  c #4D4D00",
"p  c #191900",
"a  c #030300",
"s  c #2B2B00",
"d  c #727200",
"f  c #BABA00",
"g  c #E2E200",
"h  c #F1F100",
"j  c #E8E800",
"k  c #C7C700",
"l  c #303000",
"z  c #7A7A00",
"x  c #C0C000",
"c  c #E5E500",
"v  c #C1C100",
"b  c #7C7C00",
"n  c #333300",
"m  c #090900",
"M  c #161600",
"N  c #2F2F00",
"B  c #5C5C00",
"V  c #9F9F00",
"C  c #DFDF00",
"Z  c yellow",
"A  c #979700",
"S  c #3F3F00",
"D  c #050500",
"F  c #353500",
"G  c #8C8C00",
"H  c #DDDD00",
"J  c #E6E600",
"K  c #A8A800",
"L  c #636300",
"P  c #1C1C00",
"I  c #474700",
"U  c #767600",
"Y  c #A2A200",
"T  c #CECE00",
"R  c #F2F200",
"E  c #3B3B00",
"W  c #313100",
"Q  c #8B8B00",
"!  c #F6F600",
"~  c #D3D300",
"^  c #2E2E00",
"/  c #757500",
"(  c #E3E300",
")  c #F5F500",
"_  c #FBFB00",
"`  c #DBDB00",
"'  c #FCFC00",
"]  c #E7E700",
"[  c #AAAA00",
"{  c #151500",
"}  c #5B5B00",
"|  c #A1A100",
" . c #E1E100",
".. c #E0E000",
"X. c #A3A300",
"o. c #787800",
"O. c #4C4C00",
"+. c #222200",
"@. c #9D9D00",
"#. c #C9C900",
"$. c #EDED00",
"%. c #FAFA00",
"&. c #828200",
"*. c #3C3C00",
"=. c #F9F900",
"-. c #242400",
";. c #555500",
":. c #4A4A00",
">. c #0C0C00",
",. c #959500",
"<. c #A6A600",
"1. c #5D5D00",
"2. c #282800",
"3. c #0F0F00",
"4. c #1B1B00",
"5. c #696900",
"6. c #949400",
"7. c #C4C400",
"8. c #EBEB00",
"9. c #F0F000",
"0. c #9B9B00",
"q. c #E9E900",
"w. c #EFEF00",
"e. c #6E6E00",
"r. c #434300",
"t. c #747400",
"y. c #B2B200",
"u. c #D8D800",
"i. c #F8F800",
"p. c #4B4B00",
"a. c #E4E400",
"s. c #EEEE00",
"d. c #B8B800",
"f. c #939300",
"g. c #DEDE00",
"h. c #494900",
"j. c #0B0B00",
"k. c #3A3A00",
"l. c #929200",
"z. c #0D0D00",
"x. c #9E9E00",
"c. c #EAEA00",
"v. c #A9A900",
"b. c #525200",
"n. c #9C9C00",
"m. c #484800",
"M. c #C6C600",
"N. c #909000",
"B. c #606000",
"V. c #181800",
"C. c #898900",
"Z. c #D0D000",
"A. c #ADAD00",
"S. c #737300",
"D. c #141400",
"F. c #6A6A00",
"G. c #A7A700",
"H. c #CCCC00",
"J. c #F7F700",
"K. c #FEFE00",
"L. c #ABAB00",
"P. c #4E4E00",
"I. c #1D1D00",
"U. c #F3F300",
"Y. c #A5A500",
"T. c #999900",
"R. c #ECEC00",
"E. c #3E3E00",
"W. c #919100",
"Q. c #BCBC00",
"!. c #B3B300",
"~. c #D4D400",
"^. c #B0B000",
"/. c #5F5F00",
"(. c #BEBE00",
"). c #DADA00",
"_. c #B5B500",
"`. c #B1B100",
"'. c #D5D500",
"]. c #646400",
"[. c #FDFD00",
"{. c #575700",
"}. c #8A8A00",
"|. c #DCDC00",
" X c #3D3D00",
".X c #323200",
"XX c #D9D900",
"oX c #2C2C00",
"OX c #707000",
"+X c #1A1A00",
"@X c #6D6D00",
"#X c #C8C800",
"$X c #111100",
"%X c #272700",
"&X c #545400",
"*X c white",
/* pixels */
"                                                                                                    ",
"                                                                                                    ",
"                                                                                                    ",
"                                                                                                    ",
"                      . X o O + O o X @                           @ X o O + O o X @                 ",
"                      + # $ % & * = - ; @                       . : > , < 1 < 2 3 4                 ",
"                      5 6 7 8 9 0 q w - X                       @ e r t y 9 y u i p                 ",
"                    a s d f g h j k q = o                       a l z x c h c v b n o               ",
"              . m M N B V C Z Z Z c A S D                       . F G H Z Z Z J K L n p 4 @         ",
"              @ P I U Y T R Z Z Z j 8 E                           W Q C Z Z Z ! ~ K b i 3 X         ",
"              a ^ / f ( ) _ Z Z Z ( 8 % O                       X , Q ` Z Z Z ' ! J v u 2 o         ",
"              @ F Q ` Z Z Z Z Z Z ] [ L N { m @           . + 5 s } |  .Z Z Z Z Z Z ( 8 S D         ",
"                W Q ..Z Z Z Z Z Z h T X.o.O.+.o           X # 6 d @.#.$.Z Z Z Z Z Z j A E           ",
"              . F Q ` Z Z Z Z Z Z %.R g x &.*.4           o $ 7 f C h =.Z Z Z Z Z Z ( 8 S D         ",
"        . o : -.;.@.C Z Z Z Z Z Z Z Z Z j 9 :.>.          O % ,. .Z Z Z Z Z Z Z Z Z J <.1.2.3.o @   ",
"        a 4.S 5.6.7.8.Z Z Z Z Z Z Z Z Z 9.<.i >.          + * 0.q.Z Z Z Z Z Z Z Z Z w.#.0 e.r.# o   ",
"        o W t.y.u.$.i.Z Z Z Z Z Z Z Z Z 8.Y p.>.          O < A a.Z Z Z Z Z Z Z Z Z =.s.` d.7 , 4   ",
"        O S f.g.Z Z Z Z Z Z Z Z Z Z Z Z j 9 h.j.          O S ,. .Z Z Z Z Z Z Z Z Z Z Z Z c 0 I >.  ",
"        + * 0.q.Z Z Z Z Z Z Z Z Z Z Z Z ] @.& D           . k.l...Z Z Z Z Z Z Z Z Z Z Z Z 9.Y :.z.  ",
"        O < y c Z Z Z Z Z Z Z Z Z Z Z Z j x.1 o           @ E f. .Z Z Z Z Z Z Z Z Z Z Z Z 8.V h.z.  ",
"        O % ,. .Z Z Z Z Z Z Z Z Z Z Z Z c.v.} e O . a . o 4.b.9 a.Z Z Z Z Z Z Z Z Z Z Z Z j n.m.z.  ",
"        O % ,. .Z Z Z Z Z Z Z Z Z Z Z Z h M.N.B.= V.j.{ n } C.x $.Z Z Z Z Z Z Z Z Z Z Z Z j n.m.z.  ",
"        O % ,. .Z Z Z Z Z Z Z Z Z Z Z Z =.j Z.A.S.$ D.^ F.G.H.J J.Z Z Z Z Z Z Z Z Z Z Z Z j n.m.z.  ",
"        O % ,. .Z Z Z Z Z Z Z Z Z Z Z Z K.Z K.a.@.m.4.S l.g.' Z K.Z Z Z Z Z Z Z Z Z Z Z Z j n.m.z.  ",
"        O % ,. .Z Z Z Z Z Z Z Z Z Z Z Z Z Z Z ! L.P.I.1 V w.Z Z Z Z Z Z Z Z Z Z Z Z Z Z Z j n.m.z.  ",
"        O % ,. .Z Z Z Z Z Z Z Z Z Z Z Z Z Z Z U.v.i I.& @.$.Z Z Z Z Z Z Z Z Z Z Z Z Z Z Z j n.m.z.  ",
"        O % ,. .Z Z Z Z Z Z Z Z Z Z Z Z Z Z Z s.Y.O.I.* T.j Z Z Z Z Z Z Z Z Z Z Z Z Z Z Z j n.m.z.  ",
"        O < T.J Z Z Z Z Z Z Z Z Z Z Z Z Z Z Z s.X.m.V.S A ] Z Z Z Z Z Z Z Z Z Z Z Z Z Z Z R.V h.z.  ",
"        + * 0.q.Z Z Z Z Z Z Z Z Z Z Z Z Z Z Z s.Y 1 { *.8 ] Z Z Z Z Z Z Z Z Z Z Z Z Z Z Z 9.Y :.z.  ",
"        O E.W.` K.Z Z Z Z Z Z Z Z Z Z Z Z Z Z w.K r > m.n.q.Z Z Z Z Z Z Z Z Z Z Z Z Z Z Z g A 6 >.  ",
"        D N e.[ Z.j J.Z Z Z Z Z Z Z Z Z Z Z Z R Q.7 ;.d !.s.Z Z Z Z Z Z Z Z Z Z Z Z i.c.~.^.S.F m   ",
"        a V.= /.Q (.c.Z Z Z Z Z Z Z Z Z Z Z Z i.)._.| `.'.) Z Z Z Z Z Z Z Z Z Z Z Z s.7.l.].E 4.D   ",
"        . X m I.P.T.g.Z Z Z Z Z Z Z Z Z Z Z Z [.) c.c q.U.' Z Z Z Z Z Z Z Z Z Z Z Z c X.{.3 4 X .   ",
"                n }.|.Z Z Z Z Z Z Z Z Z Z Z Z Z Z Z Z Z Z Z Z Z Z Z Z Z Z Z Z Z Z Z ( ,. Xa         ",
"                .XG ..Z Z Z Z Z Z Z Z Z Z Z Z Z Z Z Z Z Z Z Z Z Z Z Z Z Z Z Z Z Z Z j y *.          ",
"              @ F }.XXZ Z Z Z Z Z Z Z Z Z Z Z Z Z Z Z Z Z Z Z Z Z Z Z Z Z Z Z Z Z Z  .,.S o         ",
"              a oXOX!.|.h %.Z Z Z Z Z Z Z Z Z Z Z Z Z Z Z Z Z Z Z Z Z Z Z Z Z _ R C f 7 $ o         ",
"              @ +X% @XT.#Xh Z Z Z Z Z Z Z Z Z Z Z Z Z Z Z Z Z Z Z Z Z Z Z Z Z ) T V d 6 # X         ",
"              . O $X%X&XT.|.Z Z Z Z Z Z Z Z Z Z Z Z Z Z Z Z Z Z Z Z Z Z Z Z Z ( Y B s 5 + .         ",
"                      %X@X!.XX..|.g.c.J.Z Z Z Z Z Z Z Z Z Z Z Z Z i.8.C ` ..` f U N a               ",
"                      $X% OX}.G }.T.(.j Z Z Z Z Z Z Z Z Z Z Z Z Z $.7.@.Q Q Q / I M                 ",
"                      O +XoXF .Xn P.Q Z.K.Z Z Z Z Z Z Z Z Z Z Z Z u.6.;.F W F ^ P m                 ",
"                      . @ a @     I./.[ ` q.J  . . . . . . .c q.g.y.5.-..   @ a @ .                 ",
"                                  m = e.W.0.T.,.,.,.,.,.,.,.y 0.f.t.S :                             ",
"                                  X V.N E.* < % % % % % % % < * S W 4.o                             ",
"                                  . a D O + O O O O O O O O O + O o a .                             ",
"                                                                                                    ",
"                                                                                                    ",
"                                                                                                    ",
"                                                                                                    "
};
