/* XPM */
static char *result[] = {
/* columns rows colors chars-per-pixel */
"50 50 208 2 ",
"   c black",
".  c #010100",
"X  c #020200",
"o  c #060600",
"O  c #131300",
"+  c #202000",
"@  c #272700",
"#  c #232300",
"$  c #161600",
"%  c #080800",
"&  c #0D0D00",
"*  c #1C1C00",
"=  c #262600",
"-  c #1B1B00",
";  c #101000",
":  c #343400",
">  c #585800",
",  c #6B6B00",
"<  c #5E5E00",
"1  c #393900",
"2  c #121200",
"3  c #222200",
"4  c #4B4B00",
"5  c #676700",
"6  c #666600",
"7  c #494900",
"8  c #070700",
"9  c #1A1A00",
"0  c #525200",
"q  c #8D8D00",
"w  c #ACAC00",
"e  c #989800",
"r  c #606000",
"t  c #090900",
"y  c #3C3C00",
"u  c #7B7B00",
"i  c #A7A700",
"p  c #A4A400",
"a  c #757500",
"s  c #383800",
"d  c #0B0B00",
"f  c #030300",
"g  c #0C0C00",
"h  c #0E0E00",
"j  c #1F1F00",
"k  c #A3A300",
"l  c #C9C900",
"z  c #B7B700",
"x  c #7D7D00",
"c  c #3B3B00",
"v  c #565600",
"b  c #C5C500",
"n  c #BFBF00",
"m  c #888800",
"M  c #414100",
"N  c #242400",
"B  c #3A3A00",
"V  c #434300",
"C  c #353500",
"Z  c #848400",
"A  c #AAAA00",
"S  c #8C8C00",
"D  c #464600",
"F  c #2B2B00",
"G  c #151500",
"H  c #1E1E00",
"J  c #373700",
"K  c #767600",
"L  c #9B9B00",
"P  c #AFAF00",
"I  c #A1A100",
"U  c #707000",
"Y  c #363600",
"T  c #0A0A00",
"R  c #777700",
"E  c #8A8A00",
"W  c #727200",
"Q  c #3F3F00",
"!  c #212100",
"~  c #484800",
"^  c #6C6C00",
"/  c #828200",
"(  c #939300",
")  c #8B8B00",
"_  c #636300",
"`  c #323200",
"'  c #1D1D00",
"]  c #979700",
"[  c #797900",
"{  c #616100",
"}  c #404000",
"|  c #252500",
" . c #656500",
".. c #C0C000",
"X. c #2C2C00",
"o. c #555500",
"O. c #B9B900",
"+. c #BEBE00",
"@. c #292900",
"#. c #C3C300",
"$. c #111100",
"%. c #A5A500",
"&. c #C4C400",
"*. c #B0B000",
"=. c #7C7C00",
"-. c #444400",
";. c #B3B300",
":. c #909000",
">. c #4A4A00",
",. c #2A2A00",
"<. c #686800",
"1. c #C2C200",
"2. c #9E9E00",
"3. c #5D5D00",
"4. c #181800",
"5. c #959500",
"6. c #9A9A00",
"7. c #8E8E00",
"8. c #5F5F00",
"9. c #515100",
"0. c #818100",
"q. c #6A6A00",
"w. c #141400",
"e. c #4D4D00",
"r. c #717100",
"t. c #3E3E00",
"y. c #5C5C00",
"u. c #737300",
"i. c #969600",
"p. c #ABAB00",
"a. c #474700",
"s. c #303000",
"d. c #6D6D00",
"f. c #9C9C00",
"g. c #0F0F00",
"h. c #4F4F00",
"j. c #C1C100",
"k. c #919100",
"l. c #A6A600",
"z. c #808000",
"x. c #424200",
"c. c #191900",
"v. c #2D2D00",
"b. c #171700",
"n. c #898900",
"m. c #838300",
"M. c #6E6E00",
"N. c #4C4C00",
"B. c #282800",
"V. c #040400",
"C. c #9F9F00",
"Z. c #AEAE00",
"A. c #A8A800",
"S. c #C6C600",
"D. c #A9A900",
"F. c #3D3D00",
"G. c #505000",
"H. c #B5B500",
"J. c #BBBB00",
"K. c #454500",
"L. c #E3E300",
"P. c #F0F000",
"I. c #EBEB00",
"U. c #D4D400",
"Y. c #626200",
"T. c #050500",
"R. c #B2B200",
"E. c #D0D000",
"W. c #DBDB00",
"Q. c #D7D700",
"!. c #2F2F00",
"~. c #535300",
"^. c #929200",
"/. c #8F8F00",
"(. c #CDCD00",
"). c #D8D800",
"_. c #7F7F00",
"`. c #BCBC00",
"'. c #E0E000",
"]. c #EFEF00",
"[. c #EDED00",
"{. c #D9D900",
"}. c #4E4E00",
"|. c #BDBD00",
" X c #646400",
".X c #878700",
"XX c #BABA00",
"oX c #B6B600",
"OX c #868600",
"+X c #787800",
"@X c #5A5A00",
"#X c #2E2E00",
"$X c #6F6F00",
"%X c #5B5B00",
"&X c #313100",
"*X c #B4B400",
"=X c #858500",
"-X c #949400",
";X c #575700",
":X c #696900",
">X c #CACA00",
",X c #B1B100",
"<X c #747400",
"1X c #545400",
"2X c #333300",
"3X c #7A7A00",
"4X c #9D9D00",
"5X c white",
/* pixels */
"                                                                                                    ",
"                                                                                                    ",
"                                                                                                    ",
"                                                                                                    ",
"                                                                                                    ",
"                                  . X X X .                   . . X X . .                           ",
"                                o O + @ # $ %               X & * = = - & X                         ",
"                                ; : > , < 1 2               X 3 4 5 6 7 # 8                         ",
"                                9 0 q w e r #               t y u i p a s d                         ",
"                  f 8 g h %   X j < k l z x c 2 X   . .   8 j v e b n m M &                         ",
"                . & N B V C 9 % $ 7 Z w A S 6 D F G t & H J 0 K L P I U Y T                         ",
"                . 9 7 R E W Q 2 % ! ~ ^ / ( e ) _ ` O ' D R ( ] S [ { } j o                         ",
"                . |  .p ..k _ N o f 2 X.o.q O.+.q 7 - @.6 i #.A a } ! $.% X                         ",
"                X |  .%.&.*.=.-.! T . g Y [ ;.n :.>.- ,.<.A 1.2.3.H       . T $ j + 4.g f           ",
"                . 9 ~ R 5.6.7.[ 8.1 G o H 9.0.S q.J w.j e.x 7.r.t.h         9 Q y.r ~ | t           ",
"                . g + s 0 u.i.p.I r.Y & g N Q a.C * T ; @ Q a.1 j o       f s.d.f.I [ t.g.          ",
"                  . . 8 * h.:.1.#.:.>.2   X g ; g o X f % h ; & 8 X     X $ 7 q j.#.k.4 2           ",
"                        X ` u.l.p.z.x.g.                            T c.v.D , i.;.w x } g.          ",
"                          b.-.5 d.0 ,.T                             4.M ^ n.( :.m.M.N.@ T           ",
"                          T - B.,.+ ; V.                          . # { C.+.Z.z.e.X.4.g V.          ",
"          X t 2 9 H + j * b.g.% f . .                             X = <.A.S.D.q.B.V.                ",
"          % j F.> 6 ^ q.8.a.= t                                   . ' G.0.i.=.D ;                   ",
"          h J d.L H.n J.D.0.>.4.                                  . g.F K.G.M 3 f                   ",
"          $.D n.#.L.P.I.U.p Y.N .                                   V.d 2 G w.g.T 8 8 8 8 T.f .     ",
"          ; } x R.E.W.Q.1.5.> j                                             g H !.1 F.F.J F - d .   ",
"          d ,.~.K E ^./.z.{ Y g.                                            H 7 r.m k.:.m.5 Q 9 f   ",
"          V.2 # ` B F.y Y @.$ T.                                          t C u.p.(.W.).S.f.8.B.T.  ",
"          . X V.o 8 8 8 % g $.G w.g.% X                                   g y _.`.'.].[.{.A <.F T.  ",
"                          g.s.>.}.c H 8                                   T.X.Y.5.R.n |.w m ~.# V.  ",
"                          | 8.q ( M.1 &                                     w.C ~. X^ q.{ N.!.O X   ",
"                        g.x..X`.../.7 $.                              . X T.d O 9 H + j ' b.h o .   ",
"                  8 ; j J Y.i.XXoXOXK.;                             % b.| F N w.V.                  ",
"                . w.Y y.+XE ( k._.@X#Xd                             $ y r $X%X&X8                   ",
"                . ! %X5.*XA =X@Xc N 2 T.                          . 3 3.] *.-X;Xc.                  ",
"                X = :Xp.>XP U s.d     . V.T h ; g o X f % h ; %   V.= <.p.>X,X<XC $.f . .           ",
"                . + > 7.l.S ~.c.        ; F M a.C * T ; @ Q a.C 4.% 9 h.n.p.%.m  Xa.v.b.o           ",
"                . O : 1XY.0 s.g         + o./ S q.J w.j e.x 7.$XB g.t # >., m.5.6.)  X2Xg           ",
"                  o $.* ! * ; T.      t Y 3X;.n :.>.- ,.<.A 1.4X%Xj V.f 2 v.%X5.+.|.) ~ $.          ",
"                                T.d b.X.o.q O.+.q 7 - @.6 i #.A a } + T X h F.0.oXXX) ~ $.          ",
"                                g.v.h.d./ ^.e ) _ ` O ' D R ( ] q [ < J O 8 # v 0.OX .: g           ",
"                                c.}.m w A S 6 D F G t & H J 0 K L P C.^ s.d & | t.M &Xc.o           ",
"                                j 8.k l z x c 2 X   . .   8 j v e b n .X} &   X d & T T..           ",
"                                9 0 q w e r #               t y u i p K s T                         ",
"                                ; 2X> , < 1 2               X 3 4 5 6 7 # o                         ",
"                                o O + @ # $ %               X & * = = - & X                         ",
"                                  . X X X .                   . . X X . .                           ",
"                                                                                                    ",
"                                                                                                    ",
"                                                                                                    ",
"                                                                                                    "
};
