/* XPM */
static char *result[] = {
/* columns rows colors chars-per-pixel */
"50 50 147 2 ",
"   c black",
".  c #010100",
"X  c #050500",
"o  c #090900",
"O  c #0C0C00",
"+  c #0D0D00",
"@  c #0A0A00",
"#  c #060600",
"$  c #020200",
"%  c #040400",
"&  c #1B1B00",
"*  c #353500",
"=  c #464600",
"-  c #4A4A00",
";  c #494900",
":  c #484800",
">  c #474700",
",  c #373700",
"<  c #1E1E00",
"1  c #3B3B00",
"2  c #737300",
"3  c #979700",
"4  c #A2A200",
"5  c #9F9F00",
"6  c #9C9C00",
"7  c #9A9A00",
"8  c #797900",
"9  c #434300",
"0  c #0F0F00",
"q  c #030300",
"w  c #212100",
"e  c #646400",
"r  c #B0B000",
"t  c #E2E200",
"y  c #F0F000",
"u  c #ECEC00",
"i  c #E8E800",
"p  c #EBEB00",
"a  c #E5E500",
"s  c #B8B800",
"d  c #6E6E00",
"f  c #282800",
"g  c #080800",
"h  c #343400",
"j  c #3F3F00",
"k  c #3C3C00",
"l  c #3D3D00",
"z  c #575700",
"x  c #929200",
"c  c #D4D400",
"v  c yellow",
"b  c #DBDB00",
"n  c #5D5D00",
"m  c #363600",
"M  c #131300",
"N  c #959500",
"B  c #989800",
"V  c #A3A300",
"C  c #C4C400",
"Z  c #EAEA00",
"A  c #EEEE00",
"S  c #C9C900",
"D  c #A6A600",
"F  c #969600",
"G  c #7E7E00",
"H  c #4D4D00",
"J  c #191900",
"K  c #2B2B00",
"L  c #727200",
"P  c #BABA00",
"I  c #E1E100",
"U  c #E3E300",
"Y  c #F8F800",
"T  c #F9F900",
"R  c #EFEF00",
"E  c #E6E600",
"W  c #C1C100",
"Q  c #7C7C00",
"!  c #333300",
"~  c #161600",
"^  c #2F2F00",
"/  c #5C5C00",
"(  c #DFDF00",
")  c #A8A800",
"_  c #636300",
"`  c #1C1C00",
"'  c #767600",
"]  c #CECE00",
"[  c #F2F200",
"{  c #F6F600",
"}  c #D3D300",
"|  c #2E2E00",
" . c #757500",
".. c #F5F500",
"X. c #FBFB00",
"o. c #FCFC00",
"O. c #8B8B00",
"+. c #313100",
"@. c #E0E000",
"#. c #0E0E00",
"$. c #242400",
"%. c #555500",
"&. c #9D9D00",
"*. c #696900",
"=. c #949400",
"-. c #747400",
";. c #B2B200",
":. c #D8D800",
">. c #EDED00",
",. c #070700",
"<. c #939300",
"1. c #DEDE00",
"2. c #424200",
"3. c #9B9B00",
"4. c #E9E900",
"5. c #414100",
"6. c #404000",
"7. c #999900",
"8. c #3E3E00",
"9. c #919100",
"0. c #FEFE00",
"q. c #AAAA00",
"w. c #D0D000",
"e. c #F7F700",
"r. c #181800",
"t. c #383800",
"y. c #5F5F00",
"u. c #BEBE00",
"i. c #1D1D00",
"p. c #4E4E00",
"a. c #8A8A00",
"s. c #DCDC00",
"d. c #323200",
"f. c #8C8C00",
"g. c #D9D900",
"h. c #2C2C00",
"j. c #707000",
"k. c #B3B300",
"l. c #F1F100",
"z. c #FAFA00",
"x. c #1A1A00",
"c. c #6D6D00",
"v. c #C8C800",
"b. c #111100",
"n. c #272700",
"m. c #545400",
"M. c white",
/* pixels */
"                                                                                                    ",
"                                  . X o O + + + + + + + + + + + O @ # $                             ",
"                                  % & * = - ; : : : : : : : ; - > , < #                             ",
"                                  @ 1 2 3 4 5 6 6 6 6 6 6 6 5 4 7 8 9 0                             ",
"                      . % # #   q w e r t y u i i i i i i i p y a s d f X   X # % $                 ",
"                      g < h j k l z x c v v v v v v v v v v v v v b 7 n j 1 j m w @                 ",
"                      M = 8 N B N V C Z v v v v v v v v v v v v v A S D F 3 F G H J                 ",
"                    q K L P I i U a A Y v v v v v v v v v v v v v T R E U i U W Q ! #               ",
"              . o ~ ^ / 5 ( v v v v v v v v v v v v v v v v v v v v v v v v v E ) _ ! J @ $         ",
"              $ ` > ' 4 ] [ v v v v v v v v v v v v v v v v v v v v v v v v v { } ) Q H w %         ",
"              q |  .P U ..X.v v v v v v v v v v v v v v v v v v v v v v v v v o.{ E W G m #         ",
"              $ * O.b v v v v v v v v v v v v v v v v v v v v v v v v v v v v v v v U F j X         ",
"                +.O.@.v v v v v v v v v v v v v v v v v v v v v v v v v v v v v v v i 3 1           ",
"              . * O.b v v v v v v v v v v v v v v v v v v v v v v v v v v v v v v v U F j X         ",
"        . # #.$.%.&.( v v v v v v v v v v v v v v v v v v v v v v v v v v v v v v v E D n f 0 # $   ",
"        q & j *.=.C p v v v v v v v v v v v v v v v v v v v v v v v v v v v v v v v R S 7 d 9 < #   ",
"        # +.-.;.:.>.Y v v v v v v v v v v v v v v v v v v v v v v v v v v v v v v v T A b s 8 , @   ",
"        ,.j <.1.v v v v v v v v v v v v v v v v v v v v v v v v v v v v v v v v v v v v v a 7 > O   ",
"        g 2.3.4.v v v v v v v v v v v v v v v v v v v v v v v v v v v v v v v v v v v v v y 4 - +   ",
"        ,.5.B a v v v v v v v v v v v v v v v v v v v v v v v v v v v v v v v v v v v v v p 5 ; +   ",
"        ,.6.N I v v v v v v v v v v v v v v v v v v v v v v v v v v v v v v v v v v v v v i 6 : +   ",
"        ,.6.N I v v v v v v v v v v v v v v v v v v v v v v v v v v v v v v v v v v v v v i 6 : +   ",
"        ,.6.N I v v v v v v v v v v v v v v v v v v v v v v v v v v v v v v v v v v v v v i 6 : +   ",
"        ,.6.N I v v v v v v v v v v v v v v v v v v v v v v v v v v v v v v v v v v v v v i 6 : +   ",
"        ,.6.N I v v v v v v v v v v v v v v v v v v v v v v v v v v v v v v v v v v v v v i 6 : +   ",
"        ,.6.N I v v v v v v v v v v v v v v v v v v v v v v v v v v v v v v v v v v v v v i 6 : +   ",
"        ,.6.N I v v v v v v v v v v v v v v v v v v v v v v v v v v v v v v v v v v v v v i 6 : +   ",
"        ,.5.7.E v v v v v v v v v v v v v v v v v v v v v v v v v v v v v v v v v v v v v u 5 ; +   ",
"        g 2.3.4.v v v v v v v v v v v v v v v v v v v v v v v v v v v v v v v v v v v v v y 4 - +   ",
"        ,.8.9.b 0.v v v v v v v v v v v v v v v v v v v v v v v v v v v v v v v v v v v v t 3 = O   ",
"        X ^ d q.w.i e.v v v v v v v v v v v v v v v v v v v v v v v v v v v v v v v Y Z c r 2 * o   ",
"        q r.t.y.O.u.Z v v v v v v v v v v v v v v v v v v v v v v v v v v v v v v v A C x e 1 & X   ",
"        . % o i.p.7.1.v v v v v v v v v v v v v v v v v v v v v v v v v v v v v v v a V z w @ % .   ",
"                ! a.s.v v v v v v v v v v v v v v v v v v v v v v v v v v v v v v v U N l q         ",
"                d.f.@.v v v v v v v v v v v v v v v v v v v v v v v v v v v v v v v i B k           ",
"              $ * a.g.v v v v v v v v v v v v v v v v v v v v v v v v v v v v v v v I N j #         ",
"              q h.j.k.s.l.z.v v v v v v v v v v v v v v v v v v v v v v v v v X.[ ( P 8 h #         ",
"              $ x.6.c.7.v.l.v v v v v v v v v v v v v v v v v v v v v v v v v ..] 5 L = < %         ",
"              . ,.b.n.m.7.s.v v v v v v v v v v v v v v v v v v v v v v v v v U 4 / K M g .         ",
"                      n.c.k.g.@.s.1.Z e.v v v v v v v v v v v v v Y p ( b @.b P ' ^ q               ",
"                      b.6.j.a.f.a.7.u.i v v v v v v v v v v v v v >.C &.O.O.O. .> ~                 ",
"                      ,.x.h.* d.! p.O.w.0.v v v v v v v v v v v v :.=.%.* +.* | ` o                 ",
"                      . $ q $     i.y.q.b 4.E I I I I I I I a 4.1.;.*.$..   $ q $ .                 ",
"                                  o t.d 9.3.7.N N N N N N N B 3.<.-.j #.                            ",
"                                  % r.^ 8.2.5.6.6.6.6.6.6.6.5.2.j +.& #                             ",
"                                  . q X ,.g ,.,.,.,.,.,.,.,.,.g ,.# q .                             ",
"                                                                                                    ",
"                                                                                                    ",
"                                                                                                    ",
"                                                                                                    "
};
