/* XPM */
static char *result[] = {
/* columns rows colors chars-per-pixel */
"50 50 210 2 ",
"   c black",
".  c #020200",
"X  c #060600",
"o  c #0B0B00",
"O  c #0E0E00",
"+  c #0C0C00",
"@  c #080800",
"#  c #030300",
"$  c #010100",
"%  c #050500",
"&  c #0A0A00",
"*  c #0D0D00",
"=  c #090900",
"-  c #040400",
";  c #202000",
":  c #373700",
">  c #434300",
",  c #3B3B00",
"<  c #242400",
"1  c #161600",
"2  c #2F2F00",
"3  c #414100",
"4  c #404000",
"5  c #2E2E00",
"6  c #151500",
"7  c #424200",
"8  c #717100",
"9  c #8A8A00",
"0  c #797900",
"q  c #4B4B00",
"w  c #191900",
"e  c #2D2D00",
"r  c #616100",
"t  c #858500",
"y  c #848400",
"u  c #5E5E00",
"i  c #1D1D00",
"p  c #5B5B00",
"a  c #9C9C00",
"s  c #C0C000",
"d  c #ABAB00",
"f  c #6F6F00",
"g  c #2C2C00",
"h  c #101000",
"j  c #474700",
"k  c #8B8B00",
"l  c #BABA00",
"z  c #B6B600",
"x  c #828200",
"c  c #3E3E00",
"v  c #111100",
"b  c #1C1C00",
"n  c #212100",
"m  c #181800",
"M  c #595900",
"N  c #9B9B00",
"B  c #C3C300",
"V  c #252500",
"C  c #070700",
"Z  c #323200",
"A  c #636300",
"S  c #C1C100",
"D  c #B8B800",
"F  c #131300",
"G  c #343400",
"H  c #545400",
"J  c #626200",
"K  c #4F4F00",
"L  c #292900",
"P  c #383800",
"I  c #6C6C00",
"U  c #929200",
"Y  c #9A9A00",
"T  c #909000",
"R  c #7C7C00",
"E  c #646400",
"W  c #444400",
"Q  c #222200",
"!  c #141400",
"~  c #535300",
"^  c #969600",
"/  c #878700",
"(  c #5D5D00",
")  c #585800",
"_  c #8E8E00",
"`  c #A6A600",
"'  c #505000",
"]  c #4E4E00",
"[  c #6E6E00",
"{  c #AAAA00",
"}  c #A5A500",
"|  c #171700",
" . c #232300",
".. c #575700",
"X. c #ACAC00",
"o. c #A2A200",
"O. c #838300",
"+. c #5F5F00",
"@. c #2A2A00",
"#. c #262600",
"$. c #696900",
"%. c #CACA00",
"&. c #AEAE00",
"*. c #707000",
"=. c #454500",
"-. c #BDBD00",
";. c #C6C600",
":. c #959500",
">. c #4D4D00",
",. c #2B2B00",
"<. c #6B6B00",
"1. c #AFAF00",
"2. c #A9A900",
"3. c #B4B400",
"4. c #5A5A00",
"5. c #393900",
"6. c #1B1B00",
"7. c #A1A100",
"8. c #8D8D00",
"9. c #363600",
"0. c #5C5C00",
"q. c #787800",
"w. c #939300",
"e. c #919100",
"r. c #7D7D00",
"t. c #525200",
"y. c #3D3D00",
"u. c #3C3C00",
"i. c #303000",
"p. c #7A7A00",
"a. c #7E7E00",
"s. c #313100",
"d. c #1F1F00",
"f. c #B2B200",
"g. c #888800",
"h. c #464600",
"j. c #0F0F00",
"k. c #BCBC00",
"l. c #8F8F00",
"z. c #494900",
"x. c #272700",
"c. c #565600",
"v. c #484800",
"b. c #A0A000",
"n. c #6A6A00",
"m. c #4A4A00",
"M. c #1E1E00",
"N. c #515100",
"B. c #A4A400",
"V. c #1A1A00",
"C. c #686800",
"Z. c #C9C900",
"A. c #B1B100",
"S. c #777700",
"D. c #3A3A00",
"F. c #121200",
"G. c #606000",
"H. c #999900",
"J. c #767600",
"K. c #808000",
"L. c #353500",
"P. c #D0D000",
"I. c #DBDB00",
"U. c #D7D700",
"Y. c #C2C200",
"T. c #333300",
"R. c #898900",
"E. c #E3E300",
"W. c #F0F000",
"Q. c #EBEB00",
"!. c #D4D400",
"~. c #6D6D00",
"^. c #B5B500",
"/. c #BFBF00",
"(. c #BBBB00",
"). c #818100",
"_. c #666600",
"`. c #B3B300",
"'. c #DEDE00",
"]. c #EDED00",
"[. c #EAEA00",
"{. c #D6D600",
"}. c #A8A800",
"|. c #676700",
" X c #282800",
".X c #D3D300",
"XX c #E1E100",
"oX c #DFDF00",
"OX c #CCCC00",
"+X c #737300",
"@X c #4C4C00",
"#X c #757500",
"$X c #656500",
"%X c #C4C400",
"&X c #B0B000",
"*X c #747400",
"=X c #989800",
"-X c #A7A700",
";X c #949400",
":X c #868600",
">X c #979700",
",X c #C7C700",
"<X c #A3A300",
"1X c #9D9D00",
"2X c #BEBE00",
"3X c #9F9F00",
"4X c #727200",
"5X c #3F3F00",
"6X c #8C8C00",
"7X c white",
/* pixels */
"                                                                                                    ",
"                                                                                                    ",
"                                                                                                    ",
"                                                                                                    ",
"                                                                                                    ",
"                                                                                                    ",
"                                                                                                    ",
"                                                                                                    ",
"                                                                                                    ",
"                                . X o O + @ #               $ % & * * = - $                         ",
"                                & ; : > , < +               . 1 2 3 4 5 1 -                         ",
"                                6 7 8 9 0 q w               - e r t y u e =                         ",
"                                i p a s d f g -             h j k l z x c +                         ",
"                  X v b n m = - i M N B z t q V v C - % & m Z A a S D x c +                         ",
"                $ F G H J K L + h P I U Y T R E W Q O ! 2 ~ f t ^ Y / ( e =                         ",
"                $ ; ) _ ` 9 ' w % v 5 ] [ U { } 0 c |  ...T X.o.O.+.> @.! -                         ",
"                . #.$.d %.&.*.2 +   - w =./ -.;.:.>.b ,.<.1.%.2.<.5 O . $ . # X = = C - $           ",
"                $ n p :.3.{ t 4.5.6.C C ,.$.7.&.O.W w #.+.Y 1.8.' 1         h #.: 5.,.1 %           ",
"                $ ! 9.0.q.9 w.e.r.t.< = 6 y.E [ ~ ,.h m u.J f M i.&          .H p.a.u s.o           ",
"                  C h d.: J ^ l z y 7 h X F V ,.; v X = | #.,. .F %       = , a.f.z g.h.h           ",
"                        j.7 / k.s l.z.v     $ # . $   $ . # # . $ $ # C h x.c.w.s s _ z.v           ",
"                          V +.8.w.[ 5.*                             h @.v.A r.:.b.w.n.9.*           ",
"                          j.i.m.] , M.C                             M.N.t B.o.9 <.K G V.C           ",
"          $ . - X C C C @ + v 6 ! j.@ .                           . #.C.{ Z.A.S.D.1 C # .           ",
"          - F. .Z D.y.u.9.L 1 %                                   $  .G.a z H.p b                   ",
"          o @.~ J.9 U l.K.r 9.j.                                  $ | 4 C.q.J L.@                   ",
"          h 4 r.f.P.I.U.Y.:.) d.                                    & 6.g T.L 1 #                   ",
"          v h.R.B E.W.Q.!.B.J < $                                   $ # % @ + v 6 | w m | F.o % $   ",
"          O : ~.N ^./.(.2.).m.m                                             F.2 m.4.r G...=.@.F..   ",
"          @ d.y.) _.I n.+.j #.=                                           # L ( 8.{ ^.`.B.).K n -   ",
"          . = F.V.M.; d.b | j.@ # $ $                                     + , r.l '.].[.{.}.|.,.%   ",
"                          & 6. X@.; h -                                   & : J.A..XXXoXOXb.J L %   ",
"                          | W |.~.t.@.&                                   $ n K 0 U a Y 8.f W b #   ",
"                        . Z +X` d K.7 j.                                    *  .: 7 j h.4 Z d.* .   ",
"                  $ $ C b K T Y.B e.q F.                            # @ * h h O + o o o o @ % .     ",
"                $ + ; P t.+X^ d o.J.u.O                             O #.c j D.M.#                   ",
"                $ V.v.S.:.Y _ 0 r 7 Q @                             6.@Xp._ #X3 *                   ",
"                . V $X} %X&XR W n h @ #       $ $         $ $     . V _.` Y.} _.V $                 ",
"                $ V $XB.s B.$X< $       = 1 n < 6.O % @ F ; < m @ X  .r o.Y.&Xr.j V F.= #           ",
"                $ V.z.S.9 *XW F         | y.( $X>. Xj.1 P 4._.] #.& F.u.f e.=Xl.R $X=. .=           ",
"                $ * < D.> P n =         L |.N -Xa.3 m V p ;X2.:Xz.! - F.2 ] 8 >X&.} q.c j.          ",
"                  # C + O o C # $   . ! 7 t k.,X:.>.b ,.I &X%.}.|.@.o   % 6.@Xl.S B e.q F.          ",
"                                = w e h.C.e.&.X.a.3 m V p ^ f.B.K.) 5.V.X = s.*.<X}.a.3 j.          ",
"                                ! u.n.9 :.e.x ~.q #.j.1 L.p S.9 :.w.r.K ; @ m 4 E C.]  X=           ",
"                                i M H./.3.:XN.,.1 & % X O M.P |.1X2X`.r.D.* % F < #.i j.#           ",
"                                M.( 3XB 1.4X2 C             F q l.2Xl y 5X+       . $ $             ",
"                                1 h.q.U K.' 6.              % i.|.8.6XE i.=                         ",
"                                + < c @X7 L *               . m L.z.v.G w -                         ",
"                                # = j.F.h & -               $ C * F.v + X $                         ",
"                                                                                                    "
};
