/* XPM */
static char *result[] = {
/* columns rows colors chars-per-pixel */
"50 50 196 2 ",
"   c black",
".  c #010100",
"X  c #050500",
"o  c #090900",
"O  c #0C0C00",
"+  c #0D0D00",
"@  c #0A0A00",
"#  c #060600",
"$  c #020200",
"%  c #040400",
"&  c #1B1B00",
"*  c #353500",
"=  c #464600",
"-  c #4A4A00",
";  c #494900",
":  c #484800",
">  c #474700",
",  c #373700",
"<  c #1E1E00",
"1  c #3B3B00",
"2  c #737300",
"3  c #979700",
"4  c #A2A200",
"5  c #9F9F00",
"6  c #9C9C00",
"7  c #9A9A00",
"8  c #797900",
"9  c #434300",
"0  c #0F0F00",
"q  c #030300",
"w  c #212100",
"e  c #646400",
"r  c #B0B000",
"t  c #E2E200",
"y  c #F0F000",
"u  c #ECEC00",
"i  c #E8E800",
"p  c #EBEB00",
"a  c #E5E500",
"s  c #B8B800",
"d  c #6E6E00",
"f  c #282800",
"g  c #080800",
"h  c #343400",
"j  c #3F3F00",
"k  c #3C3C00",
"l  c #3D3D00",
"z  c #575700",
"x  c #929200",
"c  c #D4D400",
"v  c yellow",
"b  c #DBDB00",
"n  c #5D5D00",
"m  c #363600",
"M  c #131300",
"N  c #959500",
"B  c #989800",
"V  c #A3A300",
"C  c #C4C400",
"Z  c #EAEA00",
"A  c #EEEE00",
"S  c #C9C900",
"D  c #A6A600",
"F  c #969600",
"G  c #7E7E00",
"H  c #4D4D00",
"J  c #191900",
"K  c #2B2B00",
"L  c #727200",
"P  c #BABA00",
"I  c #E1E100",
"U  c #E3E300",
"Y  c #F8F800",
"T  c #F9F900",
"R  c #EFEF00",
"E  c #E6E600",
"W  c #C1C100",
"Q  c #7C7C00",
"!  c #333300",
"~  c #161600",
"^  c #2F2F00",
"/  c #5C5C00",
"(  c #DFDF00",
")  c #A8A800",
"_  c #636300",
"`  c #1C1C00",
"'  c #767600",
"]  c #CECE00",
"[  c #F2F200",
"{  c #F6F600",
"}  c #D3D300",
"|  c #2E2E00",
" . c #757500",
".. c #F5F500",
"X. c #FBFB00",
"o. c #FCFC00",
"O. c #8B8B00",
"+. c #414100",
"@. c #070700",
"#. c #313100",
"$. c #E0E000",
"%. c #F1F100",
"&. c #A0A000",
"*. c #454500",
"=. c #0E0E00",
"-. c #242400",
";. c #555500",
":. c #9D9D00",
">. c #EDED00",
",. c #DDDD00",
"<. c #C0C000",
"1. c #808000",
"2. c #696900",
"3. c #949400",
"4. c #A1A100",
"5. c #8C8C00",
"6. c #7A7A00",
"7. c #515100",
"8. c #232300",
"9. c #747400",
"0. c #B2B200",
"q. c #D8D800",
"w. c #5B5B00",
"e. c #303000",
"r. c #202000",
"t. c #939300",
"y. c #DEDE00",
"u. c #FEFE00",
"i. c #F7F700",
"p. c #E4E400",
"a. c #E9E900",
"s. c #424200",
"d. c #9B9B00",
"f. c #CCCC00",
"g. c #898900",
"h. c #525200",
"j. c #3A3A00",
"k. c #404000",
"l. c #E7E700",
"z. c #A7A700",
"x. c #F3F300",
"c. c #D5D500",
"v. c #B3B300",
"b. c #999900",
"n. c #6A6A00",
"m. c #B1B100",
"M. c #444400",
"N. c #151500",
"B. c #181800",
"V. c #1D1D00",
"C. c #141400",
"Z. c #0B0B00",
"A. c #B5B500",
"S. c #4C4C00",
"D. c #4E4E00",
"F. c #DADA00",
"G. c #BCBC00",
"H. c #A5A500",
"J. c #A9A900",
"K. c #ABAB00",
"L. c #383800",
"P. c #FDFD00",
"I. c #ADAD00",
"U. c #606000",
"Y. c #D0D000",
"T. c #909000",
"R. c #4B4B00",
"E. c #222200",
"W. c #C6C600",
"Q. c #9E9E00",
"!. c #828200",
"~. c #3E3E00",
"^. c #919100",
"/. c #787800",
"(. c #AAAA00",
"). c #252500",
"_. c #101000",
"`. c #5F5F00",
"'. c #BEBE00",
"]. c #848400",
"[. c #585800",
"{. c #FAFA00",
"}. c #C7C700",
"|. c #8A8A00",
" X c #DCDC00",
".X c #323200",
"XX c #D9D900",
"oX c #2C2C00",
"OX c #707000",
"+X c #1A1A00",
"@X c #6D6D00",
"#X c #C8C800",
"$X c #111100",
"%X c #272700",
"&X c #545400",
"*X c white",
/* pixels */
"                                                                                                    ",
"                                  . X o O + + + + + + + + + + + O @ # $                             ",
"                                  % & * = - ; : : : : : : : ; - > , < #                             ",
"                                  @ 1 2 3 4 5 6 6 6 6 6 6 6 5 4 7 8 9 0                             ",
"                      . % # #   q w e r t y u i i i i i i i p y a s d f X   X # % $                 ",
"                      g < h j k l z x c v v v v v v v v v v v v v b 7 n j 1 j m w @                 ",
"                      M = 8 N B N V C Z v v v v v v v v v v v v v A S D F 3 F G H J                 ",
"                    q K L P I i U a A Y v v v v v v v v v v v v v T R E U i U W Q ! #               ",
"              . o ~ ^ / 5 ( v v v v v v v v v v v v v v v v v v v v v v v v v E ) _ ! J @ $         ",
"              $ ` > ' 4 ] [ v v v v v v v v v v v v v v v v v v v v v v v v v { } ) Q H w %         ",
"              q |  .P U ..X.v v v v v v v v v v v v v v v v v v v v v v v v v o.{ E W G m #         ",
"              $ * O.b v v v v v v v v v v v v v v v v v v v v v v v v v v v v v v v a B +.@.        ",
"                #.O.$.v v v v v v v v v v v v v v v v v v v v v v v v v v v v v v v %.&.*.g         ",
"              . * O.b v v v v v v v v v v v v v v v v v v v v v v v v v v v v v v v a B +.@.        ",
"        . # =.-.;.:.( v v v v v v v v v v v v v v v v v v v v v v v v v T >.I b ( ,.<.1., #         ",
"        q & j 2.3.C p v v v v v v v v v v v v v v v v v v v v v v v v v %.S 4.O.O.5.6.7.8.%         ",
"        # #.9.0.q.>.Y v v v v v v v v v v v v v v v v v v v v v v v v v ( :.w., #.* e.r.=.$         ",
"        @.j t.y.v v v v v v v v v v v v v v v v v v u.i.>.p.I $.I p.a.I P L K %   . q $ .           ",
"        g s.d.a.v v v v v v v v v v v v v v v v v v v E <.&.t.x N 3 d.N 8 = M                       ",
"        @.+.B a v v v v v v v v v v v v v v v v v v o.f.g.h.1 j.j +.s.k.h < g                       ",
"        @.k.N I v v v v v v v v v o...A a.l.l.i >.R y.z.w.& $ . @.@.g @.# % .                       ",
"        @.k.N I v v v v v v v v v x.c.v.6 F 3 b.:.5 x n.! #                                         ",
"        @.k.N I v v v v v v v v v a.m.L : k j s.M.*.j | N..                                         ",
"        @.k.N I v v v v v v v v v a 4.;.8.N.B.V.V.V.& C.Z.q                                         ",
"        @.k.N I v v v v v v v v v Z A.8 7.*.: S.H D.: h B..                                         ",
"        @.k.N I v v v v v v v v v ..F.G.) 4 V H.J.K.:.2 L.@.                                        ",
"        @.k.N I v v v v v v v v v P.Y [ R A A A x.{ p.I.U.r.# X Z.O O O @ # $                       ",
"        @.+.b.E v v v v v v v v v v v v v v v v v v u.Y.T.w.*.M.; R.H - k E.o                       ",
"        g s.d.a.v v v v v v v v v v v v v v v v v v v i W.J.Q.:.&.4 D &.!.S.N.                      ",
"        @.~.^.b u.v v v v v v v v v v v v v v v v v u.T %.Z i l.i p y i <./.^ @.  X # % $           ",
"        X ^ d (.Y.i i.v v v v v v v v v v v v v v v v v v v v v v v v v t V _ k.1 j L.)._.$         ",
"        q B.L.`.O.'.Z v v v v v v v v v v v v v v v v v v v v v v v v v [ ] (.F F 3 ].[.).%         ",
"        . % o V.D.b.y.v v v v v v v v v v v v v v v v v v v v v v v v v {.%.l.U i a }.].L.#         ",
"                ! |. Xv v v v v v v v v v v v v v v v v v v v v v v v v v v v v v v i 7 s.@.        ",
"                .X5.$.v v v v v v v v v v v v v v v v v v v v v v v v v v v v v v v %.&.M.g         ",
"              $ * |.XXv v v v v v v v v v v v v v v v v v v v v v v v v v v v v v v t F k.@.        ",
"              q oXOXv. X%.{.v v v v v v v v v v v v v v v v v v v v v v v v v X.[ ( P 8 h #         ",
"              $ +Xk.@Xb.#X%.v v v v v v v v v v v v v v v v v v v v v v v v v ..] 5 L = < %         ",
"              . @.$X%X&Xb. Xv v v v v v v v v v v v v v v v v v v v v v v v v U 4 / K M g .         ",
"                      %X@Xv.XX$. Xy.Z i.v v v v v v v v v v v v v Y p ( b $.b P ' ^ q               ",
"                      $Xk.OX|.5.|.b.'.i v v v v v v v v v v v v v >.C :.O.O.O. .> ~                 ",
"                      @.+XoX* .X! D.O.Y.u.v v v v v v v v v v v v q.3.;.* #.* | ` o                 ",
"                      . $ q $     V.`.(.b a.E I I I I I I I a a.y.0.2.-..   $ q $ .                 ",
"                                  o L.d ^.d.b.N N N N N N N B d.t.9.j =.                            ",
"                                  % B.^ ~.s.+.k.k.k.k.k.k.k.+.s.j #.& #                             ",
"                                  . q X @.g @.@.@.@.@.@.@.@.@.g @.# q .                             ",
"                                                                                                    ",
"                                                                                                    ",
"                                                                                                    ",
"                                                                                                    "
};
